<mxfile host="app.diagrams.net" modified="2021-09-23T01:08:35.982Z" agent="5.0 (Windows NT 10.0; Win64; x64) AppleWebKit/537.36 (KHTML, like Gecko) Chrome/93.0.4577.82 Safari/537.36" etag="qB2LPuxa7XszYZ8E8CYg" version="15.2.9" type="github">
  <diagram id="GtiB2UJL_A4pWavDoa2J" name="Page-1">
    <mxGraphModel dx="1449" dy="562" grid="1" gridSize="10" guides="1" tooltips="1" connect="1" arrows="1" fold="1" page="1" pageScale="1" pageWidth="850" pageHeight="1100" math="0" shadow="0">
      <root>
        <mxCell id="0" />
        <mxCell id="1" parent="0" />
        <mxCell id="YCEW6N18LricztC5vMor-2" value="" style="shape=image;verticalLabelPosition=bottom;labelBackgroundColor=#ffffff;verticalAlign=top;aspect=fixed;imageAspect=0;image=data:image/png,iVBORw0KGgoAAAANSUhEUgAAAzIAAAG/CAYAAACDhOICAAAgAElEQVR4AeydB5gURdrHYdklJ5GckwIKSjRhzt55Zk/BrPeZPVFMBEFEzDmCWc98BgQM5JyUnMPmNGEnz2wE7/89/5qp2d6hd2Z2J+5u7fPUVk91dXV1d3X3++s3VKOsrCyEStnZ2cjOyUZOTk7IlJubi8CUl5eHcFJ+fj4CU0FBAQJTYWEhtMlgMMBoNEY1mUwmBCaz2QymoqKiKslisSBoslpgtVpDJpvNBrvdXm+Tw+FAsiSn04lkTi6XC0mb3C643e46nzweD+pDKi4uRnGJSuocqDGgxkD0x4CnuH48J8N91if7uy1p5YIayizRlL8ahYIYrlcg44UaBTKRQVayQAz7Ec2bKBZtJfXDSoFMUgGQApnoC29KIFbnVI0B7xhQIJNcH+2SWjaoAcxEU25SIFONJidQG8PfCmQUyETz5gvWVlI/rBTIKJBRGiClBVNjoEGMAQUyCmRiIY8Ek39quk6BjAKZuJmyKY1M+OZssXhwRK1NBTIKZJQQ2yCEWKWVUJopBTIKZKImO2g0NjWFlWD16xzICN8YQyEKNSmaPjJSEyO1L3p5TX1kqvWPsVlh1STlIxM/H5pgN0UyrIvFgyNabSa7DXG4/QvXZjqh9WifHiIp0zIlbCrgUGMgZmOguDjkMyjUM6rK+iT3TQz3/ZGoetF6jye6nWjKWVEDmSoO/nm5IZ37A536+TvQqZ+/tU79EmIILgZj1VRbZ38JLoG5HsDIsqAgUwPHfpvdhsBUX5z9E6V9iebNEYu2Ev3wCLp/pWlJPk0LHflDJaUdUdoRNQbUGIjVGAj1/Knh+vqi4UkUyIS736Dveo1mJFH1oilfxQRkYh2hjBBTW3AJ3C4QYORvCS16ebRApr5Ai95xKJDRNyNL1EMjrP0qkEk+kImVcKLaVYKvGgNqDMR7DEjtTpJrZcLRwocLFImqF9Y7P4FAkxQgw3DMIppZtjcss1Yjo0BGhVpWIKNAJlEP8HBeQnWhjjIZU+ZCMTMXircAq/anoIljQIFM3KYtUCATMLeMXvhllmVle0Mzc36Z+gAygdoXqXmprlyurzKHTA1My/Q0GfWlTIGMAhkFMpHNv6BARoGMAhk1BurVGFAgo0DGpwWKu0ZGAot2UswqIJNbx0DGZDxiskujyeif7JLgQkghoEhYqS6vAjGWIBNfapz66eAfK8d+6XPjByKHN2TyEeVhTLzJbfzt2O3Cn0f7O9iyAhkFMgpkFMjUKyFMaRWUVkGNgcjGgAIZBTIJAxlqaDTaF2pgJMhQEyMd9+UyTctCaWjkNto8HGd/6egf6OsS6rf0fQnMCS0sYyABk9kkwEWCDOHFXGQWSQsyYcOL1WtiRmiRIKHNg4FArdY57AKQAiGJv2sKT6LPNhsIJCRn9iewXdnHSKElWu3IvkaT9KPdVlKre5WPjPKRUYJaZIKaOn/q/KkxUP0YUCCjQCaRIJOZmYmsrCwQYiTIEGYksMgy5sJHJj8vaOQyLcDI5USADOHFaDAKkJFhnE06GhmtdqY2ICOF9XjmQqNCjYzNBgtN3mxWL5AI7UrwyS21IMM+y996/Q8bZOwOMBQ12xLQ4XDAZrUKkBRlTiccTI7KMMx2h73Kb+06veVog0e021MgE/uY/HXB/yWcPirTMmVWpDRaagzUqzGgQEaBTNxAJjsLmVlecCG8EFgIJwQNoRExGPxhkeVvmRNKqN1g3bx8r2ZGOv/n5+VDpIBQy/EGGa3Pi8loRE5WNv773Xd4/bXX8NLLL+PTzz7Dzl07RWQ0Ct4EF24jYUYLMtXOEePTxkjBXQ8AYlUmBHynA06XEyX8OuTxwO1y+YHA5gMZ5v4+2Ag8lb/ZBk2DKHC53G44nS7YCR7abXzLekAhy7iNTE6HU+yDeV5uLlYsX46333oLr7z8Mr74zxfYtHkLiixW2KkBIoAFJNmmNnfaHfAnn/ZIwofL6RLaJIfTAZnkukTlCmQUyIQDMayjQEYJsfVKiFWaiuo1FQ3l3CiQUSATE5DJzhKaFgKLSD6IESDDddlZyMjIwI4dO7Bx40Zs2LDBn6/fsN7/+88//8TWrVuxe/duUHtDiCHMEFIkyBTkF6CgoBDMC5kX8Lc3sZ5c1uZHzCNTWCjmkAllSha4nuZj9INhrgUZQ0Ehdu3YgZtvvBFDBg9Gn759ce5552Hu3Lmi3xT0qwWZJHXsp5DOY8xIT8eunTuwY/s27Nu7VxyPzUZfFwJJJZQ47HY4bN4kYYbnb//+/di5Yyd27NiJg+kZMJnMNQIZCTDMHQ4nCBZMJZ5ibN2yBTOmTcOxxwxE3z59cNZZZ+O92R8gL7+wKsj45trhddACDJf9ACNhRgMyYl8uAhi1PNy/XeTyd1KAjM+UK1pwI31Sat2eMi1TpmUNRaBSx6mEajUG4j8GFMgokIkFyGRnZaMyZSFbAE0mMrMykO0Dme07tuONN97Agw8+iLvvvhv33HuvSHffcw/uufse3H/f/Zjw4ARMmjQJ77zzDn6e9zM2bNyAgwcPoNDgBRevJoYAYxAwQ5DRwoweyBBiqOkJhJmazCNzRF3CjNkk/F4sRUUoyMvD+tWrMXr4cDRq1Eikozp0wFtvvy1gjIK9uagINivNs6woslhgsVjFMn+zPJhWRppkVckDnOj9WhGfhkP60QSWh/ObAjoF2p07d+L99+fg7rvvxL333IXp06fh53nzUFhogN1B7YpLwIwABO6X5l5MdjuKLEXYtGkTZj7zDCZMeEikDz78CDt37hKmX4H9EHCgMQcjZGghxsrfhBiXGy6HC+WlJVi5YinGX3et/5y3aN4KEx+bgoMZ2bC7XLA67LDarbDYimC1WYSPkcPugEwSYlwOB2SSsEJwqQIywjzNBzIOp7cNLfQE3FgEgViBDtvm9WH7crnW4OHrt9xegYxX2xOuxiMm9Yo9UZsFW2lklEZGaWTUGKh3Y0DCTLSelQmak0a+b5M1l3JBsubRlLEaEWJys3OEeRVNrHLo1J9FkElHdk4W0tMP4vfff8PQoccjrWmaV/BMSUFqahoapzRBWlpTsdw0rSlat2qNDh2OwjHHDMA//nEpnn/uWWz8YyOM1IYYTSggxBTSH4WpEmikBiYQWKgVIHRwPX1xqNkRcBPGhJjSqV+avIncaICJ0clMRhQVmWGzWmAsLMCm9etw2ujRaJLSWBxf1+7d8ebbbyM3P19oIMxF9C+xi0SNhly2Cif6I0FGmKBZigTgCM2B0yl8VISfis9HJBAG/L99DvvCOd8HPNoLLiBBx7xLbs+6FNB+/fVXXHrp39C4USOkpjRCm9atcONNN2P1mnVwuUtEolaG+yG82K0W2G1WlJYUI/3gAbz80ksg0PE6N0lNw5VXXo0lS5aiorxCCODsB+GMECdvFJqM0QRNmKEROmiO5nLB5nLB7qTw7hGamdISN5Yv+w03XH+1H2Q6HNUJk6fNQkZ2AexuD6xOO4psRTBbjSiymmFl/wRw2eGidof7sldCDGGGIGN30P/GLkDG7fSAfRKA47DBSXjxmbexLXle5YNIHgdzuU6Wyd9e7Y43AIK2nlxfbe6qBBcKqHJcyDa0fdC2oV1fUlLihyBZh+vltjJnWa1SgjQyMQGKBLzcBHjUcJbroNuoL8bx/2Kszrk652oMxHYMRPMZKaEoAc/7aL+35Ps73nmtZIXayhi12E7KOsHyRnk5uWASMMPJLYWpWYYAmZycLBzMOIj5v8xHnz69/UJn48aN0aRJEzRr2gxNmzYVKS0tDampqUhJSRFA0LZNaww+9hiMGz8O8+bNR1ZWDgxGMwoKjCg0mATQFBRS2+LVuBBWAkGGZdI3R65j2RFaFqNR+LNozckkyLBMaHUM1O4Uwmg0wGwywFJkFoK72VCIzevXYeyY0UhtkuIFmR49qoAM/TYIL6YiC4qogZEwI5b1QYYCvoQLCq0cnCwjzLCcg0e7XviDaMynCAmMlMbjIBhxW61WR26rl/MGW7NmDe64/VY0atxIwAy1TWNPPwP/+fJrlJYdhsNdApvdG43MTmCyWuBy2FBS7MaqlStw6223+q938xYtceedd2PHzl0oLS0VfeF+eVxC++HzvyEkuJ38Ku4R2heH0w27yw2ryw2HywOnkwK8EyXFTixdMg83XHeFfx8dj+6KqU+9iPQcA2yeYlicdphtZhgtBTBZjF6Qsdm98GJ3wi1ghuZlBBsCSiXIOH0aGQ+BTfSNcOPVNhF+aEZHDRRvDJ5bHgfr8fyyjMvMRbnbJXwVeP1YxuNmPdbxtu0QZVwXNLm8mjL5lZ3njfW1+5K/ZZn2N8sCH3C8ztoy8dtT6YPCbWqUFMhEZFomr229+4KqBLvYCnbq/Krzq8ZA7caAApkqMoBWHgh3uUYyQk1liijUDypX+eQuP8hUwgx9ZTKQkXkQ2TmZOJhxAPN/mYc+fStBpnWbthg+fCRuvfV28ZV/3LgbcOWVV+GM089A3z690TQtFYQdCs/tj2qPK664Ej/+NBcH0zNRaDALPwhqZiTIGHwwI7QtBoPwZZHhjlkmoUSamUmQkdoWLcCIZd+cMNTmcFv6i3jbM6OwsAAmYyXIFFUDMm9oNDIEGYvNLiCG2hmTuQgWqw1e7UwlyEjQEHDh8H7x52AS5F7s8Tqv+wCAg0eAAM2udDQsBBd5DphLYZvb8cLqbSP2b/cK2QcPHsTrr72Cdq2bIdVnMte3X39MmTodVocHdmexABmv874NdpsFbqcdNmsR/vP5Zzh97Fg/ZPQfMBAvvPQyjCazcPxnSGqav7FP7Is4Pn4RcXtQ7C4WION2F8Pp8ni1KwJkiuFylcBpd6FUF2S6YcqMl5Cea4TdU4Iipx0mmwmFRXkwWQxHgIyAF2pV7DY/zFCzJCK1CW2LG8WeUnGTO5wEFBtcTgc8NHGjNkdoj5wCyngcvE48FgqjhDXm2htcPhRYxmXW4XHLa8FcJqG18YGKLOM2su2ysjLIRC2LABC3F0DkPuV28je3l+OI23D78vJy0Q/+FkI0H+q+L1OsL7cNO1cg4z9/8jzWJBfXQAkktRNI1HlT502NATUGajoGFMgokHE6oQsyNCvLyDyArJwMHEzffwTIdOrcBbfddgfWrFmHVavWYMWKlVi4cBE+/+xzPPLIRJx6yslo17aNXxBukpqKf/3rTixesgwFBhNycvORX2CAgWGPDcxpclYgwjrv27dPBA2gj8bmzZtFMAEGGsjIzBAmZlpoqQ5kCDrU3LAttsEgBZs2b8LePXuE2ZyhsEBoZGhaZjEasGX9Opw+uqpGJhBkaIZFmMnPL0ROLk3cqCWgdqYqyNBUixBCU7g9e/aIIAk76HC/Y4cIgkAokUJqIMhwW4IX4Y3nQ9alzwoDLjCQwt69e0UUOT2Q4X4lRHHb339bgOHDBqNZitf3p0XLVrjiymuw72AWLHY3bPST4Rw3DMvsA5nsrAw8/dR0dO3W1X/9LrzwYnz/408CUNi+3A/3waAOBw4cwO5du7F923bs2LYDe/fuQ35+AYymIlidLljdHqEBcrlKvSBT4sKyJfNw43VX+LVFnTp2x9QZryA9zwR7cakAGaPVgAJTDgpN+cKniefbYXPAZXfCJTQrVjhsVgEyIsR0UZEIpc2gBHYbNSClAq4IMna7RVxzC6HWbBbnicI+rwHHS3p6uvda7dghzi+PkUIsIYDHzLosY/CLXbt2CR8kwiKvFc+hvKbM5XWVZRIkuD3HBYMocGzu2bsHsg22L+GJ23Mbsb3PJM3l9mpXOK65PccCxxeX2absoxS83R4FMvJcxCtXIKP8GZQ2To0BNQbiOAYUyCiQ0YIMTcu85mUMvXwkyPTu0wuNG3sF4k6duuCRRx4TWglqK4qKLEI7YSmyiEhZH37wPs45+yykNmniF4Z79+mLF158GQczsoRZGUGGMECYofnY3n17sWr1Knz++eeYMWMGHnjgAdx77724//778cwzz+Cbb74RQEKBk0K+NBkjzEi4IQSItvbuxcqVKzF7zmxMnjxZtDPhoQl45ZWXsXDh79i+bSvycnNgtRQFBZmcvDzhEM9jNBhN2LFjF5YuW47fFi7CqtVrsGfvPr+zP4VZan4Y+Y0Qxv7OenYWHnroIfz73//GE088gY8++ghr164VwEahVgrJAj7sdiEUc9tFixZh+fLlQlBlmxRa58yZI4IpTJ8+Hd9++60wiZLbyVyarbFtlm3d/Cduvel6tEjzaseoITvhxJFYtHQlzFan8Fthvx3UajhsKC1244+N63HrLTcLkzTWT2mcggcnPIQ/N22Gx1Psn+eF53nLli0iutvzzz+Pxx57DA/c/4AIDPDMM7Pw9TffYunyFTiYlQ0zzcCKy+AHmWKnH2S4D6ajO3bHlBmvICPPDEdJGawuO7LyMrBp6zqsWbsKGzb+gR07dsNYaILTTv8YO5xWgowFNrMJ2enp2PznJqxYsQpr1m5Aeno2bDavmZvDYUWhIRd//rEBSxcvwqoVy7F/3z643S7k5uVi2bJlePPNN8W14rjj8oqVKwQMEzAIFBxn69evF9eB1/S+++7Diy++iAULFgi45DmX4CJBhjnLaL7GcbFq1Sq8//77mDZtGh562DsuZjw9A9999x22bd8mxjGvGzU6ArJ8IbRZxv0ThjmueH8w8MaECRNEW+9/8L4YVwyYwTHloROlz+xMQlRYudLIKI1MTb+IqvrqK7oaA2oMJGoMKJBRIEOQ8QOMcPr3+siEAzIPP/wIcnM5Z4x02vdqQQgIuTnZeO3VV3DCsKF+kElJaYLxN96MJctWwFRkRW5egTAtYzjmTZs3i6ho5557Lnr37o3WrVsLfxshSKekiN8sv/jii/HKK68IwZFCm4QYCvuEGQrl1L48++yzGDt2LNq1a1elnQ5HHYVBg47Fnf/3L/z6ywJQM2M1GXU1Mm+9+y6ycnJgdzhhMJmxeu06XD9uPI47fih69OyFkaPHYPLkKSJ6GYVYCq0EjtmzZ+O8885Djx490LZdW+E/xOOgT1GHDh1Ev9g/fk2neZL0f2EbDG197bXXom/fvhgxYgSeeuopLFy4UESK69mzp2iDx3T11VcLDQKFZO6Xx83ENkTEM/6225B+cB/mvPsGOh7V2n8dOnftgaeefg75hUV+kKFGxmm3orysGF/85zOccXqlWVnnzl0xe877QhNVUlqG4pISAYvvvfcerrzySvTp0wctW7YUfeNxpqakomXLVujWvQfGnnEmXnz1NWzZtRvuknI4nSWwWexwO61YvPAnjP/n5f5+dejYHZN9IOMqLYe7tBg//PgtrrrqEnTv0RUDBg7C5Vdci5Ur18Jhcwo/F1uRGW67Fel79+DFGTNwypiT0H/gsThxxBi8/c77SE/PRUlJKSxWE7Zu3Yjr/nkV+vfpjVPGjMbzz85CVmYGXnzhBZx++ulirMjxxnN81llniTEpzRLnvD8Hl1xyCTp27CjGFH3C2rZtixNPPBGPP/G4uPaEB14PggevB8GSQMIxSXg55ZRT0L59ezRr1sx/vpo2ayrGPNv+zxf/EVo7aSbGNmg2Ri0M4ZXnu0uXLuJ+oC+aGFepTdC6TWtxDJ9++qmAYW4fCDIcKyFhRoGMAplECSRqv0oYVmNAjYGajgEFMgpkqgOZLJ9GJluali34GYEaGYJMTk4e8gsKhRkRTYnE/DA+s62Fv/+Gm268ASk+XxkKXWNPPxMffvypMDnKy6PpkVmYpVFbcfzxx6Nli5bCtya1SaoAAAp8DCYghTYKzEOHDsXkKZOFyRjNehjemTnniNm8ZTMef/xxHHfccaCgKQTrVG9bbIdlbKtzp46YOmUydu7YLr7m07Rs7OhRfmf/Lt2749XXX/dFLXNg+cpVeODfD6Jtu/ZIaZKKJilNMGLESLzyyqt+4XDbtm0CoAggzZs39x6H3Hcz775lkIQhQ4YIDQa/0st5Wwg0y5ctw7ChXvijkEywu+nmm9G5c2fRngik0KSJACWaN0ktgIAZzrfiAxiR22woLMjD6hWLMWr48Uj1RWRr1bodrrj6OuzdnyFCMHNbJ/157F6YmT5tKvr37+cHjPPPvxCLFi+Bk6GTXW4haFMjMHr0aCHIC2G6SZMq14vQxvKU1DQMOv54PP7kNGzdsRvlZf+Dx1WMUo8TSxbNxTgNyLTvVAky7rIKlB8qx4cfvofRI4/zXse05hh47FDMnfcrrFZveGX2uczjxO4tm3Df7behTctWSGmShqYt2mLaU89i754MlJdXwGI1YuWKRThlzAg0od9Wm1a45KIL8PCEB3H8ccch1Tcu5Dhj35s1bYrTTjsNL7zwgriuY8aMEdeVdbT1GOCCY5fQKUwBXd55awgNBJrNmzbh//71LxwzcCAILdy2aVqagBmOSXmuONbHnj5WgDDHBSGXEMRr/MUXX+Bvf/ubAEbtmJb3hwi80ayZGPuEaekzQ5iRJmkKZLxaKp6TWCVlWhZHk5KaCjyqvhKS1Riof2NAgYwCGT2QyRVRy2hath852fSR2Yf5AmR6+s2NOnXuiocnPorsnDzkFRSCUCJBpiA/X4Q33rZ1C6ZPexJtNb4ygwYfh1nPvSCil5ktFuw/cECYjR0/9Hi/4NymTVuMGXMS/nntP3HLzbfgqiuvQt8+ff0CH4U2ggDNaehnQOGRpmac8+bFl17A8BHe+WAaN2qMVi1b4ZSTT8E111yLG2+4UQiDvXv1Fl/U/+///oU///wDLpsVm9etxdjRI/3CPkHmlddeQ6HRiB27dmH69Bno33+g6CNhpE/ffrjv/gewZs1aeIqLhWaI5kinnnqqP8gBtS9nnnkmxo8fjxtvuhEXXHCB0MjIIAgEsk8//Qwmg0mEK7ZarFi6ZImYIJLCKvt/dMdOQrPBbToe3RG9+/TBkOOGYPwN44UpHuGHAjOFVArNMkmQsVrMyErfh1tuvB5HdzhK9D+taQscP2wEFi5aJoCSwjJNrOjof3D/XtwwfjzatW0r6jZr1hwE1u07dqK0tByZmVl4f877GDZsmAAX9otwOXLkSFx/3fW4/bbbceUVV2Lo8UP914vHMvLkU/DWO7PhdBSDkcRKCDKLf8b4cVf6rztBZtLTXtMyd2k5/vrfYcyZ/RaGn3CM97w3aozefY/Ff3/4GUVWr88K+3yorAS7Nv+BO8ZfJyBFCPopTTF56kzs25uFQ4cOw2o1Ysmi+Rh5whAR+CCtcSN06ng0unXvhqbNm6Njx04YMGAAevXs6TWH9JlQUtPBY+V4a9W6lQhH3a9vXzGBZ8vmzf2Q3rJFC5xx1pn4c9MmcQ2KixkEwCHCWBOYe/fqJY4hNbUJuP0Vl1+Of/3rX7j++usxatQoATXsN0H7mmuuwfz580EfF8IMgZVzNx11lPf6EYSo2eG4uv3224V2jpDVq3cvATLbt29HSWmJeGEpkIkdtOjBkAIZBTLKP0KNATUG4jgGFMgokKkOZLKz0pGZQZBJR/rBvZg/fy569e7hB5nOnbvj4YmPITs3X4AMzcTy8r0wk5ebC6OhEAcP7Mdbb76Bnj17+IVV+slMmjxF+MXwS/GCBfNx8SUX+9enNUnDeeecj1defhXLl6/AH3/8iaVLl+Ghhx7GoGMH+SGBQt/NN9+MpUuXCsGRztrrN67DhRdfgGbNmor2qN055+xz8e7b72HFshVYt2495s79GZOemISxY08Xpj6c6JMgs2XdGowdNVzMt8K2CTJvvPUW9h04gDnvf4BTT6s0tTr66E4icMHCRYuFX5Db4xG+EzQJa96iudg3NTIUSD/++GNhLvbHH3/ghx9+wGWXXYajfEDRvFlzXH/dOOzZtRdO4XRvx7KlyzBk0CC/Azz7Qh+Vzl274dbbb8eT057E0zNnCN+f/IJ8oYFxurzRsiTEMJcgQ98Xu9WMN15/GccfN0T0LSUlFR2O7oK33noPmVnZ3q/3HkYbc2HRb7/hjLGnC4giSNE87JNPPhOg6nC5hX/QJRdfgsY+7Q4hhvD29ttvC/+PrVu2YvHiJXhq+lMYPHiw/3q1aNsO1/5zPHbv2A+Ps1iEX9YDmSd8pmUEmf/97y+8P+dtjBo+2D8++vQfjP/+OA9FNvqQeAR8HSovwe4tf+Bf46/1R2dLTWmKKdNmYe/+HBw+/BdsNiOWLJyH0ScMQYvGjfzAQygYduKJuOvuezDr2WdFoAqaQ7Zs0bzKNSCwDR4yBLfedhuemTkTUydPxumnnor2bdogtXFjoWXp2bs3vvjqK6EZLC8vg8lUiAXzf8aw44eItjifz8AB/XHvPfdg0cKFwt9l3bp1wlTy5JNP9h8jgYoaL5pK/vXXX8K0kJo5jgUmmr3RN4fhtakFXLFiBWhS9tjjjwnNDX3ICEDUyiiQUSCjhKo4ClXqi3/9++KvrmlyX1MFMgpkCDI50smfk2EKPxlOiBkIMj+hd+8efmf/Ll164OGJj/tAxoDc/AKRvFqZfBHemBqSjz78UJjUSCGsR4+eIkhAXn4+OHfJk09OQb9+ff1CWs8evQR4HDyYIbQUDG9M06Bt27aLr/30nZFtnXDCCQIUhEamIB8ffvwBevXp6V/fu3cfzH53DrIzc1DsKYHHXQy7zYH83Hz88P0PWL5suXDANhsLsWndKpw26kQ/yHTr0QNvvfMOvvvv9/jHZZeDmgkKs/xiftVV14AQ43AwipRbOL/TEX/4cK8mKDUtFcceeyx+/vln4S/xv//9DxWHKsC/jz/52K8xIqAMPnYIFi9cIqKfUbOybMliDB7YXwjkjRunIK1JM3Tq0h133nUPtmzbJibn5Cz3nAuHX+xpFiaTABlOCOkDGe9ElzZ43A6sXLEU5513roAinr+0ps1xz70PYOvW7T6B1w2304nXXn4Zxwz0akCaNm2O0884E2vWrYfDRaf4PLzz7rtCqySvATUV9Peh0FxRUYG/Dv8lNCB7dvbNvJgAACAASURBVO/Gww8/hBYtW/ivx9ATRuK/385FsasUFeUlWLz4Z1z7z8v866mRkSBTXFaBw4cr8MGctzHyhGNFHYJVz94D8f1P82Gxu0CA5Lw3FcUu7Nq0AXfdeD2aNWkiICylcRM8Nukp7NqTKfpjtxqxbNF8jBl+HJrLeXUaN0bfAcfgldfewP4D6SgrL0dhQT5mPv0U+vTqUQky1IZ17YYp06Zh67ZtKCstRZHBgHfeeAODBvT3Q1HHjl3x3PMvITs3FwSZvXt24ukZTyLFFzGuWdM0XHP1Vdj055/43+G/xHjgP5qRzZw506/BornYuHHjhA8V13///fcCFuU57969uwgwwOvOscVE4GFkO8IPrz9DMxNmFMhEEWTCmIVaaWQUNChwVGNAjYE4jgHf5JoiwE2oZ3QMzYr1NPQ1LfNax1TOAxev3yF9Z6MwF0wk+6DFUagkQIYwk52VLcLOeifEDAUyPTHxkScEyBQYjCKUMsMSC5DxTVjJaFCff/YZjjnWKxhTEOvSpSsefngi6KifmZ2Bq6+5Eu3aec2YKHxectHfsHbNelgsNjFXC9tjKF2zyYxXX3lVmPhIga5r165gtKzs7GwcOLAfEx76N1q3aSmEXvrYnHbaWGz+cwvycwtgMVuFk7mlyAqzuUj0k3PX0DTLWJCHP9euwCkjh/pBpmPnzkJzdPW1/0SXrt1Em61atwHDENNfhM7/bo93vhSahD044UHQGZ99a9mqJa644grQxIfCpgALu02E1l2xYjkuuPACUU+cj05d8c1X3wrTNKfbgSWLf8OwIccgTRPJ6+prx2HTlm2wsS2nAxZrkXdOFYd3QkoBMBqzMrk/MZ+Kz4k/NzsTd991pzCNkufv5FPHYsGCXwTNl5aUICcrC7fcdBM6HNVB9K/9UUfjgX9PQE5ePkoryrB5+xZMfOwRENRkG5dffrmIsEYBzu1yi1TsKRZz9cyd+xN69OyOxj5/mZ69+2PWzJfgdpagrLQYixfPw7hxV/nbatfxSJD5kBoZH8hwfPTtPxg//fyLF2Q46abDhkPFbuzZ/CfuvelGtExtCgJgk8apeGzyjCNAZtTwIWjqMxtr2botnpg6HfvTM1FSWi5MBO02K1YsXYyTR48Ezc94nCmtW+HW++7Dpu074HJ5UMpjtdmwa8tmXHj2WWjpOx8d2nfFtKnPIDcnHxUVZVi7ZiXGjbvGf3zdu3XF5ElPwFJU5J3zhVown1kifWCOPvpof90LL7xQRCEjyPz6668448wz/OvoV0OztHnz5omwy9IEjSDJ9vjwTBaQqemDPFnrC0AJZzZq9fU2ub/equujro8aA/VvDITzbK4Dmpt4gUtt9xMJjMR6WwEy2Togk6UxLVsw/yf06aPVyPQSIJOTWwAtyDACWWFBofgyzPkx3nnnHRGRSQq+PXv0xOOPPY6cnGxs27YZ551/Nlo095qCNW/aAnffdS927doLq5WhiL2hmQkyDrsDn37yaZUv023atMHUqVN9c2rswjXXXY3Upt5ITvSzufqqa1CQb4DZZBEgYymyibzIbBHhogkgNMEiyPyxZhlOGnEc0nxfz+k3MXLUaGFaRVMs9p/Ryr748ithZsVIZpxXxmqzg9qlG2+80R/1il/UqS1ieFw6gNNMiCF2n312FuiXc8ygY/yarQ7tj8YHcz4Uc5PYHBYsXrgAQ4/p6xe2+w8cislPPg2HqxhOjwcWmxXmIqOAGTnxox7IyDJGI3PYrXA57CL09NDjK32ROnbuIsznCJVOhwMb1q3DqSefjKZNmwmtxsBjBuP9Dz+GwWxGSUUpVq5Zjltuu7lSoG7WFHfccQe2bN0iBGhJzLxJiorMWLVqBYYNOx6pTb3Xt2u33nhk4hRYixwoKfZg8ZL5GDf+an974YBMv/6D8WMAyBwu9mDf5s24/+Zb0DqNfitNBMg8OnkGduzNRMWhw6BGZumieSDISEjs2r033n3/E2TnFsJTUuYNLW23Yv2aVTj9lDH+a5B2dAfMfOMNZOQXoKy8AqUEELsNWXv34NILz0erZt7x0bF9T0yf+hzycw04VFGORYt+xTnnnOY/vvbt2uKC88/DlMmT8fRTMzDtyWlgKG0GuqCvDM305H1yxhlnCEAkyOzcuRO33norWrVq5V/fqVMnEf3urrvuEvcYTdQYwY/gzPOvQCaKmhgfcKqvrHH8yqqEzfonbKprqq5pIseAApl6bYKmCzI0LSPI5GanI+PgHiyY/yN69+7uF8C7du2NRx6ZjCz6xhQahJ8MIYZRy5g4nwudlGfNmuV3UqaQ1qd3H0yb+iQKGE1r9XKceupov4N9m5ZtMOnxKThwIBMWi13MNWMyFQkNCk24aA5Gh3kp7NEP5dFHHxX72bFzOy762wVISfV+RadW4ZabboXFbIOtyAGr2Q6r2YYiMzUyPpCxMsqXXYDMxjVLcdKIIWjqA5mU1FT06t0HzUUUtRTxlX/gwGPxny++9IKMnc71TgEyGekZ+Mdl/xARrdg3+l20aNFChF/u37+/cCIfOHAgjjlmIDp37Yy0Zt7Iaax3VLuj8cmHn4l5ZWxOC5Ys/gXHD+ztF6IHHzcSL7z8JorLD8PudMFsLfKCjK3IO4llgCZGAozMCTv0kyE4/PLrL6AGhSZy7Cc1JQ/8+99i8lGzyYTPP/kUPbt5/ZmaprbAeeddhPUb/4TVbkdpeQmWLF+Ia6+rBA9GVeN8KgRWmpZJXx0K0gSoTZs2Yuxppwhneu6vU+ceuP++iTAaLCj2uLF48XxcH0Qjc8hnWlZVIzMIP/y8AEWcR4Yz1zvsOFxSjL0BIEOYCQSZZRqQob9Kzz4D8NFnXyO3wIzi0gqUFJcI6Fu/ZgXGnjwSzaTmpktXvDznA2QVGlFcUoZilwuldjvyDu7HlX+7CG18IHN0+x6YNvU55OUWCo3MvHk/YPiIIUjxadeapjZBh/bt0bd3b/Tv108EDGCY7V69eoFgwvEgE0GGYbf5R60hfWAYtYymlazDa8igF9yOJo0EIc5Pw3lmCJSlZcnhI5OsGpaa9ktoZBL5Elb7VkKgGgNqDKgxUPsxoECm4YJMXvZBZBzYjV/mEWS6+UGmW9e+eOTRKcjKK0RuIU3KvJoYg08jQ78VOiNz0kAZXpbC7JDBQ/Dqyy/DUmTCsmULMWbMiX5Br12b9pg6aRoyDmbDZnWisNAktClmU5Fw7P557s/4+9//7gcZaj4IMjt37cS2HVtx3gVnIyXNBzIdjsYdt/0LRUYr7EVOP8wQbATMFFmF1odaFUNBLjauWYKThg/yg0zLVq1w4UUXo1+/AWja3Ovn0bpNW4wbfwNWr14rwka73B4xx8z+fftx0UUXIa2pN9wzj5df1+nLQCGViXPg9OrVEz16sKynSAP7D8TZZ5yLhb8u9s6B47Rg6ZJfMahfd78QPWToGLz06jtwlx6CzelCkc0Cs9UIS5ggI4DGYRfmRnv37hXni87ivBZM7Dd9eTIOpuOxhx9By2beY+3apRfuve9BGM0W4R9TUubBwsULcNXVlfO+MIoWJ8GkjwejZGk1MoSnHdu34Kwzx6KFT9PQsWN33Hv3QzAb7SgpKcaiJfNx3fVVo5ZJHxlPaTkqDpULZ3+/j0zjFPTtdwx+mDsfJrsDDk5U6bDjUEkx9m3eIjQyrVKbCegUIDPpKezYk4lyn0ZGCzI89h59BuLDT79GvtGK0vK/xHwzDrsF69csx2knDRe+NKzXult3vPDOHGQWGL2aG6cTZQ47jJnp+Odlf0O75l6NTIf2PfDkkxJkSvHjj99g8KA+wtcmtVEjNE9LRYf27dCnVy/04XjoyXHgHR/M+/XrJ8YJoZemY3/++ScOHz4sfF3SM9LFRLHXXXed8L/iXDQEGnkdmTNU9LvvvivmF6J/DDUIFNgTGX65psCQrPUVyChtjNLIqTGgxkAdHgMKZBo2yGQSZOb/iL59K03LCDIThUaGIGMQIEOfE5PR5A2HXFCAzz77DOeeVxlticLWeeeei++++QZ2uxUrVy7BySePQBPfl+92rdth4oRHsW/PQdhtLphMFpiMdGD2hif+73f/raKR0ZqWEWQuuORcP8gc1f4o3DDuRhgLzFVAxlpkhzAxs9grQaYwzw8yzXwama7duuGll1/BLbfehu49KgMItGjZCrNmPYddu/bA4ymBw+EUguM//vEPv2kQtTGcYHHy5MlCI/XMM89g5jMzMW3ak5g+fRqeemq6yJ9//gV8+/X3yM1i4AM7LDYTlixagAE9O4nIWjxfw0achlfemI3i8r/g8BTD5rTDYjfDareIYAncjloXvcR1NDUiYFBLYi4yC0F30KBBfgF44DED8dJLL2H50mX420UXo0lj7/wvJ510OmbP+QjFpeVC8+EuduL3hfNw7bWV4MHzT/O5/fv3C2FbCzI2mwWbNm3AySeP9kdy69SpBx6eMAl2qwcVFeVYvHRBUJApryjDnDlvVXH2J8h8P3deFZA5XFYqNDL33XATWvtAhn4yj2pAxiGc/aualnXvPQAffPIVsvNN8JTQv4QaGS/InHrSif5r0LpLd7w8+yPkGC0oKzuMErcHZQ4bTDkZuO6Kv6FtCy9QEGSmTn0WeXkGVFSU4qefvsVxQyrn4+naqSMu/8eleOG55/DC88/j2Vmz8Nxzz4lEzSWDJjz99NN49dVXhV8MtZp8cfLaUeNFM0jCDee14cSYgwYPEhoaqWHjeCGYMjgAgUCBTPTMyxTI1GEBJopfsXkfqpRc50DBhbo3wxoDCmQUyPy64CcMGtQfKU28X/K79+iPByc8hqzcAuQZjCgoMMBkMMJsNIEzoTMsMu36j+5Y6cDconlz3H3XXdi4YQNs1iJs2LAaZ555ClKbeE2dWrdsg9tuvgNbN+8QIEPzMpqW0afFZrXhvXffE/OVUGBj6tatmwhdm5ubiy3bNuMfV/4dTZp522revAXOOuNs7Nq+Bw6LCy67B3YLZ4N3wWF3oajIBnORBRarDSZD/hEg07NXL3z44UdYsOBXXH7FlUhL8/p5cL+jRo3Bl19+Lbalwz9N6YSPTHuvpqNN2zbi2DnHjYPO+RYLGB7aYCiE2WyCyWQUOSHor3KIKF6sVyTmOlmAY/t0RUsf3B1/4il46bV3UVLxPzjcHqGRMVkMVTQyFHAZoSwwiXIrNU9WATN0tlqwYIEwL5PnkDByww034IXnnsfggd7oYKkpabj22huwYuVaoYGgCZen2IVly3/HTTeN80MQNWI333KzmLWePhlsn0I3hWijsRALf/8Fg44dgCapXjjq0aMfnpv1KtyuMhFaeenyX/HP667wt6eNWkaNDEHmvffewPBhlcEievbuh6++/R5Gmx1umrM57Pjr8GFsXrUat1x5FdIae80Aowkybbv0wmtzPkWe0Yby8v8JkCm1W2HMPohrL78IbZp7x+NR7btXAZlff52L004d4T++fr17iXmVbFYrysvKUMKgAZ6qEUooMFNQ4jkkGBJGZR2uo6aF5zgjIwPfffedGGcdO3b074OmatOmTRMTxAqQKfaI+mE72nE+ITGvUNV+1bYsWTUsNe2XAhklLPF+4r3Je1Cl5DgHvB5hCbFRhFm1vzr6LFAgE/G7PWw5IgFRzoL6yPhNy+b/iIED+vhBpmvXPpjw0OM4kJGNzNw8ZGXnIDM9A1s3b8E3X38jJuvr06dPpT9G48ZiYsG333wL2VlZwrTs4ME9uH7c1Wjfro0QxOjsP/aUM/DbL4tgNtG3g1oEqwiZnJWVLYIE0FxLCuEjR40U82ZQ65CRlY77H7wXrdpVhvvt33cA5rz7AfKyCgQseJwlsNucyM7KxTff/hcLFy1BZnYO7LYibAgwLWOY6HfefQ9ZWTl4+513BbzIL9/Uyvzf/92F1WvWoqS0DHaHA5MmTfJHLaPvDicspI8DIYYvPQ4A+o1w4klPCb8Uu+FxeeBxlIi+UWg1WwxYvHB+VZA54WRhWlYdyPghxgcshBZt4v75ZZ/1KLxt3bpVmINJsyTOSs8JHy84/wK0a+W9Dl07dcfkSdORlZ2PkrIKuNxuFJe6sXnLekx8ZEIVk6azzz5bXAO+UHiMUtjmHEIvPE//qLZo1LixGAcnDBuFH/67ACXFh3DoUIVXI3NdpYZHgkx6ngmukjIBMh998B5Gj/DOf8Pr3rbd0Xj2xZexJz0DxWVlcLucKMzJxrNTpmL0Md75dwgxWpCRzv4Mv6x19g+lkWGYZu6zXdc+eH3O58g3OVBRDgEyJXYLDNkHcPVlF1YBGWFa5tPIrF27HDfecLU/jHP7tq1xx223IuPgQWEyJsNyHzp0SIRPphmZgBiGkKRJmO9hUFBQILR+eXl5woSPoZZ5nnlt582fV8XcsnPnznjkkUeEqaJoy+MFGT0QkSZncj8iVyAjzn0g6CiQqaPCS5QFWN5TCmKSA2J4HXg9FFioezOsMaBApv6DTE5OLkQI5uxsMPxyTlYGsjIPCGf/zIN78Mv8n9CvXy8/yHQ4qisuvPBSzJz1PGY++xyeffY5zHhqBh64736cf9756NKli983hkIzZ7mnY/jqlatQZGY4ZWoocjFjxhQMOnagEBgZMrdTxy549NFJWLFiDXJzCpCTnYedO3cJ7QiFbUIChUv6oXBWc04GSAEsLz8Xcz58D3379/JP2tmmVVtceN7FeOfN97Bk4TKsWbkW835egJlPz8K5512AadOewrZtO8SkihvWMmpZpbN/j+498Mabbwlnfs5h89BDE8GJMCVEDTnueDwz61nk5uXj8KHDwhmbs9sTdph4vA888AB+//134UNSaChEXl4usrIzsXvPLixasghff/2N6BcDEfAY6PuyeNECDOrb3a+RGXrCSXjp1beFD4dXI2OFyeKNWubXwATAixZkuEx/JYIM90HtFU3+6JMhwYwO5J06dkJqY6+J1JhRJ+Hjj/8Dt7sUbk+JF2SKXcjO4eSg76JLl87+89CjZw/hz7F27VoRsICRsw4cOICvvvoS5517FlJ8MNC2XQf889rx2Ls7HWUlFNiLsYjO/tdrwy93w+MzXgJBxl1ShrLyUvz4w7c498xTxP4IJylN0nDhJX/Hm+/NxopVq7Bg/jxMnzIZJw8bhg5pTX0TTzYWUdcenTQdO/Zk4NChv+CwmrBs8QKMGn6cf9LMHsK07Etk59H3xRt+mRHe6Ox/2kkj/D4y1Mi8Pucz5Bs5p5FXI1PssKIw+yCuvuwitNZoZJ5k1LJ8mpaVYd++nXj+uRlokca5bRoJE8rRI0fgtVdewf59+8AAC7w2BM3CwkIRnWzu3Lli4lROoMrrRU3X4sWLhTkZTc7od8ZzzO2o+Zz781xhTibHJUOAT31yqrjefNEHCuTa33pwE+0y7f7q8rICGSUsUVhSIJM8EKNARt2TYQGM/JihQKZ+g0xuTi5kysnJESCTnZWB7MyDyM3JQObBvQJk5ISYFChbNGuLDkd1Qd9+A9G7bz/069cfvXv2Rru2lY7kFK74xZ9alPHjxwsNRV5uLqwU3oyFMJsKwMhOl192KVo08wIKtxl6/Il44IEJmDPnQ3z44cd4+umZAo46d/IK0AQjTsT40Ucf4cDBA0Joyy/Iw8ZN6/G3Sy9Ci5betujw3bpFG5wy5jRc/89xuO2W23HFZVeid2/vBJzXjxuPNWvXwe1yYMPa5RijCb/cvUcPvPnW2yJMs9Ppxo8/zRVzyEjhP6VJKs4551x88823qDh0CJs3bxbmZYzkJYVKOm3TvI4C6CeffiImw3zrrTeFr8z1467DRRdehKeefBoFuYVigBVZTSL88rF9e/j9M44fNhovvfoWSssOw+GqDL9cZC2CxWqpon0JBBj+JsDIRDMlJgrD9KWQxyL7y5xl46+/AcuXr0YZI6Vx0k83J95kO0asWbMSV1xxubiuon5KYxGV7c4778R7770nrgn9Pq666kq0atFMnAter5Ejx+C1V96Ey1mK0mL6o3iwaNECXHddJci07dgVjz31ItIJFqXlKC0twYb1q3HjuKvRNLXSsb1Nu6Nw2hln4sabbsJll/0D3Tt3Rpu0NLRNTRXzyIh+NWqMx56Yhl17MnBYgIwZKxb/itEjhnonG23UGD169cdHnxBkDPAUe8Mv03dr/ZqVVaKWtenSE6/O/gR5RivKGRTA7YEAmZx0XH35xWglQaZdNxG1rCDPKMIvm4z5+PWXnzBs2CB//9u0boUxo0dj6pQpmDN7toDKTz75BG+//bYIw8xgFtdccw0++OADMSaofeF5pSP/0KFDIcMtf/7555g9ezZ43gml8hoSpunwTyAhBBEejhDC+UD3TQwWbXAJbE/up67nR5xD+XJUeYP6Iq5ARoFMjYRn9XxInueDApmGATICYnJykC00MpnIzkxHbnYGMtL34bdf56NnT+/EkBSaqD2RwpM2pyBMwZUAw8hdnOH+lltuwapVq0DTGH59NoqgAAYYjQXIyjqIl158ASOHj/ALx2yvdau26Na9J3r37oN27dr79yXBiKZcnF9Dmk4VFhbAYjXjtTdfxchRI5CW6o0glpZa6dui7adXo3MHNmz8A263ExvWrcRJI4f5Aw9079Zd+OQUFhpQWl6OAwfT8dprr6N9+6OQ4tNctGnbFldddbXQZNG87eOPPwZNrThhodyX1EbRd6F3n97o2PFopPkmUGzTug3uuvMeZGfmCGGTDvxLlvyOwQP6+uc6OW7oCLz86psoKTsEh9PtnUfGYgJBRmhkqtPGaH1mNFoZCpR0zme0N6ndkn1l3qZlazz91Ezs35+OstIKEcyAIGOxFMHhsCA/PwdffvUlBg8ZjLQ07znmdrzuMkobtVFNmnjBo0lKiiifMOFhbNm8XUCMx8UJMUuxbOkiXH/9tf5z1f7oLpg0/Vlk5RpQXFYutDb5edl44bmZOGZAf7GPlBSvv422z9zHkAEDMOr4oejZpXKMPj7pSezafRCHDh2Gw1qEFUt+x6gRw/xR8nr06IOPP/0SOZxHprgUHkahs1mxYd0ajD1ljF9z075LD7wx+yPkG4pQXnbICzJOOwpzMnHNFX9Hq+beY23bpiOenDIT+XmFAmSKPU5kZOzD9GmTMZDXNLXynmnetBm6dO4izBEJItRgyvM5YOAAoYGh8My/OXPm4IQTTxDnieOWdWm22bVb1yrXkEEmbrv9Nixfvlx8OVYgE6azf6jZoIt1YFAJKMkjoAS5FgSPaCdlWpY8MBPtaxuL9hT4JInmyDdppieM532iPrwFfghMtt+0EknW1EgCjMxzfVqZnKxM5GRnCjOztWtXY/iJJ4hZ6wkorVq2AkMUc5I+zmTPvHWr1kLIYhjZUaNGickSKdxv2bJFQAxNYoxGI4wi53IhTCYDtm7dgtdefQ2nnXoaWrduI4QzCnWEltQmqSKnYzn3MWLECEyZMgV79uwBJ3I0mU0CZjgBo8FUiP0H94mJH8eeNlbUb9a0mbed1FQhKIp2WrbCsGEn4I3X30BmVpZwGN/053qcdeZpaNXae0x9+vbFZ59+BqPJ5J3x3eHAju07cPsdd6Brl66ibfZn8ODB+HnePKEZyc7OBr+uX3rppWjbrq2YS0YeBwVQHg9/EyC47fATh+OtN95GYYFBgIzL5cSa1Stx6kmj/e2PHHUy3nl3jhC0OQkn4cWvjSGsVAMyQgvDaGa+QABCG+PwRjGjeRlNmE488UQR9Yp9kemk0WPEfD1WC+eeKYXT6R24DEbAkMp2uw15+Xl49713cc4554AaKB6PPE55jPJ6DT72GOF8/sfGP+F0uOG0u+FyelBaUoo1a1bjrjv/z7vvlq3Qo2dvzHzmBeTlG1BaRlMvj/CB2bh+LZ547FEQLrX7IjByLA4+9li8/MILmPX00zhz7One9lq3xoynZ2H//gxUlFfAbinCmpXLcfppp/iPtW+/Afjv93ORX2CEy10Ml9MFm9WCrVs24WJOdOkbCwMGDsKHH38Og8GMstJyFNNnyO0U8w/dNP46dGjfWtwDHY7uhJkzn0Vubh7Ky+nMTz8XO3Jzs/D8c7Nw6sknoXWrVuIY2HcxvjnGU1MF/BJEaOZ3ySWX4NtvvxUaFfrRcLLLcePGiTGlPX55rrkdgzZQ6/nLL78IszNCEF/KfCAfoU0I0MhoH0zhPjgT9aCP9n7FuQlnVuggwrISVJJEUNG5RrwHFHgkD3g0tGvB8aeeD0n0fAjnWa95P0b7fROt9sJ9TyeqnlamiNdyVZDJzUFObg5yc7KFZobaGabdu3fhjTdex4SHJuD++x/AhIcm4uGJj+KRxx7DgxMm4KGHHxYO7ww1zIn5vvnmG6xctVL4SxBgqIkR2hiCjNEoongZGcmrsADUpnAiv6+//hpTJk/Bddddj7PPPgejRo3GiSeciNGjR+Oyyy4TWoQvvvgC27Zt88GL10+A/gJFFoZppu+AWcwrQ0Hw8ccfx6V/vxQnjTkJw4ePwGmnjcXVV12Nhx+eKCBly+Ytok/UNhzYvxcfvD8bkydPEs7SDHFLczGCgowexePg1+7nnn9OOMxPfGQinn3uWdCfgfWoHaK2g34xDKdLTRQ1NASG4447TkDY6WecLqKEMTQzIW/Xzl2wWCr3sX//Psx+9x1MfuIJPPrIo3jrrXewdu16uFwe2O0OWG02YVImzMpCgAzhRWtWRq0RE88XJ7HkdZo6dao43kcmTsRjjz6Kjz74ELt37RYAQw0Fj50DkdtJ0zQea3p6uph/ZubMmeJ4CDWETB4rAx1cfsXlePSRifjqyy+8x1hkgctJiHGL4A0lJaXIzs7B3J/mYsqkyZj40MN46YWXsHL5SnGcZaVl8IjoWS6YTUZs3LgBr77yKsaNG49TTj0VI0eNEqG477/vPnz5xRfYu2cP/ti4ER9+8CEee/wJTJ36JJYtWyHCdxOaOHFmVmY63p/9FPsxEgAAIABJREFUHiY98TieePwJvP76G9i5a4/wg3K6aD7H82NHfl4uPvv0Ezw5dQomPfEEXnvlNWzevEX0i5NmuhnUgJNiFrsx98fvMXPGdEyc+DCenvk0Fi5aJMYUHyBOpwPFxczt2L9/L/773beYMmWymLzy/PPPFxH4OJnlySefLI6FPl/Tp08XkMnzKx969K+in8zzzz+Pm2++GZwskyZkTOeeey5uu+02vPjii1i9ZrXwteF2UkBnxLOagAwDAITz8JN9q+v5EedGRxhWgkgSCSI1vD4KZBTEJBKeFMjUwWeHMkELSwYIJifEC160+2nEL/TaRJARKcfn+J+dhczMDGzbvg3rN6wHHbvXr9+ADRs2YuMff2Dd+vVYv2GDmOOCkMHQsGxP65QsNDE+iKkCMoZCGE1eLQ01Gps3bcZvv/6Gb7/5Fp9+8qkQTKnlmDdvngjzyzpCK0F48Tk80+mZie0QaFjO/m/dshXz58/HF//5QmhKvv7qa/z+2+9iH1mZWTAyXLTZDJPRiIL8PBAitm/fhm1bt4KTR7IdCvIUcLlPggrLqA3avn27SHv27gGjSnG90H5YraJN1lm9erVw3Gb/6fNAJ3uGzF22bJkAN54jagEEcFhtAoboAJ5+8AB279olNED79x8AzdsYqtlmt3v7Qd+YIBBD0GBfJMiwroQQmXNOGU5kuWvXLu+xbNuG7du2ITMjAxYBHS44HU5vYhhgh9e/RrbJc0Iw3b1ntwi1/cMPP4jj4wz0BNLffv0VW7ZsFto3DjY3QcHugMvlFkDg1X7YkJebJ45129ZtOHjgIMwmM4o9Xm2Ck/DkYCAEbxjijPQMLF2yVETF+88X/8GPP/2IDevXC6d51i0ymZGZkYmdu3aJABEMi02NkjAZE9opK7IyM7Br105x3JmZWbBaGQSBoYa90Mb5eKh1ysnJxp49u4X5IvvFeh5PsWjLRbhzOlFawtDbedi/b68AfYbbzi8oEOdajBunQ0Sp8wKNR2gPd+3eJQJUcDx/9dVXIuIboZ+/161fJ8YW7xt5gzpd3jmAeD15X3FMcZ4YAv2XX34poIc+T7yW3KcEGOaEDD5stGAjy8U6X+hnuS+RK5BRX1BrCAvJDHoKZBTIKJCpgzCRyGeQApn6ATISaqSpmcxz83KFkE5h3mQ2C6G+yCfcs0ymI7QvBoP4UkwBjUmCDOdWYV2CABOhgm0QGGSSbfI3BXSp+WA7cj9akGEZf7Oe1CZI4Z3CtxTsKBiybdaXbbEehTk5bweX2QbLqQEhJIk23S5/9Bq+KFlPQowECJbxAUqBUbbBMiYpWIqvNcXFfuDgtqxLk6qKigqxDwk6EiDkOQiVy34wF0kI6JUwwvYo1JaWlQoTJvaV/aG2gdAh++zVUlRqY+RvtimPg+dLngfRf58jOY+1mGGECYN2mqY5BBgx57xAbEv0gfMylHj7wXaEkO12C4ghhMl69PmQ/dQK5CwnyLAery/r0K+HfeH5Y865W6htYN3yinJUlJd7z3GxNyob98n1PC7CA9vgXC/MuS8mts1jYnsysb8VhypEOOXy8nJRT9RxeTVZbMsLY94xw+vKcMvMxbGUVtrwyzLRF40tKvfL/bD9Mpqs0VzB1ycui2Mqp0+R79wxtLcm7DKXtYntaRP760/1GWR8vi48F/L8iTyRL02175iCI+8J3mcqqXOQiDEgntXqHo/pPR71DykKZKrIB1pZIdxlvzyhlS1ivHyERkaCjMwJMtSE8Iswczrt5xfk+wGEy/RXYbk2sYyAwtCyMgmYoUmZUQM0PtDR1pEaHIIGgYO/5bLUjMg61C6wTPw2eetJuJG5Fogo8LI+t5PrJfzoAQLrahPrSDjgF3yRfL4oAng0UCfq+iCC+w1MFHSF8OwTjgkYwh/F4RDl3C/7rtevYGWB/WO7MlEI54CUwnhgLgRxnyYqsL/8zfqswzZkXeayLtdzmX2Xbct1UrPD/rGM27FfrCfbYznLCBZyO7kfCp4URMX+6Lfja4M525TnhPtmG7It5oE3IdtgGdfxnPO3TNp+sx22LduT65jLNgT8eqR5mrct7fGIfQScO7He7d2nti0usz5zuU/2T5ZznzwHrMOxJ8vFS9MHXIHHGuy3PGaR12OQqQIvBEElYNT7c6BARgFMIgBG7lOBTB18ziqQOUJWCiY/6K2rIlNo5KpYlocEGQKN19Qsxwsx+flVQEZqVELlAlQMhaDNvx9oCDEsC4AdCSlSw0LQkMsSSmQdAgkFWK7XJm4j62pzCQcskzDDZZYzSWE4MK8S7lgTFUxAg0/zEbgNf0shmEKpFIrlNoG/ZTnzUOZjevvyl+n0T+5fLw8UtKVwLMv1clHHBxN667kfbTv+/dJMzRd4QG6nrSfLmHMb5rwBWEcLMvwdmCQEcpvAdbINbbm2LJybTG4brK6oQ42MDwqC1a1uXTj7OWJbHxTpPVi0ZUdsp33Q1FOQqaJ5URBT7wFGQqoCGQUyEioSkSuQUSCjtYaI1rL2fZ6My0FlDK28EcXlsEBGaGfycoXmhZoWrUYmKMAIZ/6qoCKBhjATCDFcx3IJKcwlxGhBhmWyjh7IVAcxWqAJXK4RyAREC5MA4gcJzXq5TgryAlI0gCN/620brTLZB+ayH9pcCw8UorVAoF1XZTkIxMh6oi2NJkqCiVwfKpf1pWAfCmRkPb2cN1dgeZUynzlYsJtQbh+yThhtBWsjYesaAsgoTYwCGWVupszt4jAGFMgokIkWvGjbSUZ40fYpEfJL2CAjTMoIMb4UFGB8fi9aTUu4y0Jbo/Gn0WpZJMww94OM2Wtapq0Xb5AJCRy+YAASKFjfvxzCcT9k2xpoClU3HJAJBRfxXC9hS5pWRQIyEkKC5aFuQLltsHqijgKZKn452odwIparaGQUyCiQiYMQmwgNgNpncmmgFMgokInF+04LDcm4HEw+itW6WoOMBBrpC6MHNuHCi149CTQElkBICQYyhJhYgEwoSEjm9RKa6izI+EzFEg0yvAnp1xTsZiTIBFuf1OuURqbBCPnS/CqZcgp+0UxKsE8uwb6hXY9ojmXZVjLdr/WyL8pHpn76yEgHfi24BC7rQQzL9AAlrLIAXxqGVpYwQ0gJBBmaibFMQkwokJFmZHp5MgNJ2H2rpY9MPLUtNd0XASEZQCapQSRCm9Nwv+7E4itTLNtUGpnYfBmVwlU082gLu4zqF60U7b6p9pIMtHxRPJN1vPA+q5fwkExacl9EUEaPDZkCIoLG8h2mbTvc93Si6iVCRqqRRkZCjcwl0FQHMnrl4YCM0MZooptpQUYCjTbXAoxc1vrA6AGLXlnYoFADc65EtCk0MDKiWkDoZQKEjB7mN93S+LHUFDDiVT/WIJOImy9Z9hn4wNM+NOvDsgKZ2IGMEsaTTBhXZnP11v9HgUxsnmNHwKEPZsR7I8hysr8bA9/ryfY7mvJPbEGmOmd/TZQyPbAJdPhXIOOdQydcKKrOhEw6zwuY0YRkjheMRLKfmIJMCHOxaN5wydhW4AMu2R/QNe2fApnYCAAUrBTIKJBRYyA+Y0CBTGyeY0eATDgaIt9UEDV9F8WzfuB7Pdl+R1MWiinI6EFKOGVxAxlr9eGWw4WGZKynQObI0MwEoWqTApkqdrHxfNjGY18KZGIjACiQiY8Aq0BBnWeOAQUysXmOKZCpOkl2vICnboOMnEfGF5lMOvUH5jIqWaCzv9akTC5LczJtHtS0TAMwwgzLNw8MlwWY+KKMRTSXSwLNzxTIBIEWPaBRIFN3QabY4/ed0jMFICgpkImNAKBARgnYCrLiNwYUyMTmOaZApoGAjPSJCcxD+cjoaV+O0LYYjf5Qylp4kcsSVoLlWoCRy8FARmpRBMRofEkkyPjLJdgkEEpkX2uSHwEyARNQKtOyANBRIFNnQeYIeAk0C5A2zoHl6nfEjsMKZOInxCpgUOe6Csio51rEz69aAYx8byjTsioyQ220ODHVyATCivwtoUUv13Pqry5qWU1BRgKNNteDGgkw2lwLM3JZOvlLzYvQumiifPmBIY7zu/j3GSVgCgdkIvFXScS2ykfGFbOwzoEPoXiYe0VjH1U0LXyxy5eMNq+uXFtHLeufuxDnRYGMEq4VYMV+DJSUVoYlF884GSLYp43Wfe6FuHfVNtW8L8I9bwpkFMhooaQ2y9EAGYvGvCzaIJHo9hTIBGhc9MzJtGVKI1PloRQNyIhHG1VAJtwXkKpXK2jRE3wUyMReiFWgoM5xFU0Mn18aIVo9AyMEktq+DzTXIB7vutrsI/ADZbL9jrtGRk8Lw7LqNDGyPBqmZXqgExRkiswwF5khNTAyl5oYbZ5o4IjV/hXI1AxkonlD1cW2Ah9wtXloJmIb9RJP0Evc9/JXIKOEbAVa8RkDvNe0Se/DgiqL4/NQgUyVj5+BMkQ4v6MpKx0RtUyakmnzRIKMHrSwTGtCJpcltATmWnjRLscKJBLdbn0GGbfHLUysqo1AptW0BFmO5k1U19sKfOgkAkpqs08FMnF8cet8uVQgEx8hVsGCOs/VjQHegwpgEvAcVCDTwEDGUIhCTaqJj0x1EBNzkNH6zNTB5foKMhR2KXRHCjHcvq7DRzT7XwVkPG7UBirito1mxmUFMrF5gWu//IZark7AUuVK+FZjIPZjoLr7MxBuwq0XuJ36Xc0z1hdswaN5H1W77PEk5J1a5b3uTkxksmB9iKYMU0Ujo9XCaJf1NDLSfCww15qTiZDKRgMMASnQXCwYsOitkxoYbR6oheFvrfZFLoelLRHhl62whZNro54l0TInv9ROgBlvB/1owEZgG3LgB5Zrf8s6yZoHu7ETvS5uMFLLB7sAFxmtRznxx+xLLIUeJYTGXgjlOS4rKwuaQl2HUNsnan2ofqv1sRtfvH+1ACIhRnvOZQABbT21XA206GijxbnSvouCLCf7ezXRckeo/Ycjy4UEGT2IyS/Q8Y8pLIAWYrgcjvZFD1SqlJn1zcjC9YMhwASDF2ov9JMVVpslaBKgY7cJYJDgkGx5vAFG7k8LF9Fc5qAO1l44gz5hddyuiNWxoW76SNYn+wNXaWBq+KKt7gUcolyBTOyETK0wWVoWGmQIIlW2Ka3sW6IgJZz9VtdnVV55/WJ1LnRBpvTIjxOB9RTIxOD5qkzQIpZ5wpHX/CCj1cD4l/PzoAcygVoY/taDmFAgUwVYTCbo/dZqXfzLOs78tdXAHGGGZbfDRs2KMClTICPBpKZ5MNiI5bpwBn3C6iiQiUjFrkAmBi9aHahRIBN7YVMIseGCTNmR/QkHJpKpTqyEdtXukWMj3HOiQCYOz1MFMvEDGT+45OVBuxwuxASCjDApMxgimujSDy1m8xGO/XpmZApkvKZkgRqhmgJItOrHElaCtZ0wSHGFMc+LAhkFMjrgkGxfQhXI1F44DFeIFPXCBJlkApJw+1JeXg5t0m5HTVSNzpNGC6W2C33utOdaLuudNwUyCmRohRGJFUc8tg1HphMaGS28yGU9iGFZSG2MIbRJmZ7mpUpZdeZkPqhRIKMPLYEQw9/RApOathMMNmK5LpxBn7A6CmQUyCiQUUKsFMzDBBktEMhlKaAmay77KXNtPxXIhIYRPfAIt0x7ruWy3rYKZBTI1BuQkeASmOuBjB7EaLUxUhND5/5Ah37t7yrQEmhSFgJiqKnRAxnpzB+YB/OP4TplWuaICezEElaCtZ0wSFEamYggJRz/HGVaFocXb0mxmK9CT/BRZfoCqBQWVV4WNHBBNM+PdixSINcm7Tq1rD9meV4UyMTheapMyyLW+IQj0zUKBBj+1oOYcLQxAmRCQIzRZNT1hRFwU0uIqc6sLJSjvwKZ2EAMtTfBYCOW68IZ9AmrozQyEcGOApk4vHgVyNRMYxSmViWaQrxqq2oABK1AzmUFL9XDi/bcaM9bspm31pv+KJBJDMjUBGK02hgZpSyoNiYYxFQzyWWgr4yeNqY6kAmljVEgo0AmrlCjQEaBjDItq1eCpoKK+GlhtOdaK5Cr5fDAJfA8KZCJw4chBTJJBDJ64Zari1RWnUYmChBTI7Mya/CwyxJylGlZbGAmllqXYG3HFUzCMSfT1lEgo0BGgUydBRmtIK2WEwMwoc57oLCuflcPOQpkFMjUWx+ZIzQy1UBMQTXzxkjzMjkJJn1jgvrE+HxkAjUv1f0+QiNj0Z/40lIdyIiwypwjxpsUyCiQiRv8KJCpHmTCmCFZmZbpv3gpkEQ7KQGwUgAMFJ6lAzvzwHXqd2IBR43bynEb6lxE+5mhwEjn+UyNTBjvNlGnlhNFh+NfGqxOPCKPRbKPcOSzKj4yR0BMfj70Jr8MnDOmym9DIQp9iVCjdfKvbjkY6AQCTSQgQ2gRc8RwnhhNCoz2VRfmkalpFLFY1g+mIYn3unAGfbzqRHLzRnPbYA+xZFgnACXIzMj+9XVAm5EI224KEKGEloa6XoFFYsGiIZ//hnTPlZR6P6Yk4vmX9PsM592mTNAiMkGrBBm9yS+r0cZUAZfCQjEZpoxYJiBGU1YdvMjy6iAmEGD4+wiIKSpCkY5GRpqNBeZ62pdAiOFvBTI109LEG1aC7S9ekBJyP0mkfUkGWAnWB6Vp0fmSVwNoUyBT/VfohixIq2NPLMQ1JJDhsSqNTATPcQUy0QEZPW2MXrhlPYhhmd+kzGDwLvtyCSx6eXUQw/JAkNGFGAUyMQmdXFPtTTCwiPe6kICh9VmJ5bICmerNyAJU6ApkIngBqihjQbVRSphPrDDfkM+/ApnInmtJr2mpwcemkMeiQCZykNGDGJaFCzJSG6MHK9WVBYOYmoBM4LwxeiGXhUkZzcpsNuhpYALLlEZGaWQiBiIFMgpkovmiC9KW0sgojUxDBoZkPXYFMgpkQgKMfK4rkIkNyOhBTGC4ZamdCdcXRkJNKIgx6cwno6eR0YOY6kBGwko42gZhXiaCAVhgtVWfbDarMEOTbcczD+c44lUn3lqXYPuLGECipaVRIKNARr6kYpwrkFEgk6zCfEPulwIZBTIKZNwRAUq4vsKNItXGSLMyCSnh5EFBJkyIIdjUBmTCgQ2lkVEamZoCUbg3XCLqBfNPSYZ1yrQsshe+AhkFMg0ZGJL12BXIRPZcCxsCYvyhKC79UBqZiIBHF2Rqqo2pkUammvlkAn1itL/1tDHVgUyggz9/h2tSJiFHgYwCGQUynrA1KpHCkAKZyF74CmQUyCSrMN+Q+6VAJrLnWlwAIlkgSIFMdEGmJhBTY21MNRCjZ0oWEmR0opXpmZUpkKkZlNTGHC2YqVe819UUQKJRPxFalprsM1LQiPX2CmQie+ErkFEg05CBIVmPXYFMZM81BTLx+5gYzju+JjJHvOtW1cjUINwywyyH6+Qf1JRMJ0KZFmK4rKeRCdesTIGMAplowEp1bcT7hq3N/sJ5SCWyjgKZyF74CmQUyCSrMN+Q+6VAJrLnmgIZBTLhyjshQUY69AfmEmIMxtCTXsYdZISjvhXSzEyZlsUWZuKtdQm2v+qAI1bl4d5oiayXSEgJZ1ZjBTL6L3wCSripoQlNYR1vWSkasiCtjj2xoafDGqOl1UN4Xds+3GdVgwKUcE3XaFpW7AkvBUxfEK/3eyJlmFD79oNMoElZILjo/vZpZUI5+OuBTDhaF6mJCdS+6PnHaKHF6+Niq5MgUxvTrmhsEwwOkmFdrEAkVLuhbqBEro/XA6y2+xGAEs6sxuE+7BtYvfqkaVFCdWKFanX+6/75r2tgo9ffklLvxxkFMzofr8J5VypfGl1fmshAxjcRZqQgI4GlujwkyFgtR0ALtTBauJGO/OHkiXT2jwaU1KaNZICVYH0IBRyxWh8KVKSQH6peLNbLfSdrrjQtOi+rGsCYApm6L3wqgFDXMFpjQA8M6mIZn2sKZGr5blAgkxiQ0dPGsExqZKqDF225ApnYmoYRfIJBRDKsixWohGo3FIBIiAhVLxbr5b6TNVcgU8uXlQ92FMgoIThaQrBqp+6PpboILXp9ViATwXtBgUzkIOP3izEY/I7+oUIvBwMZLawEW1Ygo0AmFHDEan0oAJEQEapexOs9brgDktx3suYKZCJ4YZUUC/8YPUGgLpYpQbruC9LqGib2GtbF+16vzwpkIngvKJCpHmQC/WP4W88nJhS06JmYRQoygRDD34SeKuXKtAy1MSfTbpMMWpdgfYgVqIRqNxSASIgIVS+S9XIfdS1XIBPBC0uBjHLUL0us4KzAJbnOvx4U1MUyBTIRvBcUyMQfZKqDGGlaFkwLI9dVARaLRQCMApnoa2iCQUQyrAsFHLFaHwpAJFyEqhfJermPupYrkInghaVARoGMAhk1BjRjoC5Ci16fFchE8F5QIJM8IBOJf4zSyEQfYpSPjAvVgVAoAJFwEapeJOvlPuparkAmgheWAhklxGqEWKUdSS7tSCKuhx4U1MUyBTIRvBcUyMQZZExGVKeRCQdk9DQxskxpZKIPM8mgdQnWh+pAI9bloQBEwkWoepGsl/uoa7kCmQheWApkFMgokFFjQDMG6iK06PVZgUwE7wUFMvEFmeogRpqVEWak+VhgLoGlulyBjAKZWAOMbD8UgEi4CFUvkvVyH3UtVyATwQtLgYwSYjVCbCI0AGqfyaUF0oOCulimQCaC94ICmeQCmUB40f6uDmBkeSDIyPlimHP+GM4Vw1zMJWOrLAtnDhmxrZ3bWmG1WYIm1uGcM+G2G049rQN+PJeDaUOSYZ0Ei3jnoQBEwkWoepGsl/tIqjyMWYgVyOi/sPgiDzfVRUFFr89KKE4uoVhdj7p3PfTuq7pYFu6zT801o/P+IMiE8e4VdTweJEJmiETWqe22YkLMWEQtC6WR0YKLdlnCSqhcCy/aZQkyfiDxgQahIByQ8G+nQCYuc8vEG0xqur9QN5Z8UISqF8l6uY9kyQWghDMLcQ0mf2xILy2+yOuiAKLXZyUQR1cgLi8vR31M2nFSWlYadPxr66rlmo8vvfu0rpWVlHo/9jSk90LYxxrOu7eBaW5iAjLBIEaalmnhRbscCmDkei28aJe1IKMFFwEyDntYMEMti9LIOBXIuFy6akwtlEi40JZFe1nuI1lypWnR+VJWA2hTIFNz4ayhCLT1EWLkMWmvoYAZAo1O0tZTyzW/V+oatFTXXz4nwxbua/D8bRBtKpApQCTzyISCGJPZhEj8YxTIRN8/hpCXKPOxmmpI4l0/FJRIuAhVL5L1ch/JkiuQUSAjhQ8laNZc0CwrL4NMUshvKLk87qC58g2KyD9M3pt1PVcgE8F7RoFMbEEmVMQyCSqhcq0WRrusNDK1Ax0FMvohmEMBiISLUPUiWS/3kSy5ApkIXjDKiT8iIa0+gJMWWioqKqBN2nUNdbk+XONEHkNdBxjZfwUyEbxnFMgkDmRCwYt2vRZetMsKZBTIRFNrEwpAJFyEqhfJermPZMkVyETwglEgo0BG6wdTUd5gQEYLbNUtS3gTGhulmanVvSJBoK7nCmQieM8okIkRyPhMyoJpZLSgEmpZCy/aZQUyCmQUyMQ2WokCmQheMApkaiWcJfILt3/f5WX10hFfwkNdy/3XRQFPlXuqrgOM7L8CmQjeMwpkYgMyEmBkrnXw53IocAlcr4UX7bICGQUyCmQUyCSzQydf0PJlXdfzhiRM1jVBv773tyGNvZoca11/psj+K5BRIBOuJUvUo5ZV5+wvAUbmVUDGokBGRliL59wx2n0pHxnlIxOu6ZrSyETwglEamSpfj2sioCW6bn0Hg7p2fIkeD8m6fwkCdT1XIBPBe6bBaWQK8oNGKTMYDJDJaDQiVNIDGQkv2lyBjH4oaC1cxHNZgYwCGQUyEbw4ahD+U2lkahHpKwnMh+qaoF/f+5usIJHoftV1gJH9VyATwfuooYGMbqhlQ6GAFz1o0QOVUGVagJHLUQEZMWmlFVZNHtS0zK4PD1IbInM5jwznkgmaON+Mb8JNuW2keTzhRbsvBTI6IONugPPIhDFrsNLI6L9g+OINN8mXdV3PEy20xXP/9R0M6trxxfPa16V91fVniux/uM/SZDYjTljfGhrIFBYWokryQYzBaAipfQkXdCS8aPMqIFNUBP4O9IPhb63/i3aZwCKAwwcT2uVIYULbVjjLke5Pu70WLuK53NBAJlzby0TUC1czEu16AlDCmTW4BtqHhD3IE9BHvnjlSzhZ87okkEXcV+Wcr4ITaCPEhViOeLwlgdYwFseQrM8y9quk1PvxqCG9Z8I61oYOMsKMrJYQQ7DR085oAUYuRwNktABQX5bjCS/afSmQcSMR0KK3z2gDSrjtKU2LvqYlrBdHHfF9iYWgk6xt1jUNg+pveULBK1nHcaL7lcwgI2CmpAThPqMbTD0FMgbUVhujQCY807Vg0KWFi3guK5BRIKNARoFMooWmaO5fgUFiwaCunf9ojr361JYCmcjeCwmBJwUyCmSCgUas18UTXrT7UiCjQEaBTGQvLGVallxO/HVNkFb9TSx41Sf4iOaxKJCJ7L2gQEZ/Ogg9a5TaljWq4h9T6HXyVxqZyDUrtQUeLVzEc1mBjAIZBTKRvbAUyCiQUTCSWBiJ5PxHU/ivT20pkInsvZAwkAkjcI+HdTyJSbWFFr3tIgKZSPxhlI+MPizFE160+1IgkxiQSdRDRG+/CmQie2EpkFEgE4kgrbatGxCkByl6106vXl0sUyAT2XshISDDYDfhBO5JoAmaHpDUtkyBTJghmWurYanpdlq4iOeyAhkFMgpkInthKZBRIKMn0KqyugEo4V4nPRjR21avXl0sUyAT2XshYSATTuROBTKRRShTGhmlkSE8uVw687fEoay25B/t7fQ0I4kqUyAT2QtLgYwCGT2BVpXVL5Dh9SwrL6uS9K5xXYQWvT4rkInsvaBARt90LZqylNLIKI0MqPlRGhmlkVEgE9kLS4GMAhk9gVaV1T+QCeea6kFBXSxTIBPZe0FNN/qiAAAgAElEQVSBjAKZoBNi1tRsqy7Uj6c5mXZfCmQUyCiQ0X9hEVDCTcn+0q+LglRt+xyOsKnqNEzIiOS6V1RUIDDptVfbcZts2yX7My3cZ3NSA0U4ZmCxqKNMy5RpWSzASAsXsVpOFLTo7VeZlul/rUiEeZkCmepBJtlf5uH2L9mEpCr9KS9L6ISIesKoKlOgU5sxoB3XpWWlkPentryuLMu+1+W8pNT7MUrBTMA7ToGMAhkFMs6ITdIUyCiQSfaXS10wGQtXyEhm4ak2AqPaRoFGMo4B7X2mvTe15XVlWdv/urzM53iyv2vi3j8FMgpkFMgokInUYS0Rmpfq9qk0MgFfq3yqfAUy8fF9SUaBVPVJgVJtxkCVYABl8bl/YgVGdRletH1XIKPzfquXIGOo2YSYah4Z/chjkQBOrMzJtO3qmXglqkxpZJRGJu5foWpoa6xAJj6CWG0ERrWNAo26NAZiBRuxbFcLA3V5WYFMPQcZg8EAfzIaYDQaw0oxBxmrJaizv81uQ01TJJAR7W21cCGXEwUUidpvQkDG7UKkmpRobV+ddiQR5cmukeGLKNwUDhyF2xbr1eUXuL/vZaWIpcATadt1SSBVfVUAVZsxEOk9kojt/c+P0kpfn7pYpn3eh/N+aBB1qJEp9oSXPNH96BotGYrtiPDLAlxMXngRQKMDM3rQUqXMbILZbPamIjO088RYLBaEk6xWa7XgcsQ6mxXW/2fvOsCkqLJug2ExB8zrGtYNuuoa17imXfc3khkwY0LJTO7p3D2RDEoGBUUlqoCgZBRJghhQAUUJIjnOkCWd/zu36vXUNJOAASbc+b43r7rCC/edenVP3XtfHWLavHkzypqMlFV5R4vImHKd+fEiLcei3tIQI3MDHQ+yUNZ1mr4cal5YOyoCkSnNA5QPrNI8hCoNQdlVeoJyOMqXXqNKu2Kg6mLgeJCnsqwz9plR2udDaZ4hleKcHTsgz/4S8sJ0hvKyT4iM0xqzxiYx0X22taZEK826wmNmSHaiBMcQnSJyQ34KIz0HEZlDIT2Oc0lmyksqjAQ5CUel387LLdMPYuZtLV3MjiE7h6r8V7rzt2/DNkfipFSuJ+YSJtoCk3Fp3MdKW97OHYVagmIfkIX9dr4FLGm7sOtLs8+syHO0yi9NG/Sciv22WsdPx68oDJQ0r1SE485ng1ggyti6UF4U+qPZjvKs/7hWrVqF1WtWg4Rjw8YNUcsJtw2xiO7ftBEbi0lFkY3SEgej2BemwPNtfmH7D2UfyzBK7PHOi7JOHO92Hcv6eWOU9Y0Xe7OVdfnlrTznBH0o24VN5ry+IjyUjnkbd1UO17KyfMupZR2buCGVs8r5eGOgKIJTkfbLyx4uwWwvw3zMnyGH4BZdXtt2KPrFsT7XtXLlSqzfsF6W0WXlVNQKE2RpQRsLlNJex/NKumEPpazCzmX55cVEzrbEtrE8te9YySn2w2LH8vfveyq2u8CRyKqo8T2SMiv1tXv3YI8zFfJRvCL777yuqO1DKa+wc4sq17F/79692LdvnyaVgWJAMVBqDHDeKDD3OeYU3R/zXKissinsmVOO9olFhtYBgvXAgQPYv38/9E8loBJQCagEVAIqAZWASkAloBJQCZRnCbiWL18uKziRwJDI0CpA96KiXJ90f+niMFROKifFQNXAgHHHZIyW2dZ8q8piq8pA7wPFgGKg/GKgtHHF5V2XcS1dulQeOGRbdDf55ZdfMHHiRIwbN+6w0vjx46FJZaAYUAwcKQbGjbfmoIPKmVD2sjXz3UF1lWI+mzBhAkzi3KlJZaAYUAwoBhQD5R0DEybmP7vG87laQZNr8eLFUSLDQOkZM2agc5fOaNeu3WGl9u3bQ5PKQDGgGDgcDHTo0AGxqWPHjjCpU6dOKKtkymQeW+eh/HaWw+2yap+WU3ZjrbJUWSoGFAOKgcqJAdeiRYtkCVZaZHLzcjFx0kQEg0F4PJ7DSl6vF5pUBooBxcDhYMDn88Ekv9+PY51M3YeaO/t6qNfq+fljrrJQWSgGFAOKgWOHgYOesQE//BUsuRYsWCAfwyGRob/c1KlTkZGRIWSGhOZQUygUgiaVgWJAMXA4GAiHw6iIKbavhzpv6vmH/qxRmanMFAOKAcXA4WHAPLMq4vM2ts2uH374QZZcFiKTl4cpU6YokVEypmRUMaAYUAwoBhQDigHFgGJAMVCuMSBEhrEx4lqWm4vJUyYrkVHQlmvQmjcJmqvVRzGgGFAMKAYUA4oBxUDVxYASGSUtSloUA4oBxYBiQDGgGFAMKAYUAxUOA0pkFLQVDrT65qXqvnnRsdexVwwoBhQDigHFgGLAYECJjBIZJTKKAcWAYkAxoBhQDCgGFAOKgQqHASUyCtoKB1rDwjXXNzKKAcWAYkAxoBhQDCgGqi4GlMgokVEioxhQDCgGFAOKAcWAYkAxoBiocBhQIqOgrXCg1TcvVffNi469jr1iQDGgGFAMKAYUAwYDSmSUyCiRUQwoBhQDigHFgGJAMaAYUAxUOAwokVHQVjjQGhauub6RUQwoBhQDigHFgGJAMVB1MaBERomMEhnFgGJAMaAYUAwoBhQDigHFQIXDgBIZBW2FA62+eam6b1507HXsFQOKAcWAYkAxoBgwGFAio0RGiYxiQDGgGFAMKAYUA4oBxYBioMJhQImMgrbCgdawcM31jYxiQDGgGFAMKAYUA4qBqosBJTJKZJTIKAYUA4oBxYBiQDGgGFAMKAYqHAZKRWTIdIPBYKmSsuKqy4p17HXsFQOKAcWAYkAxoBhQDCgGjhUGDiYykycjkh5BIBgQ4mIaEgwFIakEQmPO11xBrBhQDCgGFAOKAcWAYkAxoBhQDBwtDBRKZMLhMAKBgkTGNKAky4w5T3MFrWJAMaAYUAwoBhQDigHFgGJAMXC0MGARme3bwL/c3FxMnjxZ/OP8fn/UIkNiYxqgREbBaLCguWJBMaAYUAwoBhQDigHFgGLgeGHAtWDBAmxTIhMlasdrILRenQQUA4oBxYBiQDGgGFAMKAYUA6XHgGvhwoXYum2rWmR0pQolc4oBxYBiQDGgGFAMKAYUA4qBCoMBi8hstYhMXl4epkyZglA4BHUtKz0bVOasslIMKAYUA4oBxYBiQDGgGFAMHFsMKJFR1l1hWLdODsd2clB5q7wVA4oBxYBiQDGgGCjPGHAtWrQItMTwTy0yCtbyDFZtm+JTMaAYUAwoBhQDigHFgGLAYECIDFcrUyKjoDCg0FyxoBhQDCgGFAOKAcWAYkAxUN4x4Prxxx+Rm6dEprwPlLZPJxPFgGJAMaAYUAwoBhQDigHFQD4GlMhojIzGyCgGFAOKAcWAYkAxoBhQDCgGKhwGlMgoaCscaPVNRP6bCJWFykIxoBhQDCgGFAOKgaqKASUySmSUyCgGFAOKAcWAYkAxoBhQDCgGKhwGlMgoaCscaKvqWwftt75xUwwoBhQDigHFgGJAMZCPASUySmSUyCgGFAOKAcWAYkAxoBhQDCgGKhwGlMgoaCscaPVNRP6bCJWFykIxoBhQDCgGFAOKgaqKASUySmSUyCgGFAOKAcWAYkAxoBhQDCgGKhwGhMjk5eUV+CBmOByG3+9HMBiUDvG3YXrcV1wy52mubwcUA4oBxYBiQDGgGFAMKAYUA4qBo4UB18KFC7F169aCRCaiROZoCVzL1ZtZMaAYUAwoBhQDigHFgGJAMXDkGHAtWLAgSmRyc3MxefJkxFpknIIuzhpjLDjO83X7yAdJZagyVAwoBsojBvis0KQyqAwYKI/3l7ZJ533FQMkYcP3www/Ytm2bWGQMkaHgnK5loXB+QUpk8mWhAFNZKAYUA1UZA5VBgdU+KBEjBqryfax91+dYRcZAqYiM8yZXIqOAr8iA17YrfhUDZYcBJQFKAioLBnReKLt5QWWpsjyWGBDXspIsMkpkFJTHEpRal+JNMVAxMFBZlFjthxIynXMqxpyj46TjFIuBAsH+UdeycEHXMiUyCpxY4OhvxYRiQDGgBEAJQGXBgM5nOp8pBiomBgoQGS7DPGXKFDAmxhkjo0SmYg6u3pQ6booBxcDRxEBlUWK1H0rIjuZ9omXrPKwYOHoYcC1ctBCx35FRInP0BK5gVtkqBhQDlQUDSgCUAFQWDFSWe1L7oc+XqoYB16JFi5TI6JdcdcUWxYBiQDFwyBioLEqs9kMJWVVT/rS/SngqCwaEyDA2hn/qWqbArizA1n4olhUDh4eBklamdB5XGR+ejFVuKjfFgGJAMVA2GHD9+OOPyM1TIqOAKhtAqRxVjoqB44+BQDAAEg6npcGMC/c5tyORiPxmXKTP54PH45GUlpaGVHcqUlNjEve5U+F2u8FzNKkMKgMGiH3eA7x3eH+Y+4Q57xHz29w7mh//eU7HQMeAGFAio+4kUaVGJwWdFBQDlQMDVMiYYpUw/g5HwggEAkJEUlJSkJSUhDZt2qBp06Z44YUX8Mwzz+CJJ55A48aN0aBBA9SvX79A4j6mhg0bFkhxcXHQpDKoqBh47rnn8OKLL+KVV15By5Yt5Z5ISEgQos55Ue6dcBjp6elCbLgvGArq81N1KMXAccaAEpnjPACqOFYOxVHHUcexPGGA1hi2h8oXFS/mJDa0rrRu3RqvvvqqkJWHH34Y99xzD2677TZcd911+Nvf/obLLr8Ml1xyiaSLLroIF154oSaVQcXHwEUXgniOTRdffDGYLr/8clz1l6twzTXX4MYbb8Qtt9yC//znP0Lin3/+ebRo0QLJyclRSyfvLyUyOu+Xp3m/qrZFiYwSGX2boBhQDFQQDFBxOhTlieTF6/Wibdu2oDJWp04d/Pvf/xZF7S9/+YsodWeffTbOOOMM1KhRAyeddBKqV68eTSeccAI0qQyqAgZOPPFEnHjSiTj55JNxyimn4LTTTsN5552Hyy67DFdfczVuvfVW/O9//8Ozzz6LFi0tUsP7y7w0qKpKpPZbydzxxoASmQqiwBxvoGj9OlkpBo4/BkygfXFjYc5hDEuzZs3ERez+++/Htdddi0svvRRnnnkmTjr5JFSrVk0IC8kLSQzJDElNzfNq4oILLxCSQ8vMHy/9o1zHa2PTn/70J2hSGVQUDFz6JwvDf/zjH2HSJX+8BEy0PJ577rlyH/yhxh+ipN7lcgmZ5z1Ss2ZNsVrececdqFWrFl5++WWx0vBlgRKa4z8/Fjcv6rHKOz5KZJTI6Nt4xYBioIJgwJAUPpTpLhZ9OIet3zxOAkMf/0aNGuGOO+7AlVdeKcqZq5pLyAuJy6mnniqkhcocXWluvvlm3Hffffjvg//FI488gsdrPY7atWujbt26qFevXn6MTIP6Eh9jYmQKxEM0ipM6Wa8mlUF5wwCx2jAuP64rNv6LxOShhx4SV8ubbr4J1157rbibnX/++Tj99NNBiw2tlSQ2JDp0UbvpppvkPmnSpAkYT8OFAujKGb0vK8i8ou2tvEp+VRhbJTI60eikqxhQDFQQDDiJjFltTB5U4ZDEwDBon0H6d911l1hK6CZDywuVMLrKUCljHAwJDt1kqNwxwLlVq1ZCgNxpblmxjG+YTeJqTibRlYYLBUiyV0ZztqkqPDS1j5VT6SOmPV6PWFgYR9a8eXNZ+KJ2ndq4++678Ze//kXixmi5/MMf/oDqJ1QXNzS6n/31r3+VFwCMo4m6m4ULyqnAi4cKMt8o1guOocqjfMpDiYxOKKrEKgYUAxUEAyQNVLj8Ab+MGbdJMhiETEJy77334oorrhALDMkLiQzfJtPP/1//+hcee+wx8O1xYmKiXMPruHKZcY0x8TdUugpNEWsp2kh6BCbxDbQmlUFFxoDBMlf0o7Iq95Xfh6TkpOiqfowx40p9JDWMmaErGmNpaKXhvXbBBRdIHA1fDtA6w/vSqfgqkSmfSrBzjHS7Yo6REpkKosDoDVYxbzAdNx23ssSAITJ0YSGZ4fc7+OaYLmDXX3+9+PCTvNB9jG+O//znP4v1hQoYl5UlgeEb44yMDCEqLC/6BtmeCwslME5iE7GWcKbSV+K5zut0W+VVXjHgxLRjm4SG9wjvYd4ndNuk9ZJLNXPFP95zjKsxFhrec3Tl5GpnfLHAVQLNywFTTlnOB1qWPl8UA/odmQJvTBQQOikoBhQD5RkDVIaMQsQ3vi+99JIoTbTCGDcyKlW0wHB1MrqZkejQ4kJXNJMMAYntq9lf2jz2ev2t909FxEBReGdfzD1n7h2+BCDB4UsBWmkefPBBcS0786wzZVEAunJyUQCucvbUU08hOSVZCKyRi6nL/NZc7xnFwJFhQC0yapFRMqcYUAyUQwxQgaLCxGQedEap8vl9YmFhrAvjXswKZFx17B//+Icss8wll6l8GcXJbJsyzH5TNnOzr6TceY1uH9lDWOVXPuXH+4RjY3LnPcH9/M2c7pn8gOydd94pK/zxRQIXBKDbGe9FflCWLmokQOYeNGXpwgDlc+z1nqxY41IykQmH5OYzD7+ScgVAxQKAjpeOl2Kg/GGA86y4j/n94tJilCaSGsa0NHm+iayYRFcWWUXpD9YqSlx5jFYaurQ4CZCOcfkbYx2TyjEmcq8GAmjdpjXq1K2Dq6++WkgMXy7QSsoPbTI2jW6ghsAwJ6nJzMyMEiLFQ+XAg47jsR/HEomMueFKIjDmuA7isR9ElbnKXDFQ+TBgfOs5tnybyzk2KSlJ3MX4TRiSGAYacyllftySyyW3jW9rBe6HrLfJiovKhwsd0/I3prxXzUsGfjDzxhtvxFlnnSWuZoxX43d2Hn/8ccTHx8uLCY6hsc7oeJa/8dQxqVhjokSmHLqU6E1UsW4iHS8dr6OFAfMGl0oPffLppkJ3Fbqt0BLDj1sy4Jj7aalhO8w1R6tNWq7iXTFQEAN8yWBe+jJ2jQtrMEaNbp982UAyw4/JPvroo2jWvJmsaEa3Ml6nsiwoS5WHyuNQMaBERomMTqSKAcVAOcSAk5DQVYyB+/x4JUlMterVJL/lllskoJjHjdVGreOqCByqIqDnlw1muJKfiYXh6mZ09eR3ZvjSgYSGbmYkM7TMZGRaiwY4La86DmUzDirHqiVHJTLlUIHRm7Bq3YQ63jreTgwYAkMrDBNdVrg60j9v+Kd81JJK0Wmnn4YbbrhB9vMNsFGeSGK4TKzGxyimnJjS7aOLB96zRsbm/uU92bJlS9x///2yRDNjZmiZ4Yc1uRy6+c6MWmWO7tiYcdG88spZiYwSmegErDd65b3RdWwr1thSGTI+9Py4Hj/Cd+ppp0ZXQ7ruuuskqN+5rLIZY7XIVKyxNuOmecUeN+d9Z8gMx5Rk5oEHHpAlmWmV4apmtKw+88wzco/zHCUzFXvs9d49vuOnREaJjBIZxYBioJxigMH99erVE197WmJq1KghShC/T0HLi1NhMoqUKkXH96GqSo3K39yXzD0ej7x0uP+B+3HOOeeIi9npp58uCwJwiXTzQVpz/yp+FD+KgUPDgBKZcqrAKJAPDcgqL5VXZcMAg/cbNWqEq666SlY/OvHEE2V1Mgb2MybGuJ6x30YJklxXLFNirs+1coEBEhnen1x6uUXLFrj55ptltUG6mZHU8GOaXMSDrqDmHq5s85j2R5/NRxsDSmR0wi8XE/7RBrqWr5NpRcCACfylUsPvwTCYn371tMZccMEFeOSRR+QDfEZBMrlRgphXhH5qG/V+rOwY4L3Jlw1cnYw5701+OPPvf/+73NN0M7v44oslzo1WG3MPV3a5aP/03i9rDCiRUSKjio9iQDFQDjBgSAwVH7fbLaSF5IUkhn71d911F5o3by6KUSyBKesHg5anyoZi4PAxwPuTK5hFiUx6ROZY3tf8nswll1wi9/UJJ5yAe+65R+5rY5VRuR++3FV2VVN2SmTKgQKjN1/VvPl03HXcYzFABSg7OxsvvPACrr32WtCdjG9u6V7Gfc64GPMGV60wiqNYHOnv8oEJY5UhoeGYMG/VupV8Y4YvJ/iS4txzz8Vjjz0mllZzT+v4lY/x03GoGOOgREaJjL6NVwwoBsoRBkhWuMoRfeip6PCjl48+9qh88NIoRHzA0oIjKRgUtxR96FaMh66OUxUap3DBD9SS2NDywsU6rrzySrm/+aKCS6nzRQWPh8JVSD7laN7V+7Li4k6JjN5IqsQqBhQD5QADVGJIYpo2bRoN8Gd8zNXXXI3mLZpHrTGxD1x9i1txH8CxY6m/K/9Y0nWUS6o/+L8Ho/Fv559/Pv7v//5PFgXgccVB5ceBjnHZjbESmXKgwCigyw7QKkuVZUXEAEkMU3JKMv773//irLPOkre1jJGpVauWkJiifOiVyCjmKyLmq2qbaVXlvfzSyy/hsssuA1cwowvp9ddfL7EymZmZlmVGdRMldIqBUmFAiYwCpVRAqaoPHe23KonHAgPGZaxZs2bicsIgYKPctGnTBvxKuGmHIT3mtxIZxajBguYVAwu8h7m8+qOPPopTT7U+dHvRRRehTp06Ekej41gxxlHHqXyMkxIZJTJRBUlvyvJxU+o4VL1xIJHhEqxxcXE45ZRTokHADz30kNyfJDI8hwpQLD6UyFQ9vMRiQH9XPAz4fD60atUKl19xuVhlGPx/0003yYqFtNjomFa8MdUxOz5jpkRGiYxOmIoBxUA5wAAtL1yKla4mDPLn9yaaNGkCuppEuHxrISSGD04lMsfn4alKi8r9SDBAssIPZf7rX/+Kvry49NJL8fLLL8Pr9eqcXA7m5CMZX7322M0PSmT0ZtEJUzGgGDjOGKBSw1WL/va3vwmJoVvZ3XffLUHBmVmZ8k2KoKxUxtXKrGQelEpkjt0D08hcc5X5kWKA9y3v+9q1a+Oiiy+S+/70008XdzO6nR1p+Xq9YrSqYECJzHFWYKoK0LSfOqkqBorGAD+UV79+fZx99tmi0Jxz7rmi4FDZSWd8TDgcJTCGyDCnTJXIFC1XxZzKprxjgKsUmm9G8QUG3cvaxrdVIqO6mWKglBhQIlNKQZX3yVDbV/4e2PLGLRhAIGj7O/P7APKNAPv7H+Y7IMXkOq7lb1yPxpi0bdtWvh3Db0rQrezPV12FZ597DhniVpYuRCYQY5EpjMiEQyEUl45G27XMqoFRHeejM858iXHvvffijDPOkI/f/ulPf8Krr74qKxUamRcWG2eOaX50xkXlWnHkqkRGiYyy/qOEAeM6EA3cdBIZITdBBMP8mGGg8GQTHJ1QK86EerhjxbeyN950o5AYVzUX/nXbbWjeooUQGWON8dMVRTCR717mtMaQwERKSOFg8USnOBKkx1R2lRkDh3vvHul1/G7M448/Dn5Lhi8xTj/jdPlgJuNnWDZJjFnV8Ejr0usr/7OkKo6xEpmjpMRWRTBpn/MnST58TIrKJUw3IJu0hAIIk9hEqJTSauPPP2bOYR4KKtGsAvfok08+Gf3S9wknnoiHHnkEicnJCKeni0uZITNOtzLZDpIIWxgxRCY9FEJhqSSSo8dLJoIqo8opIxL86Dx9jOebnJwcPPHEE7j88suFyNC9jMswM05GViqMhKEfyTx+43O8cKH1ln7Mlcgc40mrqoDT+aa4rPpsFLayKq805cTWWVpiYd6iMc/OzkbHjh3RqXMntG/fDpmZGQhFgtEUCPnhD/rgD/oPJjRlSGRi+1Ka/us5pZ9MSysrYih2LOrWq4sLL7xQFJlTTzsNDRs1QprXi2A4DHEps3N/KASmKKFRIlOiFUrJR+UkH2U5rrFEhvdnUam093lpz8tplyMrlV173bWWRdblEjfT+Ph4ITDmWVLa8vS8sp+zVablW6ZKZJTIHPQmykyczPkmiN+wiE3cz+OF3eBGUYtV1go791D2lXV5JdVtHmTsp+mraUNxsuFbNJP8fj969OiBUaNGYfKUyfjoo9Ho2bsnwukhIS9Bm8T4Al74A76jRmQ4JlEXN8V8obgtCQ9lddzgiuUZXD362KM488wzRZE57/zz8fwLLyBAZSoUEiJDMmNIDPNovIycoxaZslRqtayqR3ycRMbcn0XlZTUPmHK4KiG/J3Pb7bdFl16/7bbb0KJFiyiRMfOEuUbz8q1Y6/gc2/FRIqNK3UFKXTgSRlZWFjp16oT+/ftjyJAh+PDDDzFy5EhJ3H7rrbfQtWtXmWhNMLuZbJ0PAHNDm2PMmcRkXgQRMteY3EmMpJxorMnRvVnYDyr/hpSwPSQmzNu1b4e+/foeJJvBgwejT58+YoEh2aOf83vvvYeffvoJW7duxa+/LsfQYUOQnhmB1+9BgJaYgBeGyIjrWSg/Zka+H2KvTGXkUVhu5GotJpAvF/aB5zPnB9hij0ev0/vgoPugMDmXxT5zf7AsYosfwvzPf/6DGjVqCJG54sor0axFC4QiESEzvmCwAIkxhIYkx9meWNeyjHAYzpTO+66EGBo9XvWUeB3zEI4nkeFzIiEhAffdfx9OOukkmQOuueYaMG6uuBeGzntftwvOhSqPqiUPJTIxykBVvwGoZFG56tatGz766CN89913WL16NfLy8rBt2zZRxrm9ePFijB8/Hj179hRl3yjMlB+3SQCYnEobj7FsTs7MhZTw7bJ9Ho9zH3+TMJj9pgxDIuS6cP7bbHPcmZt2kASZemSfw1WrsPNZp0msj4nXs80si2WQ4H3w4Qf4+puvD5LNqlWrMGfOHLz77rtyDZXUESNGgPv5l5u7Be9/MAJZOZnw+T1REuPxpcHn94pFJkTrCclMKIgMuqHZMmJebLJlYmTIc9lHc418ZE1WTSu8HCMPc535XSB3yM+Uq3nh8oyVSwE52q4rxBVdSO68886oEvOP665D67ZtEUlPl+B+BvkXRmYOIjIM5OdyzTExMobMUGENBYNyDs87nMTrjeLL7VBAk8qgcmAg6Jj7zTOA96zZ5gs72bZXojT3c+x9fqi/+SzkymUPPfwQTj31VCEy/DDmc889FyUyrOtQy9XzSzcvq5wqvpyUyOUhwWsAACAASURBVJSkHFax45wwqVwNGDAAy5cvx+7fd2Pv3r34/fffJVEZP3DggGxTOZ80aZJYb8xkbyYFQwJMzuNOUsDzzORMSwGPcR+VcP42+3gdz+N+87Vj/jb7Tb0mZznmGM8zdZh2GGLD8kxbpbyg1T5Tt7N+nseHDXOSmNGjR2PFihXYuXMn9uzZIwRvy5YtQvZ2796NdevWYfLkyVEi8/7772P1mtVCZPK25mLo8CGIZITh8brFKkPLTBq3fbTQkDiFZDUzWk9oHTP9MH0x7S4sZ7+o4LrT0qzrbCLH/SIjWUigaP9vyof1GHnFyrI0bSisXbrPwjvlZ7DKbbpscullupKccMIJosTccOONaBMfj0hGhhAZupgJkeG1MTEyRq4si4pYmBZEkg2b0Jht5oa48LwjSQXK8QcQ1KQyqAQYCNgvrsz96Zz7zD5rXuTzynfQc0bmxsNYNIDPFr7werzW47IEM1cuu/jii2XlMt7fPC5lVzFdxMxtmld8onG0x1CJjE4OUYWeYOOESSLzzjvvYP2G9WKBoUWGFpglS5bI7/3794tSToJDlym6UvFaf8AiI9w2RMBMwJyMmQyBMG+3DMC53xznQ4MPDF5LxZr7qfCZc81DhdfQBa5Dxw5CMBhQ3759ewmu5zWmbvZH6i3EGsFz5IFl18M6pF7HGzBzDo+98cYbWLRokRAYyoEEZe7cuUJcZsyYgZ9//hlLly2V32yDschQhvzbnLsJ7w15B5nZGcjIjKB9x3Zo36EdMjLTZdUyWmNCYb59sxLlxHK4YECHDh0KpOycbPuL7/bbumAIkXAEkfQMe6UrBoVbVp3OXTqLlY3lsB9Gvs6yuRgBz2M9lBn7zfNEPjYp5D4zDpof2gPG4Mrgl78Nkbnlllui/vE333IL4hMSoh/CJJGx4mWsmBkSVUmOMZEy/X5xJWvHeyInB507dECXjh3RtVMndOvcWVLXzp3RpdORpc6dOoGpS6dO6MRFLDSpDCoJBmRRFuLaTp07dwYTnzHt2rWzny1cgMP6PliQFkmSF0cKh8JgKu38yDmYz8u6detGP4jLhT/4gVy6JvO4eW6Wtkw979DmZpVXxZaXEhklMgUmXKNcMTbm66+/xvTp0yVQ/e2335Z4kLlfzsWu3btEKee/tWvXYujQoVKGiZXhpMByODlnZmbi9ddfFwvPwIED0bVbV5mYDekhEendu7cc79u3L7p06VLA+sKHB93XeC1JBIkK40aobNNqRBevSZMn4dNPP5Vgerq7MU6FrnFUxuma1b17d7m+/xv9pXwqj6JU2gHw3GZ5LL9nr57yEGO7zAOESqKxBjFeaNPmTdJ/WmSmz5gu7We7XnvtNQwaNEjaxJzX80HkdC3blLsRH456H2+9MxAfjnwfEydPwIQJ4zFixHC8/vpryMhIh49B/wG6tflAssKxYFzSxIkTMWECz7fSsOHDhHjQgkMf73CQxC4b3bv3xKB330XvPr3RqVNH9O3bB5+M+0TGkvE6XO6TY0P5sM0cv08++QRTp04VObJ8xkDxYc4HKMdV5GUTS530D2/SNzIsjMjcfPPNYo3h29jb7rgDiUlJyLQxyOt4v/j4FthBJKPl2eOTnh5Br549MGTwYIweNRIffzxWsDVl6hR8Nu0zSZ9+9immfnqkaSqmfjoVU5imTtGkMqgUGJg0dQqYJk+dmp8+nYpJU6Zg3IQJ+OjjsRg1ZjTeGPAGur7WBVnZWSCRCQb5vLPJDElMOHLIRIZzQoMGDVCzZk2ZB86/4HwhMnzu8HllnkVKaA5v7tVnVuWWmxIZJTIHERlOlnwz9eabb0pAPydSWhaoOJHQbNq0SdzLqM2vX78ew4cPjyq60QkjHBLln8owY20WLFgglgwqzNxHxYyEhCRn9uzZcuyrr74ShZ0kggSA9ZFcfPbZZ3KcxIpt6t6ju5xHy4iJ39m+fTu2btuKzZs3i1VkwsQJQmBIUEgCeO4PP/yAcePGySpihmzR4kByNXbsWDnOtrCPDObnOXyA8Byu6U+5sCwG7fOPOcsjWWN7SQ74QKK8aPkojMjkbd+Cr7/9Egt+/AGr165Gbl4uNm/ZjN9++w1Tp05Bjx7dhciQxNAqM+L9Efj222+j/czNzYVJy5YvExJH8pWZnoGwP4jOnbtg9OgxWLJ0KUg6x4/7BLNmzRTrGokXZUxiyLbRkkaFlJa2jRs3iosc5cjyKSuutEZCaNzNzEOU4xIdZ71/Si0LQzxMThkSO3Qtu+mmmywiU60a7r77biQnJwuGSDaJKZIYKjXcNuPA6+kOQzcxktM3B7yJ2V/MxuIlP2PF6pVYvWEd1m7ehI3btmLLzh3YsmM7Nm/fhi1HkHh9NPF+06QyqAQY2MQ+OLFtb3P/xq15WLtlM1Zt3IBV69fhmx/mY9Knk/D2u4OQnZMDr4/L5tNKSisMXZAj9nbprDKcizknxMXF4bzzzpN5gHnjxo3lXuccwXnAed/r/Fu5FXMd30MbXyUyqogVUMScShYnTipOTFSieKxfv35ihTHuZYyTobWEk7Hz5qPyy2tolp85cyb27dsnyv/SpUvFwsDjnKBpuSD54B/jS6i0czU01kmiM2bMGGzYsEGO0/pDi8LQYUOFGNG1bceOHWB8Cs9hzpgVxvDwNwlUt9e64eOPP4Zp76+//ooPPvigQOwJrTpr1qyROgwxI5li+ykD9puKJfv3/gfvC5HjyayLiyHQosE28xqey7bz3FgicwAHsPP37cjdtglbtm7Gxk0bsSV3S1Q2GzduwJgxHyE7O0usMe07tMcPC34AyQVJCOVEGTCnrFhe3ratQkboLkQi89prr2P69JnSlx07d2D9urWywAD7T3nRRZCWLJIZWtu4gAPHhjkJKmXIeCjWR4LDlepIzGQ8+MAt5BsoznHX7ZInYOc9Rtm2adMGN954oygw1apVwz3//jdSkpORk50tCozP64WfcWQ+n+CLMhZ/fq5CFwyiW7euGP7+cMz9eh527dmNnfv3YtPenVi9aytW796O33Ztk7Ry1zas2rUNq48wsYyyKOew27F7u/SLfdOkMigLDKzZvR1Ma3dtx5qYtHrnNsHZur27kLd/L7bv+x0b8zZh/oLvMXzECGRw3g+F4Q/Qek23M4vIiJWmFG5mhREZWmaUyJQ8l+rzRmVEDCiRUSJTkIAYv3tbYaUCa5RzunmN/mi0KL1GkaelhVaV2AmF19CSwWu4IICxYvBt/7Bhw0Q5pjvWR2M+EqWc5VHZJtGh1YXX8zjjTqiA82/hwoXo07cP3nn3HXF742IEtDBMmTJFLCrTpk0TywXP5TW0rtDqQDcp1ss/rrhGNzS6BbBvtNh8/vnnoriTAP34449iBeLDxSjv7JvpD9212A62leezPMbFsG5apujGRkJDAsTE1Wi4f+WqlVL/nn27sDF3Hb765ktMnDgBM2ZMF6sWD+4/sB9zv5wjVhmv14OOnTqKVYXlf/PNN+JaRosQ+8u+79m7R65ZvPgn9O3dB+nBMF7r9hpmzJwtdcmiDLt3IS93C1atXoVflvwi1i0SGRIULkrAPxIYypGua5TNL7/8IvIgSZw3b56ML0mdjHEhcUaxY6+/i3+4EEtMlFMskalerRruveceITLtcnKQkZ4OEhlaXQI+v7VMbDAIr8cDv9eL7t1fx9TPpmLJimVYtnENNvy+Aws2rsaEZd9j6ILZGLRgFt74fgb6fjcD/eZPxxvzp+PNskrfzcCAY5zYdtY58LuZko51/VrfsR/zYyXzgcQy8RWT3vhmGt76biaG/vwVJv/2E37K24CNe3di867t+Hn5Urz/wQfo0LETAgEuVMN4Ni64QmsMlzsv2c2sKCLTqFEja47IzFCLjOppB+lY+pzNf84qkdEbpMAN4lSyzI3CfVS46OZFCwTf4FNJpnWA8RRU3ElaeD6Vd+amHE7StFjw7T7/aMWgexkJBN2WZs2eFSUFJAcsk0o2y+OHJFkf/1gnYzho4eF1YpkZOhSMq6HVxbjCUeE3f99//71Yixh3Q/JBcsPE/XRPo7sciQ5/s25aOajIsw72g22Xh0woKH2kew/7aqxExvrD60gGli1bJsSLbWMZlAOJDInbbyt/k2bt2J2HefPnYMBbb6Bjxw5g3A5JBA5YrV7040IMHDgAaWluZGZm4N333hX5MU6GLnkkd2w7Y3Polsa/devWYuAbbyLdH0aXTl0xzbbI8NjWrbn47rv5GDVyJN56+61oPNIXX3yBvfssgjh//vxoXBEtNXSzo6sZx5h94lLS7AfH1BA0gw3N8yfT0srC3Bs8n/dV69atoxYZEpn77r1XiEyHdu3RLjsHEVGIrO+bZNLFhItppKWhc8cOmDhxPFatXyNviRdsWY0PFs9DcMJQPPtOVzzaNwMP9I7gzh5B3MbUPYDbX/eXXWJ5xzz5Y+rkb00qgyPDwG3dfbi9uw+3ve7F7THp1m5pcuyBN7Pw5LDu6DRnPKatXYK1e3Zi557fQSv/sKHD0T67A/xeruLHezVdSEyZEJkMJTKlnVv1vEN/HlUGmSmRUSJTJJGh0kqli5YJWl1oCTCWDboecbUuEgmeY1zPYhVdxo0wmP/LL7+0NHVAvrNChZn76epEEkFSwJyWG1pIWCZXTqOFxlLIt4pCb9y36JZGssBy2Aa6vJEwGOLDaxgXw3gXKou0NhirEONqSK5IZMRastKylmzYuEF+83zWz76w74znYX284bmPVheWx7bRIsO284+KP13FGF/CAH+SIBIA1kUic+DAfmzYsgYjRg5BJDOE1NQUISYTJ0zEgf0Wk/ll6S949713kJKaLAH/tByRwJC89erVS8gkXflmzpopsTWsl9+mGTTwLaT7Q+jcsQs+/XyGtIf/li77BR988D6yHW5vdOej5Yl/bDOtLpQDyRLL5vLSxp2PhIaueR6vJ9p/yqAyTH7Hqw/EFhPrP5jIVBcik5qcgo7tO0jKycoCP2aZGYlIMksrDx38HpYu/UVIzLpd2zDqp3l4/u0uuCGzFS5Oew6npTyJE5Mbw2VSUiO4EuPKLrE8U/ZRz1lXI7iS4qzk3E5qCJcmlcERY6ABXEkN4Epkqp+fEupZ2+7GOMv/PO56zQvvpOGYunoxduzfy0kU3337HQb2G4CwP4yQP4SMSAbSbTJT0gpm8rIsJkaGrmVRi4wSGX3eqJ5aLAaUyChAigUIiQitJ1RmTRwJLRBU1s1HH2k9IZGh0k8llxMzcybup7WElhsTJ0NXKVotSDKoMJMIkESQHHF7wcIFYHwIA+np/kSCs3LlSlHkjYWEMSm0jFAJZ1tIWmj1oWXE/HEfFXO2i3XR2sM/xoPQ8kIlklYekjO6aXEpaVqB2G6jaLJvRvHk+Uw8TssICQpJF/vDMs3frl27hFCR8ESJzG+/Yd+BvVi9fgUGvNMfgbAPKSnJEqT98diPo0RmybIlGDzkPSE5JFBdunYRkvH59M/FckQCwsSxMKvH5eXl4r1B7yAjEEanDp0LEJmvvpqLPr17iSsS+0GrEgkfLS38o2wpFxJKWq0oM7qWsQ/8o2z4TRwZ24gSmLImP7FE5oTq1XH/fffBnUIi0x7tc9ohKz09+pHLkN8v2927dcPcObORuz0P637fhilLv0fCsD74q7sJTktoiOrx9eBKqANXYj24kurDldwArmTm9coupdSHK6XBMUqs61jWd6z6pfUcOwyVQtZyj8TcJ0m8h0xqgD8kNcY/OybBP2EYvt+0Goz+zNu6DRPGjENOZg4Cfn7CIBPpYcsqo0SmaloJyvpZoeUVjSMlMkpkCiUyVHqpxHP1Lb6hp/mcfwwEpyJNEsNjYrHgh8QClsLPm82QGG5zP8kHiQutF/yj4sxlkunCRFJEEvDNt9/g1xW/Yt/+fVi7bq0sAkCSwkB31kmXMa7MxLJ69e4lBMSQIJ5DywED9U0drGfhIrppDRQyResN43lIlOheRoXduMpRac/bmiekhG3nCjHRVWLCIWRmZUo/WTcVT8qFib9ZLmVBVy2SKGOdYdsoN65mxiWbuSrZ/gP7sGbDbxj47hsIRvxCVijDMWPGYv8+69s8S5ctwdChQ+DxWTEyEydNlI9vso0keuwn5cd+sh/8iyUynzlcy+bMmYUe3V+H1+eVxRM4rlzswIwniQzLouxYLnOSR24zcax5PvtL2XBMWYZOqkVPqocim+KITPucHFmNLujzyQcuM2gh5HKs4TDeefstrFmzCrv37wFdyrpO+RA3e17GGa1JVPg2uQ5cbR+FK7GWnWrDlWSn5NpwMaUcYTLlHJO8DlzJdeBKqWunenClMBmCo7nK4nAwYMhNMdcWIP/14UpthOopjXFvNx8GzJuKzfv2gLP3t3O/Ro/Xe8Lr5VzJVcb4Qq8MYmTUIqPPG9VTi8WAEhkFSJEAoTsVv0rPN/QkHFSkGTBOSwRJBUkMExVbrmZlFDij8PK3+bYMXb9oMaErE0kDVydjbAgVaa58RlIz76t5Ug+Vdq6oxYB2KutUtEl8WBbrZYwN3cN4jEsXc1lm7mOa/918KZMKPpVwWmJMoDrdwUgwuNoXCQFXUyNpYpuotNMdjC5UJChMhrCYpZjZLyqeJDmG6LH//FYNXdxmzZoVdb1jm+mKdxCR2bgSb8USmY/GRInMsmVLMWToYATDQQwe/B5W/LZCyBHJGi0mtFJxNTYSOxMjQyIzeNC7YpGha9nnM2YJwWE/v/hiJnr0eF0sMRyPWCLDvjNGhuUyNolWLpbPpZf5mwSUliX2k/13jq0Zb80Pn9QUR2QY7J/JFeN8PoQDAbHMkMjQtWzwu+8gL28L9hzYh2krFqH1ez1wYfN6qN66DlypJDO0xjxmpaTH4ZJUC65kR0qpBdeRJCnrcbiSj0Wy203yVYDQGGKjeT7JU1mUThaFkOHUBnDFpliynEZXxrq4LNgUie+/gV9254GvlJYvXopBb70Dt9sDP7/rpUQmqhPoM+LwnxEqu5Jlp0RGiUyhkw1XG+OHJek2xdWrSGRILGhloKsYFX2j2Jo8esM5VrYSkhPkssCvSSA8rSskICQUJA9UtukaRssJ3c+4/C+Va9ZFtya6o9Gt7O1Bb4syzVgRxtsYywoD9UlW6OpFMjFj5oyoCxtdxRhnQ/c4khnWQXJD8sQ20PLA9jDRnY0xKO40t/SL7WYMDa+j1YR9MxYYkjK62/Eclm0WAaD7HdvPP8bj0G2N5TljZNZsWoW33xuAUHoQbneqfPByjIPILF2+FMOGDUVmdiYmTZoILqHMvxUrVoAfwOS4sG5+J2f9hvVyjMSQrmUM9ieRmT7DXrUMBzB7NolMd2kj20tyRgsSXcnMH1eG46IHJImUI+swiTFJJG7sv4xzRMlMFOdlMHeUhsgEaQ2ziYzf4xHXshHDh2HHru1CZEYtnIvGvbNwTvN6cLWtC5ebb43r5hMMkhVDYI7UCnPcr6dVRpPKoKwwUNci/iQrqaVN1ouCmmnP4ol+7fD9zk34/QCwdsUqDB8yHKmpafD5uQQ/50q1yJTlfKlllazUV0UZKZEpA2WkMgHHWFbovkVXLBIYEgt+bJKkgfEVXB6ZSxozaJzbXAjABOGHwqGo4mvkQgWaCjItHrRUsDwSCUNG+MFLrizGgHNaZ/hH8sRzWD8D+Hmc5ZCsfPe9tZIZj9OqQyWcijfbQ5cxLmPMPyrrVNpJNujiRjcwrvZFyxL/SGj4R8I07fNpQhDogsV2U+EnkeG1VOCZU9EnKaHliJYLtsUo/FxwgMs9s938I1GjlSlqkWGwPw5g3aY1GDT4LUTSuaLZwURm+fJlQmT4LRkuzbz7991SHq1ilDnJFC0ktP6QwPCP+buD3kEkYK1aNmPmF7Kfcv5i9iz07NkjSmRIzLjIAuXG4/wj4WO/SFBJ2jhWJJ6MF6LMYkmrGVfNj/yhUhyR4XdkuPwyiQytMHQp42plDPr/aPQo7Nn3O/YeOIB3v52Oh18L4Ky2jeBqa1tkUqnoPR5jcaErWVkpgOWlnCN0jzvuxEzbf8Qujkc0huZ+qWcRGlozD0qG4NjH3Mzr4szUp/DI60HM2bYWuw4Am9duwOgPRsKdmoZAgB4KSmT0GXHkzwiVYckyVCKjRCZqkSFRoPsWY0KGjxgeDSanskt3L7pzMe6EiSSByjWtKQwGJ9EwbmbmDb7zBqTCRsJB64ohGiyXij8/SMnjtHSQPDn/SDJIdFgmy6dFhqulkcRQEWeb6IZGNy4SLbpgmT9ak4xFxsTqjBo9KrpogTmP8SL8PgvbQBmw3ayL5EVkEggIqeHqYayH5IrWJMbw0F2NliRaieiuRgsSj1MujMEhkSFJMN+R2ZK3CYOHvYv0TGtFs+ycbIwdMzYa7E9XMlpe0tMjYnUhgeQfP4LJOmj1mTNnjvSb8UT8o/XnnbcHIRIMo2vnbvnfkQHwxRez0bNHj2gME/tEokJXMpJK/pHYcTz5LRzuZx9ZB93/6K7HflMORjbOcdXtkifZ4mRUFJHhqmVcaS6DHyGlRSYYRCQUgtftBpdg/vjjsUKMiYA3vv4Md3fxoEZCI7jiSTDoWkQXrMcsMkPXL3EhOwpEhm5e4upVCLEp7tgxIVSGJBTmQmcfE8JnbxurlTOPKsmF9K9AH0xdJi/p/FIcZ9ukfY5zzT5nXqAdjnOP9/7SjP9R70dJY0t52VYZEhiJuyourwtXmmXxPC3lCTzY1YfPc1dixwEgb/0mjB05Gp5UDyIOt7KSgv3D9oeGG8bFoeZ558mHcc+tWRNxjRohaK9syOcfX6gVN5fosSObi1V+FVd+SmQqOZHhJFpUir1xqahS4eeKYfxQ5fYd27Fz104hNFwhy5morDORaDB2g1YZkiBaMmiVYdmi/NqxM5yE+caf8SxUvHktFWgGwfMDjSQOxmWKx+nuRfLE1bVIMqRtfr9YfkaOGimuViQzJA4kL1T4qZjTEsKc15IUmWB/4yZGcsGYEGONIRniby49LO21iQy32Sb2g21nv0gAaIkhYaE1iW3kQgW0iLA+lsm20MLBAHnGzhiLDJdqpizXbViLwUPfQ0ZGuqxoxuWVGY/C6ygTnjdk6BCJOaK1y7mCGOvjeSQ1JFKbNm8SGTJA/60BA5EeiqBb126YNo2WnN+xa+cucbXr0bOHjI3pH/vD/pKIUVaUIdvO8aDsSS6NtYyyoXWGsmBiGbG40d+H/wAojMjcd999SE1JQVZmpnxDJsT4JJvIeNxuZGVkYNy4T4TI0De/57wpuL5jMlxt7JXKRIElkWHsymN24jYV+jJSdI2SGpub8ovab46XWV5cPAj7aoiFI0+tbREEut9JcpznXLhArjXyKq4eHjPnmbyk80txPNq+mHOL2h9dCCHm/OO1P5nujSW05aj3xYyHY/wLYMIcNy5mxZEYHqsLl4cWmdo4NaUxHujqxWe5v1lEZt1GjP1wFLypafJSid9/CjNWpgQdg0QmEAqiKCKTnpGBCImMuvXqs6cELFXVZ7ESmUoMjCiBMW+HnLlNcJzA50RJIsMPMfKjjF99NU8+pvjd9/Px/fffiUsX3bpo+TCJLkrjJ4yXt/Ysiwq/CfAXxdkmMtzmWyVaJ7jCF0kG3/jTmkP3JVoK6MJE5Z0uWiRHdCmjxaN3n94SqyIkKRQS0kTLxJKlS4RUkLzQ4sHzuSgAg/ipgNNSQvcolk0lnDnrmjRpkpAGWiNIQGiJcFqU2A+j9HOb7WLOxQ9oVeJKYiQrtAYxzoaJyyHT2kR50EWO9bAMunLR0sR4mW/nf4uZs2agX/++soIYj5HskGzxOsqE5/F8tjenXY7EJFEWJCskUEzsG+XGJaQpQ8qzZ4+e8hawc6fO+PDDkViwYCG+nT9frqcViy6Dxm2QfSEpY2wRXdRokWIfnHXwN/fTOkOLDGXPxD7xek1lI4NYIlO9enWQyKSkpEigPxWhIP3t6arCuC1aZGwiQ/ySyLz25ST8rUM8XK1qW0sui+JqW2SiRIaEpoyITCxJif1Npb6wfQcp+0aJPNzcKMmFKZ/mmF22882/bDOWqJ6VqEybtjnbLftMObYSWywpMP0orVJcWLvtfbHuTbQUxO5z/i7RklBMXYVdW1zZzmNm25TB32a7wGpfjv3mmtLmprzDys34mbEpLue5jnYWul0HrjSOby3USGmE+7p6MDV3BbYfOIDcdRvw8Yej4BMiY33AllbU4ogMLS6GyDSIi8O5tkXmnJo10dC2yERiiYwjBlXn4bKZh1WOFVuOSmQqsVJ2KESGSi6JTECWUQ6gXbsc9OrVE/3790O/fn3Rp09vIRRU5J2JAfJdu3UVtyy+6acCbgiHkAEHkeFvxpQwtoQWAcaV8G0/lTlex8RYG+dxKuHcRxLCcnkOCRH3Dx4yWFyfSGpoASEh4PdlaB1iG03sDq/hRMUyaPWh+xQJDP9o2eC1JCs8zyjqTsWf/WJiGWwrSQqtSFzVy6yWxkUQGAPEfrGPLIflMTG2hm3pSzn27QOugkZZ8xzWyzZRFrQWkXiZ63kOSQQJB8tnu1kfY2XYfyZex8Q60iPpEuPStWu3qHyN/GInatbLa1gfl4dm+YzpYfnjxo+T34yHYjwNCZzpi5FPbHn6+/AeBMUSmfQMIS9OIpPmdiM7MxPjx48T/JLIdJs7EVe1aw1Xq8fhSqC1gYrWMSAyVOoPeuNenKJ4NI4ZRbWwnPXFvImPEhqbbIgyze1C3LgMuYmSl0LKY/mxS1mTDEWvKaxdJe2zSctBijTbGZOOqJ4S2lFaonHQeVzKuBhCcND5xZC04sopdd+LGLdYbBQgrkXJJp/I/CE5TojMlNxfsW3/fuSuW4+xH46ELyUVkYDlCqpE5vDmRX2eqNwOBQNKZJTIWG/r7RgIWmT8flowrDwUokJubXN1LvNmPprLMetNPZV9UeCDFnFwKr0kBrTUcB+vZc5EckHAswgibAAAIABJREFUctupLJtt5uZcs4+/zaICDE6nQk6F0FhOWI+5ztwMrJMWECrutPjQnYp/XMWMViAeM/UYEhPNHVYInmPaz3pJQmjdINliG1ifJUOrj2yTaRevNduGHJnctJPt5jbP4zH+Zs7yWR8TiQXPMfLgNs/hNcaXmnXFysDUYXJTPn+b8kmi2B/K1fQnKpeYZbZNOZof/kPncIgMXc4mjB+fT2TmTMCfc1rC1YrLLR8DImMUPr5x5wcx3XFwpcXB5W5orfxkCECx5IDK5dFOJBkx8THGGiPKtGl7Q7jcXHaX/SE5i7EoRffZ5ZkYGiExteBKciQe4/d6Ysso6XdUplSgGYPRENVS4yTJcsBi3bDlZeTK3MjQlG9+H3FuK/KHQjrMubJqnoOcFEVGzPnO42afyZ3HDtpmGx0yKHI7ZtzM+DnzKKkpqbzacKWR9D6Ok5Mb4r6uabCIzD5sWbsOYz74EN6UFKQHgrK6oBKZw58b9bmisistBpTIKJGxSISt/AtZCTDInQQiJtG6EraX4XVYKYzyHQVdIaZvIQVBy+rjVIxJZJy/TRlF7TPKOY8bcmKsNdxnFHpTDn8zkajwWloZGJfDP8aFcBUzWoUKEBmbZLE8Q75M2SxL9tuEg9tsh2kDSQz3MbENVFRJPIoiMKZ9pr2mf5H0fCJjymcb5cOWJDmR/I9TmrpMWcxZnrMdpnyTm3N5DsuNtt92IWOdJh00vpX4njHyOVb54RKZieMnOIjMeFyZ0wKuVvwA5rEgMrayndwAZ/ufw186x+P6Hm5c1qEVTvY/bVsjbAuHUbpFUSxJSSzr48YaY5MZaQsVbJKWOFyU0RT/7OnGX7on48yspnClNIQroS5c8bWtlFBHvhcixCKpLlxJdeBKqAVXwuPWR0ZJHihv7mv7OFzxPFbb2sdjpbUYRK0s1sdMT/I+jT9mNcPNr6Xiuq6JOCPygkUUpUyWa/rF3JZZmRMZu/2GUJhcSB3JHr90Xye/z0JqbfJCUlgYmTEy5HXcNtcYgmLqiM3N8YPy0hAZW1ZO0lLUdmkwymtJZFIeEyJzb1c3pmxZjq379yqR0eeCPHeP1bND68knekpkKvHNV5JrWYj+9w6lndtiTSiGyJCQOG8gXnMkii6vd5ZX3LZpqznH/Da52e/MjVLv91kLBTCGZsPGDeJaxu+wcIUwWjkK64OzXG47y3XKwZwneYwrHa8xbXBeX+K2TRgNsXHWUdi1hdXhvMZsF3atOVZUzmsKK7+wsnRf/uRaGllUPCJD5dGyxJzqfhJ3dvcgfvpwZH8zEU0+6osr27eyFVSnu1YhirdRwI967qhbCANJTCOcF3oJjUe8jpxvJiDxy9G4++1snOF+Cmd6nsbF2a/ikvYtcBYJREocXEkN4Eqsj+qpcfiDu5HkruT6cCWSyNTFKd6ncFFWU1zevgVqhp+3LFQHudxRbjEpSmC4Epb9/Z+khriqQ1s8NaoP2s8bh7TpI3BDby9cvidtNz7WSdL0CFwJjrinY0VkWA+JSEoDnBF8FpdkN8Ul7V7FOeEmYkUSV0NDZGSZYpvcsO8kLyn1cUJaI5zgbWxZ8MT65LDexJKY4n6LPG0iVySOlMiUZh7Scw5t3lZ5lS95KZGpykSGb+0ZBG7IjO3+ZeJkxCJjB4nLeTEkhkSJa+UHZWWW/NXRirrJrfMP/wYw7SQBK6qO2P1UwJkC/oC4SzGOhd+B4aIFU6ZOQc9ePZGekR61oDivj9Z3GBg5kmvLug1m7Jzky1mHbpceT2Utq7IhMhMKscjQPcqsWGbysgj2N0SmIa7MaIbWYwdi3JblmLVtHcKzR+H6bsmWu5kooDaZ4Ztu8xa8wFtvo9iXpIwe5nGncm+sMckNcJK3Ce7sGUD/H2dg3va1GLBmPmp/0B1/8j6PO7qnodm0IWg9dxQeer8bzg29CFd8A5zsexbX9nDjf29l4fY3I7ioc1tUS45DjZQncGsvH5p+9h48X36E+h90Q02x7tA9rBQKullwII0LDzTEySlP4vG3O6Lvkrn4avsGDPr1K9wzIAMuKv4kEPyqfFqDfNc1IQhU1inLw5RTkddx/ArpR1Jt1PA/hXsGhNBm1lC0mDkE/3krglN9T1nkTtpY37GYghUvUyPwNP7WrS1uGxjE7QNDuKxTS7i8T5ROToXJstR9duDP4DA2j1q5SpChWmRK/ewt67lSyzt+z6nyLnslMoehpJb3QTXtK84iIx/rEiJi3xw2ObDiS+geZcVqmLKYR8uzP/QVCaeDKRyKSB79bX/NuMD59jWl+dKxs84C22yjnQ4q216Fzew31/E31/Q3ZIuB+lwVrF//frJIAZc/JtEpTMk/HDLiJA283rTjcPPDaYOp64iudRBYU97RygvIzFi0HPUXNjZHqy0llctVhph4HlcjciZzrbM/1nmWq5857swLIzL33nevtWpZEcH+jJEp6FrmjJGhSxcVaBIZLrnsTKUlMk6C4bBoREkI3YIa4P5eQbw1/3Ms37ML3+zYiIRxb+Oqdq0sFy0qwPJGnophLbsdzvpZh60ki0Jq6jR5CQplkcp3zHUkMzzXEJmkOFyQ2QovjnoD87auwro9O9Dnpxm4q18IV7ifxXNDu+H9dQsxbsuvCMwZjWuyWsHVuj7++noa4mePxLu/zEOXhdMR98mbuND3Ei5Pex7PDu+BoWt+wJxtq9F1/kT887UUyzoR/VJ8UYTGDtyPWi7icEWkGVLHDcbnW9dgxd496L9wJm7t4bHjd+rh/IwXcGOfVNzU141rXmuLsyJN4Irn94Iot5i+H9Fvm8SYuCdDJOgyllAL5wafxYtje2Hsph/x/oYf0Gb8G/gjLVh0rYslMuxfcj1c93oi2kwZiNcXfYrXFk7BE6NexznptHoVJZ8S9rPPTrJaZH9jMVzU71LIT4nMET/TnPOfbis5KQsMKJGp5ESGIBHlPswlhJ3JsqbkK/6WRYXKrz/oF8XeHIvmjuWbSVrSwxmFJiE3jnOFvITzyQ7LO1TwWtdYbY5+MbmQOmKJEq+LhNIRClhWGbpqGbLGeCAqnYW1x+w7FDISVWCjsUXFExnWUVIS9z9buTfnliS76Hl0HYyxopV0LY8X6MdhXF+aOpznSH1GZk4iE7PPec3x2DYkpgCRoTXSJHsucfaH7YyOR8xcw/2FEpl770VKcjIy0mkp5CqA1uIb3E5zp8r3ZSZNcMbITLAIBFctSzRv0ankkUA4UpSIlKSwsQw78J3XxJYhymMcmgzrgdmrf8HavXswaeMS1O2fifO8dDGKs+JQJE7CbkeS7QZFdypRui33NCEzJDRUZiWg3eS8znZHklgKW2mNKqtURtkPU56dS9vscwuQGJKZ+nAlNcL13bxoN2c81u3ZiVW7tyAweSguzXgFl6c8jfiRffHlttVYtCsPPb+ZhFsyW6Na87q445326L16Pn7evR0T81Yhcc4YXBVqjn94Xkb86AGYtXUlNuzdhRFL5uDfPf3iviYxN1wMQfrHPjqsG2y3uJaxXWw75dEY9/cIYsBXn+Gn3duwaNdWeMYNxpWZzcWN7AR3HO7onYbI12PR6fvJSJg+GLf09cDV+hFr5TSj1Eu/bflRhkauImPWRbnZ8jPXSHts4hBtL8exkU1M7cUQKMP4x3BxqAlSJ72FH7avxbytK5Hx2WD8LfMVa/lv41rmLDOpHv4zMIJeiyZj9tbfMCPvV3i/GIFLc15x4IHyYT12YjtM2wUDNk6i2CRZtxdaMP2Q3PS9JJwfxnHWpzEyh/z8Ph7ztdZZdUiSEpkY5aIygZ8KlQSry9ttgjqCIF3B7ESlPxLOQJhWFSE6lmXCuJSJAlYEWTDWF5KZjHAWMsKZDlJjlWdIhSnHXGPVdfBNxvaK4mfX6RwLowyWmPNamyixPG4bIkOrDImJITJWXExY2i1WG9sKwHqFjDnKEeU0xkpQ6D4umkAiSCU8hgRYbQnLhyv58cqMcPpBKT2UDia22dkGyswQRyO//PLYRyrUXCknHC2T28Zi4JRlabalb4X0wXmtKbu43Hk+t3ku21pwNR+6N9oLS0Rlxu+mBKwUI/fYMs04mP3md7QPMf1wtpfnmOuYR6+J2W8ds47z43U8z1kOt005PCYYk3oZX8QXCLy3DEnkuXR5jCAzMwtt2rTFzTffgmquaqhe/QTcc8+9SEpORig9DI/fg1RvKtw+NzwBD1LcycjMysCkiRaR2Q/g9Tlm+eVaZUdkhCDYCq+TyFBRTKyLC0MvIvTp+/htxxb8+vsO9FrwOW7MboNTExvDlRwHV3JDsdqIIspVvRIfgYtkxn47LzEm5hwq+4w5YUqyU0I9uOIZeF8P1eIbWHEqEpthiNVj1upgvNaOYXEl8hq2r54lB4nJMMoqFfd6ODX1KTw6sCOG/Dofufv2Yv6mX/Hc4NdwUkpj/NH9LBJH9seX21Zh0a5c9Jw3Ebekt4Lr1dr4e3cPUud+gvd/XoCO309HnVG9cZ6nCf6a9gLajHoDM/J+E2I08ue5+E/3AFyJcXAlMLamIVzxjKdhH22CJwTGtgpwm4p/cn2cnPoUXhzRB5+u/MkiTBuWoH6/LJzlfgqutg/jdO/TaDikM6bm/YbvduZi+KpvUW94V7haP2qtnMbYGS48QDIrsqD8aEGhjDgmjaxxEUJjfyBVrqkNVxKJFFed4/jRja0xqiU1xomJTwj5k1ghEgziou3DuDT8IsKTB2Pxzk2Yv30Nsj4bgqszX7UWS6AVh7KndYZjJmSkAW54LQmJU99B/x9nos+CaXjuo15WTFEiyQgXD2gIV8oTdjvZBsqO5fBDr0yUoyHZxAGJO2OFHrX6zTLa1kG1tuYa1m2T2igBNng4zPxwiEwJH8U035Ep9QcxC1lMx8w9mufPwyqLqiMLJTIOBaSyAZ/KFK0rTFS+DJGxFLEQQrSqRLKiZMZStmyl0iYBVLaKS+mRTGRGsoXMUNEW5dt5jU0GqHQXKCfGGmEUSFHOoy5rh2a5idZhCEgwIESG7aJFhv3jGEtdVEbla+npyIhkIT1svf2mQs1yeA3ba9oVVbSNwl1EThLjD9qrvtnKsPSJZYYikjLD6cgMZyArVDBxn5UykSnk0GoD20y5RuUsRCe/vAwpN4RIMIDMUATZ4Uwpm/sNaeBXpuVL0zFyF5nF7IvKyCYA+ecUdKWiJYJkqbhk6jT3FttjzjdkhgTMSVp4LveFORY2mXHKn0uCs26rbE7WxLaVSCgKjpkfoaBfjpt+OOtnuc7yuB2wx49lsQ7TdpZr3VMHk1RzjiEs5t4jeTEvCgyRMSSG+zMzs9GmTTxuuvlWVKtWXcjMXf/+N+KTE+EL+5HkSUK8Ox7x3gQk+JLQNjUekawIJk6wll8+AKDH3Mn4S7s2cLVyEBkqnAUICN26jBWjNEqc4829KUesM1QW6+Lunn68vWg2tu3fi/nbNuDVMQNwgfd5nJLUGKd7n8UZ/iY41fuMpThTUU14CK7Ex+yYizhwZa7TAk1wsu8ZK6A+JQ41vE/jvMhLuCKnOf7RoTWubdcKV2e1xN8jLXFO4AVLiZU2kMQ8LFajM4LP4wzPc/hDypOo4X5Krv9Lxza4OKMpqqdRKWdfbdKQXA+XR15Bm48HYXreKmzatwejFs3B/T2DooCfl/YcEka9iXnb1ohFpvfXU3B7Vlu4mtXC6b7n8e/eGXh+SH88OqgrruiSgGoJ9XGZ+1m0GtUf07euxLq9uzF68TzU6p2BcwMv4bKsFriuUwKuzmmFC0JNcYqniSUPkhfGL9HljrExJAiJ9XFhqCnSp3+Exds24vudm9Djh0/xz8wWNil5GOf6m+ClYb3wxbZ1+HXPbny6+ic8M7wHXK0pDy4AwFQb1ZPjcH7weVyV1RzXtG+L6zsk4q/t4nFRekuclPasVV+KfU1ibZyY1gh/8D+DGt7ncEpaE5yZ9iKuyE7ANR2S8c/2SbgsuzXOCL9kjRPl2fYhXBZ+Ge2mfigkdtHOzcj5fDj+QctRfD2Je6nmboQa7kY4iTEwabTqxOFsz9O48/U01BvSGXXebofr27XGyVxMgavApcThNG8TnBN8BaekPofTPC/g/FBTXJHVHH/v0BpXZLfABcGXcIKbY0pskvyQwDwkJO4U/1Oyat7V7VrjpvZtcUVOC5wWfM6K1xJrV2kwX4pzDoXIyPxov7SxyUzsyw+ZYyLWc6YoIkOrrVlWXxZdUSITnZPz592qo7Rrnw8eayUylZjIUPHyBf2SLHcYTpgh+e0PURkjucgQQhMMRRAIhYXwGOLD45Y7mnmbfDCAqOwbS0HUgiAxJ1QoY1O+Ncgq2yIXPI/kyi9KZVjaQ5JllMKDy4kt1/nbqsMqjy5yFmGLJXFSpsQFWVYp1sVrmCxF06qfbTJksDS5L+ADk3WupfByHDj5GOXbUqQjINHIDJHUWCnfQkMrV6ZYZdhOlkV5pYdJuDIlJollmvIsIuBHMOBFJBi0SAzJIPturEM2KRFl3O6n6S9zp4z52+p3QOSRf8xhORGCYX1t3iIdtFCwTfmJX6JnG1knCQOVe+5Ltx/wPFeIBImGnQxh4e+wnaw+0MplJUM8pGwhlOaYRUoMmSShJClhOVKuPQ6GyLB+i7Swfqtt/O0PeOAP8LtC3J/fZ46DN+iVFCWrDnxQTsRZIBSCV871yTaxzPvLz/sxRDwRZ2EEw2GkZ2SiZes2+OeNN8Hlckm67e670DqxLVJCqWjtbYU2gdZo7muBZt4WaJbcHN4MP8Z+MlaWXyaR6TV3Kv7avi1crbj0r60Y0/2GH2o0JIT5IREZmwCY66koC4logFPjG+KFkX0xYd3PyN33O8asWIB7uwdwUmIj/DHyCu7pH8Fjw7rigQGZuCy9qf12/mH7+yoNcGmHVrhzYCYeeq8jbukTwKlpT+P8jFdwR/8QnhzdG62nvofQnNEIzRqJ4PSRSJswDLXf7YLzIy9bSnj8o3ClPI4Lspvi/97pgMcHdsBd3Tx4oE8YL3zyJjxzRuOJ0T1xSbvmtsuW3ZfEuri7uxfdv5yEH3ZuwbLd25AzaQT+0S5eXKLO8TRBwuiB+Hr7Ovy0ezv6fvMZbs+KFyJzhu95PNA3G81HvI16Q3rg8k5t4WpbG39yP4PWo9/ArK2rsH7vbkz65VukjByIuBE9kThtBDLnfYLgrFF4bvQbuL1HCKeTSJBw0JLAj5aSyIgloR7+1d2HgT/Owfo9OzB903K0GjcQNdOehKsNCcrDON//PFoM74dvdmzC+n37MWf1Urw4vBdcrVkeyWJdnO1rghu6pSBuWDckfzYc4TkfI2PueKR8PgrPfPgmbujmxSkBKvi0yNRBDd+TuKmfHw+82x739I7gX508eLBvO7Se8gFCX4xD1qyP0WryUDw8uAvODZLMNBSLzF/CzdD50zFYvXcPft69DR1mjcINjCdqUw9nZjbFDT3deHhgBHcPCOGyrm1wYnIcaqY9i7t7BtB4RA80fLcLbmwXj1PESlQfl+S0xH/f6oi6g3vg9q4B3NUrE0+83wdJ00fA/8VopEwbgRc/7Isbu3tsgkqrU22xZv2pQys8PrQLEqa/j4wvx6HDvAmI/3yELNZQM/tVm0iVgqSUxmpzCEQmw57n0h1W6PwXS/lWaS7Nz5dqcXFxOO+882QOqFmzJho1aiTPDSUyB+sdqsyrTJwYUCJTSYkM3z5TsbKUVUvBokLlFyXLB48oZD5LsaLiSoXZVsDSeIwKF1f7EgWfyjQVMEsZNYppVDk0b4jCIQTDQUlyPssQ5Y0KXMEk9YWtOuVYMGDVabcj/3jB60w5Um644DHTB2c/eH5AlEsqkpaCyWsD4bD1OxQQpZPnWXVa+6lwMlkKKRXYmBSK+R30wxP0gbJj7gnlb3uDPpjkJENcHY7KfSBkx+2YbRk3yiYo17kDaVK/NRZhaVd0/IIkTl54AmlI86fKtowP5W3281jAI2PO69hGZ5L2Shv9MgbsqyfANsf20QePlOkVsmaRNm574Qt64Qv5rJzbQa9YpqjwMzkJgLG+kCjI8YBXiAPJA8uirIRIBPjtH6+QDafcuE25sZ9SdsAj15n9LCONMiMhIZHheNskhOdwAqSlRfbJeWlWH1i3LUfKktvSnoBHymKZqf5UpARSpXzpt10Xx4h4CYbzcUYZE1fBcDoC4Qh8YY5nvkw9IT+C6WE0a9UC1910A1zVXJJuuet2vJrQEvHpCWiZ2QyJnePRLKsZXgo1xcueV5GW7ceocWNAEsPPuvaaNw1/bR8PV2u6VZk4A0NkbGuEsUqURlmLnmOIkO2GJAHzjXCF/0XkzP0EX25fj6U7t6DHV1NwWbApXG3q4rZePgTnjsHgFd+hx4JpqPVmBs7wPClv8elmdEZKYzz7cX90XzQDb/8yBwmT38Olac/iwUE5SP/6E4xe+T3Gr/8JU7Yswaebl2D25hWYt2El3l08D0+O6I6L/E3gavW4WBH+OzALb/40FyMWf4WeMz9Bv7kTMH7NIszeuhI9Fn2GW3t5rTfy4trEZYProfHgrvhk+fdYvHsrPt+8As8M7IjzAy+KGxSJTOLot/Dtjg34+fed6PfN57gtKx7VWtTGBZGmSJz6AcYt+xmv/zAT9w3MQI22dfDn1GeQ+NEAiavJ2/c7flizFJ8s/hojln2LyRuXYM7W3zAnbyXGrvwRmZ+NwZ1dPXC1pOWslhUb4+a3aerixPiGaDysBz5e8yM27dmOD5Z8jQf7hHBicgO42j4mROY8//No7iAyc9csxUsjeok8qNSf7X4aD/fNRGTmRxix7Bt8unEpPs/9DTO2rsa0zSsxesUiZMz8GLf28MHlaSQueX9Mb4q2sz9A38Vz0HfeVGRP/hC9vv0cH69bgi/yVuP7vDX4dP1S9P9xNmoNaIfzgi/C1bYWrgm3xGuffow1+/bhl993osPsMfhXVlucnfQkHng7G+lfjsKwn6YhZ/5YPDqiI85MisPV4WZoPX4wBi75Fv0WfYHGg7rgorQmONnzNP73dgf0+XEuPli2CO0+H4dOcyZj8LJvMWHTL5i2ZRlmblqOKSsWwjd9JK7umowTk5/ESQmN8fdOKWg5fjBGLl+AWZtX4svt6zB321p8smkZuv88G/8dlINTQ00OjqUS10ladpypFGRHiYxaQyqpzugkBhVtW4lMJQSluNBE/fKNFSQiChUJSlrQg9SgW5I7aCm5aaKE+5Aa8oiilhqk4uuHh8p8yI+0kKUIU8mk4u0PUZnkth/BMJVKe1+EBIgKMRV5jyjM7pAX0WQr0VTiPGE/0sI+6xgVQqnHB3fQI4nHeJ6bZZkU9MJtFPGwT67neTxuncc2++V6Kpw810tCEApG9/NcbzgITziA1GAakoMpcr6cFw5JWamhNFjJg1QqsIE0pATTom2jnHgt9zFFt/1uUJY8nhxMlZQSdCMl4EZqwA2Rd4j9S4Pb3kfZym+ORYgyy5cb+5AUSJbr3baMKB+WLf0LuJHiT0GyPwmJgUSkBlKFsJC4cJv72b/kQAqS/MlWCqREr0/mtTwvkAq2U/rMPlGhD3rt/rnlmPSDirw/1Wo7z+d1gRRJ7iD7ZyXuZ/8kSf9ZTzLcJFt+jxAdj8iTpMAticd4HRP3kUh4KU8et2XjEWzkEzPWlxpIsa9Jk74T20mBJNnPuBLildexnTyfGCYJkpgTf7Kc52a9lIUvCcn+RCTb11tlp4DH2X7KON6fgCR/EtL8Vv84PonsW9AjuHIHfZbcQhxPP7zhEDyhINLCfuv+ChEzbpF5WsSLF1s1xQ133IRqp54A18ku3HD3rXghvilaZrREy46vIO2NZLTq3hKvdn4Vr2Q2Q2oXH0ZMGInd+/fi9wNAjy8/w9/aJziIDGMNGHPCGAFbOSMJiRKU0m7bcQiMRRAiVBcnpj6B+7t5MXT5N1i4Kw+zNixH/NhBODmxEVxtauPf/cKyChiD1b/Zvh7e8YPw54xX4GrzCKolNcA16a+i50/T8fWODZibuwJZ097HZfGN0XTqOxi2fgG+zF2JqSsXYvTP8zBh2Xws2rIGJAg/7dqCfj/OxO0dE3BG63o4298EL4zshx93bcXaPTvw05bVWLRlJZbs2oQfd27EkJXf4t430m23NcaI1EON5DgkjX8H3+WuxoKdmzFg8Re4o2MyTmZcRkItnONtgqSP3sa3OzZiyZ7d6P/tdNyelYDqLevgT9kt0GPRbGzcD0zNW4WGI7rhnIQGuDqtCZLHDMS8bauxa/8+bNiZi593bMSMTb9i6m+LMGfNL1i+awt+27MTs9YuR8LH7+LMJC5TzJgUJn58sx4ucjdB+uyx+HLrGqyiW9mXE3FluKkVN0TXq4SHUTNwMJFpSotMi8eEDN3RJRWdZ43Dl7lr8fOuXHy3eTU+/20xpq9ehkVbN2Hlnh2YvXklmo0fhJo5zVEjviH+ntkC3X6ZJUs9L922CXPWLsf0Lb/hkxULMW/dcqzesRnr9+4C3cc6zvoEN3ZIkribf0ba4PVPx2HdvgMiq84zP8aD7VNxa1Y8Mr4ej083/4yFW5eh3+KpePCtCE5rXQe3Zcej6zfT8P3uXZizfSMSR7+NP3tfxuneJnj+g/74asdmrNq7F/M2rcWMzasxbdOvGLf8e8xYvRgrd23Btn27MG7NYjwz+k1c6H4Rl7qb4sn338SolT9jw759WLNzO+atWo7PVizG1HXL8NHmpXhu7Bs4N4OWvFKsgCakpoR7Q4mMEplKqDNWNOIS214lMpUQlCYWIN8ik29x8UX8CLcLIdQugEC2D2kRNxL9iYj3JcCT6YW/nR9pWWlIiaQg0Z8EdzgNgSw//Dl++DJpyUkTohLODCEzJx0Z2emIpNPy44c/7EMwI4BQdhDB7IAogyybZfmyffC3C8CdniblUmH2Zfvhb+9HWibJRKpFAMJuuLNS4c5ORWokVRSpj/YfAAAgAElEQVTrlLAb3mwfgu2D8GZ5kRRMQltfPFLCKQi0DyLYIYS0TA8SA0mi9LMf3mwv3JmpSA6lSGyBJ90Hf04Avhyf9DMl5LYITAbrSpH93oyAKKPJoWSkpCfDm+OFJ8uDeH+81Mf2sB8sm+ckBBIkT81IRVqW25ZZMkgCU9j2rBQpOzU9VRRdKryeLC9CHUIiTynDnyD9EPnm+JGa7i6iH8lI9CfDk+FDoF1A5ObOcCPBn4C2vrZIDCWI3Ni21LAbib5EkRNlwH6kZbrRxtdGEseD5zGxD228bSR3Z7rhzUmDO8NqL8lXcjgFKZlJMh7JYZIlizC5092CFZFPgPJpg+RwsrSLY5ocSRGFPzGYBHdmGlJz3EjMSERSKEkIRVo4Dd4sj0NuCSLnpEgSkrNSBBNpkTQk+RKRHEqCO8ttjV2WFywzIUBcUe5pSM1MQUKI13M8UpGS4UZKVgqSM1KQJOTFGo9k6Ycb7ohFSEnwODaebI+0MZ6y8LVBQihe6mPf2CeSlyRignjKSkbbSFvEB+KR8v/snQd4HNXV99cYA6YEAiSEQEI6IYSQL4WQBEjjJcEUG4N770V9tXVm+656l2zJsmxJttyrinu3jHvvTXJR7723//ecMzPyWjGmvIa8OPLzXN/ZKXfuvXN3dX5zGkGQTe5DgA5aB603PfzMGvjbtDAECqw90dlF+Fl0UFu10NOYgwSo7RrMMHjA2+KLyZqp+PvgN/HMi9/Dfd/ujxdfexlj1BMwPWg6pkdPhn+qN2bOm4qpcyZiWuwUaOZokLIpFXnVBahqb0HUoa2yRobMbSji050GGTJLIw3PYDxhHA/PNfOwtyYfl1oasSr3BN6ZFyQ5iKsH4ecRatj2ZeJkEwUBaEDSiW34U4yB/Woe0YzAwEQnssrOszP9xsIzmLYsDo97foBB6xJgPJQJy+5VmL5iNkbMC8KklHAsPLAVV2tKkN9ah501VzE4JQDf0YxkM6fpmakobG9DIwFEezNOVBdg1cXDCN2/Hn67V+KFGD1UWtI8kNP4B/iJcxpij25BSVsDDtUXQ719KZ61k+nbRzdAJmshTjZW4kpbK+ad+BivuHxxj+cg/CDIE4kXDqC+C6zhGL4yBt/SDMXPDePhk5mMA3WF3I/K9iZsK7gIy54MzFgWDzFzATYVnOO5oChpKecP4lfhWskBnyOaDcS9mmF4PVyPVXmncam5FsfKrsB/wwLczw76cgJMv3+hp0bmSNEVTCeQmTEA/XVDMSN9Hg5W5DNsHa4oRMKO9TAumQ9hdRqWHs7G9fpKFLU1If7iPvw+yY4nfIfjJZcn5uQeZFO7hs4OHK0uQezJXZiyIgGmzDRkXjjCJnhVHe3YVHgBbyU4ORDAr+0+iN65gUHmalsz5u7djCmJYdBmLsC22nwcayjBmqsHMG5NDB6n/DIzBuB3QWrMPvExLra14VhjFTTpC/Aj42Q8aByHSSuTcK6hEjWdnbjW1oJ1BZcRtDsLU5bMhmXdYuwvvIzmjlacbqpG8PFdeF70wK8d/hD2bsbJlkZUd3bgYO4FBK5YCM+F8dBsXALz0U14a1kkHrRN+HSQcY+Edjvg7wWZXpC5C2XGnmDwdfvcCzJ38aKUTG/M7BOjmLSIDhFBMS4ExjkREOOAGGyEj8kLnsaZMIWKcMXZYYkSWXj1NHqwQO+ItCEg2g57qBV6iw4muwlBoQEIjw5FeFQonC47zDYTzHYRtiArAiKccEbY4Gv2hqcwE/5OP1ijzNy2IUgHL6MnC++WcDOccVYIoXqoLWoJABwamKL0MEfroQvwZxDR2DWwRVoQEOeEJdwEP6sPZhimwdfqDVesA4GzXDAG6+ElesLb5AUxxAh7tAWmCCM0DjU8DB4wBhjgiLbBGWuDOUyEn9mXzzWGaGGO0cMeY4UYZGJB3c/iA32wP2zRZpjDBXgIMzDTOB26AA3s0VZYI6U+eIoz4WfzgTFUB2u0AEOwlsGCNTgurTwOA4whND5/+Fn8YAm3ICQhGI5oOzQOf3iKniDh3RnjhCvWCUOQAb5mH+6fJcwMR4wN5ggRWqcGPiYfmIJFPo/mQgwV4Cl4YKZxBs+xOdoEa5QVWocWXoIX1HY/mMIFOGJtMIUJ8DDO4GII1MEZY+f5oLmcaZgOX4s3TOEGOGaZIYZTH3wZCunZGcLV/Dw0Lj/um6/FB8YQI1yzXLBGWuBj8eY+aF0aBMxy8X4CF0+zF7zMPjCGCRBjRfiHqeFr92XgIAgzR5khRgvQBGngJXrBQ/SAOlANfaQepkgzQ5+n0RO+Dl8YI42wxdlhjrTAy+LDPiMEFWKkCEO4Hj52b/Yh8bX7Qx9mgDHayLWP2Q9q0kAFaqGP1EGMFqELIFjUwM/mz32zxtgghpu43ZkmD/i5/GCJscAabWWo8jb7QG3zhxAuwhBlgG+wL7xt3rxWaByWaAto7rWBWh6vh8kL/gEaULuWKBu0AUZ40nqz+kKIMMEaa4MmSIsJ2omYbpqBGeaZGOk1Eq++8yoe/ck38bPXXsAozVhMD52GqTETMHPeJExIGokxc4ZgSuI4+KV4Iio9HHvO78HVhlKE7F+Hn5CPjNeXATKKbw0B0gj8MsgPSSeycbWljiNnRR7Zjl8G+0FlGM5aoCdtkzExYx621+Qjr7UBG/NP4sPUMDzgPxLf00+AYX0aDtQWsOCcenYP3ooR8aD3YDwb4Y0XozV4McgLPzZPxveM4/G8fgI0SxNw8No5FLXW42h9ESaujMb3hfH4pnUqpmcuRH57K2ulcptqOafNiORw/DpIjZ+EafAQ+XTohqGPZjge047EkEURyCo4g9qOFmwsuYg357vQTxgpaz1kjcwngMwPgzwx78IBtHQB++uKMGJlDJ7UDMUPtaMxdc1c7Kkt4ChoZ2uKIWxdgZ+Ha/C0dhxessxA0N51OFFXipbODmwsvIQBaZEcEUyK7DYIT5kmwnN5Ig7WFrLmac2FA3g/OZC1LOzET0ESZB8ZMi07xj4yHThSmAuP5fHoN2MAnraMQ9TBTaw9Kelox9rzJzAuOhhv2XR4k14iLZ2Pk8W5qGpvRlbZZXywcjZ+oB2H3wf6IOXqUeS2NqK2vR2Lzh/GGwk2PCWMx68sM6FbvwT7a4vQ1AUcqyvGsAVRuE83Bi/bfRC2IwtFHR3Ib2vG+hMHkbQtCzsKLvKzTS84C4/1SXiOtCEUHtrzXfy/EH/MObEXOW3tDLr69IX4iTAV/YUJmLJiLi7WlPH8Hq+vgHVHBl4LNeL7xil4PcSAZSf2oaalkSEn9cpp/M6ixqsOHcz7tuBUSyPKO9qw4cRBTEkIx2tODX4brMGv40Q8FTQTKjJt/DSNTC/I9ALKXSwLft3A5PP2txdk7uLFy5GTyNfDzS6f3oSbg0VYQkXYI0kzYITa4gsvwYOhxh5lgSnMAK1TDW/REzqbP2zhFjijbLCHWGCw6mF2mOEKcSI4PBDBYUGwu+ySr4NdZG2MM8wOW4gZfibSAHjA3+EHU5gRtigzdC4NSDglrQpBlCVCgCGI3pyTWZQBum6QMUAfoIHWqoXWpoElzMTCN0GI2uYLT2EGC9+2SDMcUVboA7TcX4InU7ARtF8MM0Dn9Ie34AUh0AhbhIX7YAohTYQvA5wuUA1juD8sEaKk7TETcPhAG+AHc7gRQrCe70UgQ3NiCRchhhrhZ/WGF4GM1RvGYC2s0bSfTJrUIH8JvVMLIUILMVIHYxC9qddAbVXDFCIytJjDzFDb/OBt8obGQaBm42IINLB2QW3xgzlUhI2fhxE6hz98TT4MZDyOSAsMgRK8eQgzoXb4QggzwBQmMhh5il6sWSCIskSYIAQbukGG5pXAkJ61v53mksbhAyFUB3uMyM+f5oc0SHRcE+wNY6gaaps3fE2SxsIYbIA9xg5zuIlBxlP0AIGMPcbGRRukg7fVBz6kKQoxwBChh2+wD3xsPgwyrKWLEHm/fwABnRc8TJ4MMrpwnQQNLgM8jV4MP8YII4OBGG6Gp9kbM2jMAWoYwg3Qhmrgbad9HvCza6AL1TMMaUO0rPHwJU2dSwNtuJaBiDQ1vqSFtKq5bwRHxlChG2R8nb4QI00wR1mgcUlt+Fn9Gd5oHOpgX+4TzQ+BjDXSDFOkwKBLz9PL7AVNoIZhyBJlhS7QyPPgY/OFMVyAJcoCXZAO0wzT4GX1wjRhOgZPGoyX/vISHnz2IfzsTz/HaM04TAuZiinRE+CZPBVT5o/F+MThmJQwBl6J0xG2KgTZ57JxpaEUwfvuMMiwLwyZ2Cj+NZLvzf3CeLw9NwjbS3JR1dGGLeVXMCMzFd8yjpfCHms+QD/9KPxPcjCSrx3F1ZZaHK/JgzprAX7k8MIrTj8kn9iNS83VONRQioB9Wfi10xMP+g3Fw+JY/CjQA3+KNeKt+QEYkBaGD9MiEL4zHSeKclHU2oDTjWWYuioWPxQm4EnrNMzIXMgaGYKLncW58FydhB8ZJuEh7Rjco6foXCM5N8sDulF4KdAbzn2ZOFxfjKKWWiSe2oUfB86UggdwqODPADLnJZDZV1eEkStj8YRmKH6gHY3JaxKxm0CmswM7r5/DoORQ9DWORh/fIXjEdxgmrElEdtlVDs6wp/waRqyagwcNY6WQyNoP8WKQD+L3bUJOczX72oTuScevCEz96BlQdC4JZL5tnsA+MgQyBCtHC3LgvTweD0wfgJ8FTEPa2X1o6+pCSXsrMs+fhLhqEbyWzce0lcmI3J6Bo6U5KG1rwPbafIxdn4LnhUkclW1R/knktbWitKkRAbuzOGAAmb49qh6OEUtmYUPxJTR1deFsfSlGL4rFA4ZxeMnmhYBta5Df1oKitmacK8zDkWuX+DmdaiyDfc8a/CFKg77ks0WmcV7v4mUGmY+R09bWDTI/FqahvzgRk5cn4mJ1KYPMxuLLGLMsAc8aJuMB7Vj8yOqBuUd2o6K5gZOELrt+AX+ya/FLwRMT1i3Cxoo8zmV0vLwA8w7vgn/mYrw/PwwvhqjRXzdKMi/8NJDp9pXpNS37vEJk7/m9jvf/6TXQCzJ3MchITt9k9iU51ZMzu9EqgEx2DE4DzIEmiE6BTaxIKDMFmNjkzBRggMFGvgpaGG0G1rLYg22wBlgg2ARYHRbYXTY4AuxwBjhgtVshUKQuqwizw8TnmV3kp0J+Fxo2XxMDBJjJbI1Mp0Q1mxcZHQaYAgQu5LvADul2Ai0BtjDqmxEG9jPQs3mbPcQKS5CZ2yM/Bp1Fw59twRYIDgObsmlpHC5RGgeZhtnJv0UHs9MMW5CF95PZG7VL/hAGJ5kWadnMjs4hHxWdVQuDg8zhjBBcZArnB7XoC4NdB1OgCBqL1uLP+7RWfwgBBlhDzdy23kr+HEa+rymIzOf0MDrJ90QLnUULIYBMwywQXDTvZLbkDzLTMgeZuZBZnI7MoyxamALpeZggBOqhJxMvkwaC3ch9MJGJkl3HGiACHH+bGoYAHYMOXe9nItMyNZvXiWRa5tSz+Zef6AO9XQNzED0PkbfVZCZlUcPo1IH6bAkSoCMhnfxcrBronGoIZKplId8QPx674DTAEmJmQCTooT5o7RrWGJHWiEy2CFa1ZHrlMrCpl5/Dl2GOxkFrg0zbCMbYjFGUzBt1Lj30gTRvIo/VX6Q2tBCCRFjDbDAFWVi75WPyZW2hLlAHf5eaTet8RD/obGSuZoQ+SM+mYNQH8m2he5AmRqS+2fSQfIMIRAysiaPnQt8Batff5s9mbIoppORDpYPRZYQQZGQY19m0bGYp2gz83GkujQ7yJdJAQzDr1IKAmcwARZeJI5BprRqeLzPNm2wiSc9+uv90/O3dv+E7P/4O7n2sH17608uYqJ4Mj8CZmBk1FdoUX/gle2LmnKmYEjEJ3lHeSEyfi2uV+WxaFkF5ZFgjozj738K07HbmMj2PKSDDfjUEM6TpGYJnnB6YkZHK/iVVHa1YcP4ABswPxkOaEd0gQwknfxGpg31/Fq631KKktRZx+zfirdlODIlzYVdJDgrbmlgrMDkzGc8ZJ+JRzUj8LNQXY1bFI2L/eiSf34eFV44hLecodhXlIK+hGgWtjeyEP33VbPxEmIjvmKfAI2MBC9KNXcCSC4fxTlIAHvYdLgEM5UPRk5ZoKB7SjcLfogUsvnIUF5trcbKyAPpNi6X8LOxHROO7ATLH2Ufm303LyEG9gU3LijF8ZSye1AzDjw1jMTV9LnbU5qGiow2ZF47ir3EWKSmo/0e4x+sDfLgkCpuKzqOjqwN7q/MwIX0evimMl/KzCCPxP4kObM47y3lo1pWcx8RV8XjSMPpGuGmKGOf3Nghkpq9MwvGmahS3t+FI/mUGmYdmDMBvIv2w+spxDgBBQHW8oggbrp7D2qtnsOzaaawvOIcjdfk41VCK1eWXMHxdEs/jKy4vLCk6zSBztaYKfhsWsTM/aYL6+nyAQWnhyCw4i8bOdpyvK8HoJXHoJ4zDz20zYdmyDLktdahob0FVXT2KaitR39GCk/VF0G5YgJ8FUDhmOY+L70AO5Tz7+G5cam3hyGuatan4oTAF94njMX55Ak5VF7Np2dKrJ/Gv5BA8pCZt2Qh8S5yM6IPbUNhYi6ttLViRdwF/dGrxjGYifjvXCdex7ThWU8Z9OVdXgYPF15F29iC816Xh5VB/PGCkEN+Kj4xbUlIFbj4rxND35DOYlhm1WjjMFvRGLesV8P/TAv5/y/17QeauBhkKfSuHI1aidJEjPkGGwwDBKcJoE6Az6dlJmvJWiDaKaCVFbCInfpEc+m2SAz858dO21WmVisPKEEOR0QhkONSzTYTZbobFYeE8GKJNhGgXYXKYGCZomzUW7BgtsJmaxWmRImpRRCx25ibwoL5QVDWKlEWBBox8Lpm1CQRj5AhuFVg7JN1L5H2UOJCuMdnJoV86h/pFDt/cnk3g/pnsZinJoNUAo13P/SMgEykIgZWctg0QHQIEm1F2Wtfxfuq/NEeSkzmBHp1DhSCO+kkRupQ2DFYJCAkKCZ7ItI9gkI4rzvDkyE7PwWAzSvspeIBJz+eJdiNDJT0TGjONge5F7RIMEKSxoG4h7ZUGBpueYYwCAdA99TYdQ5WehXfyTyGIIEDV87m0TdCiNflDayJtkgYknBvNOog8Fj2MVh1EuwFaggqCEBoLOc3bCfp0UFOOE8GPAwvQZ9LaUZ94zDR/5HzPfi1+0j4KAmCSziO4kxztddCKWp4DHd3faoRoldaDNJcCryPy8aLACOS4T9fSmEl7RePSiAQXFPTBwCaJpM3jOeDACARiWhjttL4pWIAUgYz6Rvto/imIAQEOtUvPivbRGqNnynNBAS9sFASC/Ln0MFFkNgomYKN1bIRgpehyFCSB5p7mWg2j1cA+ZXQ/GifNDX8f7NL6Ju3mFI8p+NVvf4V+/ftB1a8Pfven32Oq7zR4O7zgFToTwlw9NAlqeETMxATzRHi5fJGWtRRNnW38Bjv68Hb8iPPIUPhlEtTuIMgwzHzAyRpfiTMj/Mg2FLe3IL+lFkF7MvBSmD/6aYZDZaR8IUNYy/CkYxrGrU7A6cZSVLc3Ye2Fw/BdmQzjsvnshF7a3oa55/fj7/MC8S3/0fieYSImrU/FsisncLy2EAdqCrAh/xKWXTyG3fk5yG+oRVF7K443VcFj9Vw8L0zG06bJ8MxIRV5bM+q6gKQze/FaghX3UNABYYTUF/1Qzkz/pDAeE5fEYVflVU40ueHKKQxJCZUSJ/oroPYeHhfIcX8hbgUyz7GPzEG+V3ZdMYavisOT2uH4qTAeMzOSsLs2n0Em6+Ix/IUSYnKwhY/Q1/dDfLQsBuvzz6K1sw37qvMwOWM+viWMRz+/IXjcOQ1T0pNwtqEMNR1tSDydjb/OsaEfJdJUD4SK5p9zxAzA06aJ8FgxDyebarpBxnd5Ah6Z+R7+FG9ExvVT6OjqQmV7Cw6XXMfai8ew9MJhpFw8iAUX9iP1wsdIOLcLxiOZ+HOKE8/qRuMPgd5YUngK5OdyqbIM0zOTofJ8Cyr/fzLQDFgYjDX5J9HQ0YrLjeUYs3QW+orj8FPbDIibF7N2jfyTCsvKcDH/KspaapDTXImYY1vwRoIZ/cjPh5JY+n6Al0PUmHVsBy60NOJYYwX816bgOWEyg9GY5fE4Xl2Eyo4OpOQcwV/mOtHXj/LPDMM3hAkI3b+JgfZKazNWXD+HP7o0eFwzFt9wTMPbqWEI37cROwouIaehirWFV1obsLUwBz6bFuNZym/DgRU+gErfA2Q+D8R8BpDJXL0GBDIUBp/CLiulZ9hl5XN3Hpne8Mu9pm13sSz6ZQNVL8jcxYtHymtxI68KhYclp3dbhB3mMAs7vzPIiFIkJ/ajoRC0JinsrM1mlRIAmk3duVEovDIJ/O6Fgwp0hw42wWq/cQ6db7bLxWGBxUEhkKWwzxY7aYooZC2F0TXxNh0jGCHtDkEU7WdAonDAJgozTCFyJWiia00MWVIIYzrXaKKwvxTiVgIg1hRRaGeTcj0JpQRnFrk9I0fFIvihfZIZniS8khBL+6ktqc8iC6UEdNJ+gT/TtoHmjKFLCh8sbRt5P42HjlMkN4I8CoF8U5FDGrNGStk2yeGSzVL/COY43DGHfZYFfIpuxlHO5AhoFgm2OGKcDH8MASyMy/BHUd8o2hZHHtNBI/izgK0VNNAZ/KEXNHK0MIMUEpnDKBthojZMBqlQ23KhcelEHReOZkZRxkwGGORM9MrccNhik1aCMRojjU85j6KYKfsoIh2HOxY4gAQFkZCepfzs6VnIcEtAwpHOTBopshm3Y+LreYxmAnQpQprUT1rntH6k8NFU0ziU0NAG6pM8b3Q+rTVel3KYaAopTcfpGPWXw0eTJlIOP82hpOUQ1DpRC5pT6VwpRDa3KV8rRfuzwOawYvK0yXj+heelPDJ9VHj1z3/ETF8PqK3+8HZ4QxumhV+wGjNtHpionQK1XYsV69egrasTzV0AaWSeC/aEyovC+tKbZ8rQTtni3UPL0vanmM0oxxleqC1KYCmFLSbBe9SiOKwrvoTy9lYcLL+Cqavm4JsUulg7DCrTKKiMlKxwCPoZRuPPcSJWFpzCtZY67Cu9huWH9mLZ/myUd7TjWlsz7HvX46chajzlOwp/DdEiLfcILjTX4nxtCdJO7oXnimSMnBuN8PVrcTzvGio6u3C2pQG+a1Pxc3Eqvi1OxPT05G6QSTy7D68mWqXs74YPoTIM4hwjKt1QPB/gxbljLjXXsElT9MEteDmQ8sDIUd3ozbz6fYYLfVaa7Ozfhnkn9+EVilr2b87+xRi5aha+rR2B5yn4QUYSDtQXob6zE7uuncPb8XZ+Dn18P8Lj2jGYtGY+dpRcQWtXBz6uLsCY1Yn4lmE8HvMZgVdizAg/vJWd8PNa6yBuWyH5OxHI+BPISH1T+b6HH5gmw2/5fJxrrkN5RycOF+bCe0UiHvEYhFdnC1h99QTfI7e+EqkHdmDi3DB8kODCW4kOvJVowz8STHg9QcAv4zR41D4B3/Qfhj8E+WBJ3nGQ4J9bUYKZmfMlkPF7i/PXvJMaiNV5JxhkLjWWY+yyWbhXHIuf2abDtGkJzjVV8TPefuow0rZnYV/BBfaNyq6+Bv3mNPzUSVqZwVD5DMbvgtWIP7INF1rqcayhDJp0AplJuFcYizHLZuNkdSH7GS24fBh/n+vEfX6kVRuBh43jEbpvAwoaqnCttQkrrp/Bqw41ntSOg8p/OL4jTMRrYTrMXJaA+L0bsSfvEq4017Hmb3neSbwyW5RzydB3Y/ANqLklxCjmlJ9QKxoZ3buczPMvUQZsr7mOus4OVJWUQgIZXS/I3MVy1ZctlPe2//k1eb0gc5d/4QgyqEjCvQCjwwhnnBP2WDusYVYIdhFaQcf5LTi/CicYNHcnEJTM0yhhopy8kJMKUoJHKV+MlXLH0Dbn6iCgoHDMFtB+m93GwEPAohSb0y7l26AEkXbKuWGGaKZ8IlLyRYIJ7ivD0439FrsNAu0zSfssBFk9ijJWHi/nGJFz31BOFZPUL7vLAVegC85AF9+HhFcSukmYJW2MBDIyuMhwRX26UZT7Svt4XNxnCj8t+SOx8KtsE2xRDh7KFUM5dmR4YwjjkNVSvholb013LV/T3SZdz7luKALdjXtRnxXQ4poEaXkcNBa+L+fNoUSo1AfJDJCEatISaIwaKQcNzYEowQuH1TaLsJhvJJpUElVy3htqRy7cPx6rNA6lb3yck65SDheaA3pucv4Xt+uVdrprt5w6N60r+RpeZ8o5PLdSu91tK+uQzuc5k+se9+xerz32d1/jdj+lHzQHSj9pX/faV74zbt+Nm8Yr98lE61wu1A59PxxOB6bPmI4Xf/liN8i89vpr8NOoIToo8h+Z6Omgtug48pmnzheC04I1GzL57XtjVxdCD2zE94I9oPJ8R3r7TRDDIEPhfb8AzBC8UMhlP0o8SeGBB+LnTg/YNq/AycYK5LXUIe3kTrwZb+UAAJSVneFJzuCuUn+E79mmwnZoPQ43lCO3pQF55VW4XFqG2i7gUE0ppmUuwDdNU/Cs3xhMnhuKfaU5KGhtwP7CSxBWLcDLog9+QZEJly7AwSuXORLXpbZWaNMX4wXTDDxumoCp6fOR19bCWpKEs3vxuwSzZOKmJyGU+j4IfYTR+FuCHdtLLnNkq+2V1zE1IxmPaUZB5UeCLQHPYAaZp4QJMGSm4VRTFa62tyPp1H78PkCNPjLIkBaJzNj21hdj1OrZMsiMg1f6XBysK0RTVyfOVRZh+ooEPGYei8fUI/Armw8C9mzCiYZqtAPYXnYN76SE40ndePxQMwnjFs9BZuFFUFSwfRVXMHpJLL5BcEiR1Mh3R/8RVPqh6KsZil9aZ8K8Og1XWilKF7C/IBfTlybgQc/BeCHYBwvO7WfTrgv1FYjdtwl/dvjie5ox6K8egvv9PkR/zYforx+KPvycBpqAXxcAACAASURBVONh/6H4fYAXll0/zsEbrpQXwZNB5p8c7pn8WghkVuWd4BDY5xpKMWZpLO4VRuPnthmwbFqG001VON9cjaTsdfBJCkfUjjU40VCG3OYaZOQcwKglUQwifX2H4Y9B/phzeAtHrKOko7rMVPxAmIS+xjEYt3w2TlcVoL6zHUtyjuCfSS70J5DRDcfDhnEI3bsexfWVyGtrwoprp/GKzQfPCJPxmHUKnrZPwzPCBPxUNx5vBWkRvHkl9pVfQVV7E/bUXMVbKYFQmclXhrQxCsgo3wt3uFfyJr13cyJZghelkM+SYSBU+vfQTzsUf4kyYntNHuo6O1FVWoasNWshaPVwmG9oY3oTYn5+wbRXmO+ds8+zBnpB5i4HGVoMJHSRFoLeJuvseljIyT/CzOGQycxJxxoQygUjQc8nLSB3gY6EOoKZbmFOhhklSabNZgMVa49id1CWcylRp1ILIr2xJq2PVEjwF0wStNA51IZyLtXKvp5t9/ysnEv9pntExURhwaKFWLl6JdcEMwaRtAdkEqQAgKQFkgRaKeN9z3Zv+my339Q/hg0SeEl45TmR+qv0ha5Vtv+3NYOnDDUKQEjgcgPg6B5Wux0OhxNmy425JEGbtCWUNJK1ErJWRMpmT1nupWKzWEBmEDaLFWQG4b42btd/5TxeAz2uU4593etbja173d9izJS9u7tYLaCM3pS1e8bMGXjppZckkFGp8Prrr0Oj0cDmdHCCUsrlRMVgNUNt0MHqciBjwzr2h6jv7EDw/vV4JngmVJ4DZHMkAhlFYFPylShQ4y649dweJGlgCGQo6zxBDPmQ+AzEP+IsSDu2G5dbajl6mHF9Kn4R5MWmW5ztnUIJ64dIjtU+g/CIdiTGZCRic00eyDG9owOoa+9ETSewPOckBswPxb2aUXhWMw5T54bhcGkuClrrcaQkFxFbMzAgyoWhCxKQeGgPzleXo7QTuNzeAU3mMrxg8cDjlomYmjGfhfqqzk7EncnG/0sQQZoLlZ4SeP6T/V4edUzG+NVzcKaxgkFmwaXDeHNeEPr4ECjIfhMMMgPxbWECtJlpbPZ0ua0Nc07tw28D1FB5DsL3gz0Rf24vajs7kV1XiJGrZuPbupH4iX4sZqYnYl9dAao7WlHa1ojUcx9j8NJwvBlhxLS0eGReu8A+KOXtLVh4/gheDtfhEc0Y/N6hRuDWDBxvrOKoW0vO7sMbsSZJw+VPuW8GQWUagR/HavGHeDNGJIUh+eNtKGxvRVUnsDn3LIYnR+Ber8F4QhwPZ3YmLjdU4mprE0dH812bgjfjLHghxBcvhvniD7ONeGOBCz+IVUNlGYkH/T7Cb10eWJp3HDkttbhQXgAPBpm3JYj1fBdvpwRged5xkE/UmcYyjFoai37CKAYZ86Zl7Otypqka4dlr8X6YHkMSXFh07RguNFXiYl0BIo9vwe9nW/CoehReD9Ig/tBmjmp2pKEU2qxUfF+YiHuMozB6WRyOV+Wzed3i3KP419wAN5AZi6CPs5DfUIFrrY1YcvUkg8wLTm+8sTgCw9bPx4AFIfhLqAaDIkQEb1yOvaU5oFDY28su4e9z7ZK5YU+QYf8o5TtAa/0zgAwBPoPM+zLICDLIdKG6tBxZa9IZZOyWXpD5uv++9/b/5r/3/5fnoxdkbiFw/F9+YJ+nb+7gwRnQLQInwdQ6DdC6yOGffDUEkFaC4IGF3tvMR3d7CrTwG+gbi939eLdA1wNkSAsTGBSE8IhwRERGIjQ0lN9M09tpekstmkSYLRaGIOqTw+lEaFgon0vnh4SE8L6bYKLHPaRjktDO/bDbuN3lK5bjzJnTyMvPw9HjRxEdG83R1gyCXjJjoySf3UXKHH/r+1DbUvvKcUWovxnsboYY5Zw7V0vaDkVL0LOWngcBCEGlHWazBXYbzX8gwiLCEB4VhtCIYE5oKtAakM2l3CGmJ8h8Fpj5PGv0v+ncboiRgYbW5u1AhqC/W0PHiWnN0Bh0sLkcyOwGmXYE7V+P7wbPkEHmfQlivhDIyD4ZBDKUcZ60Fer3ca9mCMYtn4XsgovIaalDevFZfJgciKdM46HiXCgETYpvDuVkGcRagL/MFrG08BSH5+0COKpXXnsbHLsy8asQLVQ+H+Jx9SgMjLZgXe4JTmR5raEC+wpykHRgJ1ZcOo295QV8z+vt7bjQ1gnvzCX4mWUGHreMx6S1c3G2qRoFbU2IPLkdv04wQuX7rgwy/+Ltn4V6w/pxOr/Jp7w2zj1Z+EW4Bio/Mr+jIvtN+A9kGPDOTMXe+hKcbmlCzMlsvBTgy2Gtnw72QOSZ3Ryha3P1NXy4MhaPaYfjGe1IjFszC9trrjGIFbfU4UD1VSw8n42UQ1uw9dJx9tsoaW/BofI8+G9agm8Yx+Ie3yF4K86GJSf24kprEy4018CyeSl+HugNKSzzYAaZh50TMXnnEsw+lY2lpw/gWHEeCNwoyljy8T14PUqAyucD9FF/hA8Xx2Bl7mlcbm1iwNtbeAULT+5FxP7NiDu0FQvO7MXiK8cxfnMqvhU6Aw/7fIiXHTOwIP84zjTX4FBFHqZmzYfKizR773KC038uCMKivOMobGvEkboiDF0ajXvEUfipbTqETUtxpLGCfZcCs9fgj04v/EScgplbFmFrRQ4KWqqwruwipm1djB8YJuGNYA2iDm3iHDJ76orgm5XKmpQ+xpEYtiwW+6sp+lgrUnKP4M0kFx4gjYx2GB7Sj4YtOx0XGspwsaUBybnH8IrdF38I1sJj92qkFZzB4osHMWffeizYvxk7c0/hfEM5w9m8s3vxmyidBNkaeZ2yv4wchIBh5rNCDGlmbgaZ16NvgExVaTky16TDqNXzix/FD+Z2da+PzA354b/pb0HvWO/sc+8FmdsI7l/3xcaCLJvDkPkNmUsJbKria9HAhyJKKRG2zAJDxJ0crwIyPWu6R3JKMjZv3ozs7Gxs2LABcXFxLNCZzWaYyATMauW31WSGExYWhiVLl2DXrl1cli1bhsjISNYMUNu36nP3fpvUDgmLBqMB6zesR2VlBYdBLSgqQEJiAgvxRsWkSoYYi2wSxW2TiZysXVLapXlVjjHQuK8hAhz3z1/itvJ8FbOvf6tljZDVYoWFitnCc0fzuXnLJuzYtQ1Z6zMQGRUuJTQ1SX4fBDIKwPT8I3wrzcxXNd6v+30+L8iQ2Zm7po22tQYdyDwya8M6XsdkihO0fx2eDpoOlSe9SX9PzpnxeTUybj4BejJpGgQVOcL7vIenLOMhbl+Oi/XluNxSh7gzu/C7cDUeIN8YAhgWDAlkPoSknRmC/pqh+L4wDtb9Gdhdfg2FTfU4VVeBLZX5GLF0NkcdIwH8Ad9heFGYCtfOtdhWloPc5mrkNNfgfEMNjjZWYltRDjblX8SOqmLsaKjG6FXz8IwwCY+IYzBkRSy2V13HgdoimA9l4ReztVD5kl8PaWQGoI96EP6RaEHqlUMo7WjHwaoCTFg5B48qpltktsWRqyRoeMQ0HuPXzkVG1VXsrK+A/ehW/DTAm308ngieCfOxTThYX4K04jN4awnlxhmCxzXDMHBZOBYWncSe6jxsyDmO9VePYVvJWZyqLUBhSw0KWmpxuLoAMQc34Y1YkZOD9vH7EOOXzUJ23nn2T9lWcQVDk0PxLQtloR8ClUbSoD0WMBmWk1twoL4U55pqOUobmdNtKb0K9bpF+KFlqmRO5/M+nnN6YHpWGlZdP8f+RvltBEi1OFFfhdMN1bjUUoezzXUwHsrCD6L98KDPYPzMOhlhF3ZjW20RskouYWTmXClqmfo9jjj2WqoLMZf3cu6ctYVn8XZaKFTiSDxnnwrP9QuwuSYfWVVX4Lc5Dc9bp+F+36H4dawRwSc2Y0/5ZayryoX99Hb80uGJPwT4wZS9Futr8rCq/BLGrorH48YxUBmG4d0lEcgsu4RTzbWIurgXf55rRz8K3KAdwoEmfLYtw/aKq9hZV4qwsx/jRZMHfuP0g2/2WmyuLcDJxnKcqCnAuboS5DZX4VRTJbIKL2LK6iR8zz5dAm4CGZ5XWTvZDTFupmOKCdkn1jdA5l7tUBDIbK3JQ21nFyp7QeYr+9v3df9b0Nv/Oysn9YLMlyho/qcXq/RGXvJt6QYZixYalw5ql5Yjl5EzOPlL0Nv8L7W/MhCQMJeekY7r16+jsbERpWWlyMzKZE0LQ4xFggSCGjp3/vz5OHr0KOrr67ns3LkTsbGxoOPUX6qpiGSeJord++kYgYfD4eCiN+iRtS4L5ZXlLAAWlxYjYU48O1uT4zbNj5l9OMiPQw5uYDbdNCcK0FC/lLlShFMFctzPEQRB6htrmW7ML42T+kr1Z5l3Oke5hjVW8txIQCX5K1Gfu839ZF8NBbhYCxMYhLjYOGzbug2XL19moKuqqUDu1ctInDcHVopQJxrZgf12IMNmZnfxd0Z5rl9GrawVpaa1cjuNzOcBme/8r0FGNrFhbYxscuX7PgcQ+GOsDomndqKkrQFH6kvgtWkhnrVNhkpNAQVIKFQgZrD05tswDPfqh+N+n8H4c7yZI0dFfLwRhm2rMG3bUjwfqpYinfl9gL7+w/C47wj8Y5YNuh0rQU77aTnHkXH9EiKP7sTMNSkYuywR0zcvg0d2On4zy4KHDWPR1zgKv4ozwnPrUvhtX4Y3l4TisSDq07ty7pX38Ix5LDzWxGNH9VWO8rX0/CH8Y46Dk2Sq3N/Ok/ZK8wHuNYzC7+LNmL5zOXz2ZGDAijg8bpvCkdjut03E35dGwGf7cozYMB8/ivZnP5b7tEPxQow/hmVRHxdi5MJITFgeB2HXcqSc34f0qyeRdv4ADDtX4O+JdjxOuW2838MTpjGw7VqJy7XFONtUiVlnduP/Bfuhn2EUVAaKOkc+HO+jr2kkhqxLQsLZA1h25SxWXjmHxNMHMHPjIrwSbcR9/kMleCWA8/sAzwV5YdCyaDgOrENa7jEsu3oGS6+cxeKcU1h48RgSzh3EoNWz8YRrKvr6Dsbjwmi8syoGM3etwLRNi/HrRItknkgQ6zcIz4R54f3VcfDcuhjjMubipxF+/IwfFkbj9UQbpm9bjPGbU/DGHAu+KYwF+Uf1F8fitfkOTMqai8lbF2LQ2nh83zoVz1mm4h8pQZi4dRHGb0zFb2IM6Mthsgfj+WgNpm9aBGF3Bj5cE48fhHjJ64tAeSheTwmEevtK+H6ciYFr5uIJ/UR8W5iMNxaEQbs/C4nn9mNpzjEszzmOtAuHEXJkKyZmJON5lzfup1wyGppTAm3FxFLRyHwWczJ30Lk9yGSsSYdB1sjQS5+eL4J6fu7VyNxZgfbL+N3ubfP//jPqBZm7XChT3trf8JHRwRxthhAlQAyhXB1SFKvPIlD/r7/QNisL8MuXL8e169cYKLq6unD8xHHWyihwQoIeCfok5GVkZKCkpITPbWlpwbp16xh6RIHAw8ywEuAKgMvlYmChOiAgQPJFkP0QqN9Go5FBpqyijNsqLS1hkLE7bQwxDHqynwiBjSgKMJnEbmChNhhSrDaGE0UYNckgRZ8JNug8pQ9Oh5O32cFbPkbHFd8I6jeBFl1H19MxpdC9aD5ov3I+tUf76Ro6j8avwAv5vCjb7Lsk+y/R+eFh4Vi6dBkOHTqMqsoqtLW1oaurE+0draioLsPc+YmskSHNlOIj80kamV6QufGMlGf1WWtlzSg1PZtPBRm3oA+308jcGZCRHaA5RC35aAzGIz6DMWE1JUU8x8kU0wtO4+9zrLifcrSQs3z3G275bTdpZchXRjcUffyH4gHtSHzf5YGfBfrgO6ZJeCrIgyObkZDMPiraYXzO48bxeD7UH3+eF4B/LorCW6lh+G2EgGfIjEyYwgkwn7RPx4OmCbiHhf0RuE8Ygycsk/GkeRLuE0beCFVMvg7+g/BatAZx+zNACRovttTBum0lXgjzlbVINNYeEOY/hBN6PuGYhicc0/GwZRL60L3knDT9xDF41Dwe/U1j5WzxQyRHfGEE+ouj8Q3TODxqHIMnzRPwk1AfvJbkwDtpYfhrkgM/CPLEA0Y5wIDve/hNtBrzz+9GZVsdPq6+jmlZyXjcME7yMTIQGMoBF7SD8N1Qb/w1KQj/WhiFtxZG4pV4G552TMd99AwotDGFZ1aTfxRpogbhPmE4ngmejr8sDsLfloTh74vC8ZfUEPwpyYXfJdrxbQpHTGOiUN3aj9DfOhaP2SbhSetUduSX5oWi1ZF54Uc8t4+KY/GIMJrHy8/cfzDu14/AN8QxeEQYhf7UFw35SJGWawj6CiPwkDgKD4mj0V8YjXu1w9FPOwL9jWPwDdN4PCqOx336EdL6YXOtYXjcNBFPmafgEWEs+lAACRobaU10H+JB0zg86/TE04HeeNQ+HfcaxqGvfiwetk7FjyO0eC3JhX8uCOPy1yQXXorS41u2qbiXchxpSHNIfZPBW4nmR22zH5g7qHzadi/IfNbfu97zvvjfit65+3xz1wsybsLj3bp4CGZIUGdnf4cOtjgbRMpEL4PMV6KRkbUnpKWIj4/HsWPH0EEewADyC/KRmprKArsCMwQyZFZGJmWkjens7ER+nnyezQ4ylyL/muTkZKxetRrp6elYs2YNVqxYgYULF7IJFfndKIBgFIwMQRUVkmlZSUkx4hNmd0dfCw4NRlRMJBdXgFPaTzBgtyMgIBAx0TGYPWs2oqOiGZQIYMgELjQ0DDExMXw/EkrJnydpXhJWrliJtWvWYsXyFZgVN4uvoePkG7Ro0SI+tnZtOhYsWICw0DAGE9KcOOyO7kJjjIiI4LlZtXIVj3Pp0qV8/axZs+AKcDFsEXApwGo2m9BdGHQsmJc0D6dOnkJTUzMqK6pQU12DltYWdHS1g7QyBDIWinTGGpmbnfx7vkHsBZnP9wPr/puiAIxSf2aQ4ahvUgAHMi1zuJxYt2E9f3fI2Z98ZJ5mH5m32ael21yKBXUS1pVCwrvi3NyzliGGzpWjnt2jHYLvGkbBtHcV9tTm42xjGcIObcAP7VOhImd0FjSV65Ra0c6Q4CjlAemjG8EJNTncsXmMBDCUI4Wc2bVD0Ec7HH21I9HPMAYPiOPxsGki+uvGoL9uLO7Vj0Uf/RioKFeNZihUhhFSoksSxMm0TSclvWStEAnEJNRrBqKP+gMMXBiIpZc+5lC/G6qu4qO0CDxhneA2B+4gQ0LuR9I9SMCmQm3TfXRSPho2+WJBnSKJ9Sj8tp/e+FOghSFQGYbjPmEUHjKOkoCDI7tJc9bH9328uzQEK4tO4HpzJRZdPYI35thxD43Rn7Ra1C/SFNBY3ue2HhYngMqDpvHoRwkeef4pb9B7kgZKS+e+IxWaA+0g3GseifstY3C/eSzuE8egr2Ek7qH5I+CgqGhsakXPgJ4ZQRmNmSCU7i+HpibNEMGqe6HnxuUD6Vl2f6ZgEbI2j9uQ55cBQjY7pPYZKsh8juD3Paj835ZChfN8j5COc5sEpDQWWqt0HfVvJFQ0fvLPIg2QOJbz2jwojMfDwjg8KIzlBJj36kdK64PhSjJRk0BGhqPu78EX1ci8B8m0zMimZTWdnWxalr5mba9G5r9ApnL/Xe/d/uJ/E+/U3PWCzF38pWPhlvwkWBCSfGT0dgNM4RYYQgQYAyjho5Qb48vWyJDwpphHkcZk06ZNqKmpYWGsqakJWVlZkqaFhHL53KS5STh16jQ62jvQ0tyC/fsPIDIikgX9+NnxWLduPc6ePYeC/AIUFxWjsLAQ165dw7lz57Bx00YkJMRzeFtydicNzvp15CNTxfcsLSlCfPwsDocbEhaGFatW4sChA9i3fy9SUlMQEBjAkdNsNgdiYmdhy5atOHL4CHbu2Im5iXMhCKQxCsCSpcuRvWcPsvdkI21RGtasXYNDhw8xdBUVFSPveh6yd2djwYKFmDt3LmuFLl26hKLCItDxC+cvYuPGTTwuF2lo7A6Q5iU4KBgJ8Ql833PyGGl8BHM5l3OwJ3sPQ5DT5YQgCt3R4+g5sibHbGGfGPKNSU1dgPPnL6CkuBR79+zD2TPnUVNbi86uDlTXVCJp3s0gQ9qYXo3Mnf9xVgBGqT8LyCjR75Rap9fD7nJi/YYNvI4bOjsRvH8Dvkvhl9lJm95gk2Cq+K6QMKkUBTY+oVbMxEiwZcF1CL5vnQBh/xqsKDqDRTmHMGp5LB70H3ZDgP238M6KYHzDX4Y1N96Svw0nzux+M04CMpn8kKBJQELtkoA7FCoSRCm7vX40VGQaxMdpP+UWcYcL2iYhl9pS3qZTkIIP8O7SUCSc24FF+SdgPrkFvwhT4x6CEj6PhGM3QZsAhUGG+uMmbNP+7iKDCvsF0fzK0Ma+QdSWPK8sxFMf3oPK5x2ovN+RtBt0XD0I9/l/iMFrYzHnyn5k5Z+Cbs9qfDfAQxo/gxC1pQjYknZJEvrl56KWAYaEfCoUYc690LVkGsY+IAQkCnjIWhZ+znKeIdZKKM+MnoPbfj4mA2/33MqAQ+1ToTGSJkjpC5/n5m/F46A26B4EOfK88Rqj/pAm6X+kZ8IQRdBI5xDgDIDK/18SnPH5ZEY3mJNrqgy0PijxqQy29OxIw0SR6Nwhi2GJ5k2eO+qH+7i655mAsEe/b/mZwi/TfL+LezUf4XXOI5MHBpmSMqSvlkHGLEV6vNWLIPd9vaZld/539k4Jx73tfH2eTS/I3O0g09PZn/JR2DXwtvjB30JZ2vWc+O+rABkS4BRzqcVLFiM3N5eFMTIv279/P0jLwH4uJjNMook1EPn5BXxOTU0tVq5cxWGESTuyY8dOhpfWllZ0dnSirbUNra2taG9vZ21DcUkxdu3aiYQ5CRy1yySYsGHdRlRXSvBUXlrMIEM+J/GJc3H46FE0NjWirr4Om7dsZm2Q3mCEze5E0vwU5OReQVNjE8PHmjVrYTQKCAgMxrbtu1BaXoGa2hqcPXsG165dRVVVJfenq7MLFCO3sqKSNVAHDh5AXt51NDQ0oL29g4+1tbWjuLgE6WvTERoSyk75ZHKWlDQPR44cRVlZOVpaWrm95qZmtLe1M9iRidjBAwcxJyEBJlHSyEiR1G78+HC0MqsNs2fHIytrHdauSUdCfCKyd+9FdXUNutCFmtoqzJ8/FzZKLCoKtwUY5Q9wz8hlvT/4N+b8dnOhAIxSfxaQ6RnhjkDG4XJ1gwzlkQk5sAnPkk8BJ8Skt+JK+GVZsFYE7NvWslBP1ypv33VD8aQwGgMWBmF8RiJGLo7GSyG+UPm5ndMtFLrdS3krrwj61B5pb+izQc45w4Ip3ZPakiGCgYFgYQhUwiioxDHS23eCGn5bTyAjmXNRbhVJe6C0R+2T8E5FMlt7KcYfo1ZEYVj6bPwpxYUHybGcBV1Z00HnKUK9cu+bBF9ZAGa4oH5Rf6ncaqy0jwT29+WIbyTok9/K2ze0CjQvmsHopxmC38UbMSo9HpPXxOPVBDP60hgZ0AicZGGbx0Jw5iZgEyhQu4r2hbU2NB4K8kAQKxd3jcNNAjkdl7VuPA6lbXnd0HwQCNBzpULtEVR034+2CUCoH2TSRhHOCDgISKgQtFF/SJOi1DIkuPeN26c2/gWV+k2pfQZwWrs0lzRGmrt/SW3TMfLJmvI/UA17FaqZdB9KfEpgS2tBXpM8JgXeZHDj8dCY5OdG93afHwXSeJ7cj8nb3Fdlvwwy2nfQV/Mh3ojUY3v1dY7IVymDjF6jg9VML4N6fWRu93vYe+yz/d3onadPn6dekLnbQcZNI0OmZf5mghhfeJi84GdWQ0vZ1k0GTlb4VX5hZs2ehY/3fAyCGPqXm5OLxYsXsxaBIIa0Ert27UZdTR0ICAhoZs2aDdJaEEiQ8E//CGSuX7vO2pLDhw4jLy+PfUDoWElpMUOJy+mCKJiweeMW1FbV83UVZSUyyJgwP2UBzl+8yPvpv927dyEiIhw6gwFWuwvJqWkoLJLuV1NXhw0bNjLIOAODsSt7Hxoam/na5pZmVFdX4dy5szh+9BgK8goYOghm6hvqUVlZjqKiAlA/z54+h5rKWoYZGh9pXeJnzeY/gGS+tmP7DtZCUcMEQqdPnca+vftw9vRZNDU08nVlpWXYsH4953exmCV/IYfdDrvN5lbsCAoMQnh4BAJcgXA4ArFjezZqa+u4z7V11UhJToKTknWaJJBRNDKfVEs+OJ/+4/JVrqevw70UgFHqTwcZ57/lHOoGmY0bpTXXBYQf3ILnwvw4GhYDQzdIkPDlJnR/6rYs4LJwTyZOQ9HX/yM8IY7FdywT8bQ4AQ+RzwiDhyLQywIeC7zKtts9FaFZT74zsjkWg5YMBnQvFp7lmu9Nxz6S/FCMJOCTtoa0JLT/k9oh4VUW+mUNxAPGEXjaMh5PWiegP0ERmVOxSRtpEBSNhQwzyht7fpuvaDBk4Zf7pIzXbWw3zSeNnaCAgELWkBBwkGBP+znxJrVBWoPBeMg4Ek/ZJuIZywT0J5Mu0iawZom0ETJIcB9pTDI0uIMDQ4MbOBBYMPjIAHKT8E37FMhT1gTNtzxnDB60n/bR2JU26Brl/gQOBBfKZ7c+0X5lrNSWUhiy5PO77698VkCIzCH/KV1P46b1QpDRDWgydBKweA2CauBvoPr1k1C99/+g8hoI1vBRgk8CXH5O9HzkZ0vjUJ4nQ6v87G6aGwXklFpew92go8yFXFPbnHD1HUkjE6HH9sprqO3sQHVJGTJWr4VOq+NQ92QarLz8+aS6VyPT+3fk6/C36/96H3tB5i4GGVp8iu+EYKZ8MQZorBrogg3wD9RC59RBZ9FCb9JDpEzubgn7vuyFS6Zb5PdBWg76RxoXMrEi6DCZzIiKimazMtJYNDe34PDhI+yrEhsbhyOHjzIgkCbm6tVrrM2IjYllXxXylSkqKkJbexva29tw+sxp9jMhU7AtG7eivqaR7yeBTBznz5mXsgBnz5/n/fTfzp3bERERBr3RCKs9APNS05BXUMTHYRd30wAAIABJREFUq6qrkbV+PfQGAc7AEOzcvQ91DdIY2tpacfjwISTPn4fZcbOwecMm1NXUdjvWFxXlY/PmjYiKiERKUgrOHD+LtpY2brekqBgp8+fDYbMjZX4yrl25yvvJpO7Avv1ImjMXYSFhmDtnLi5fvMSamfbWNpw4dgxBgYGwkjkYBRIgiKG8MRScwGqFg6GG4MbOuWScziDs3PExamokkKmTQSZABhklh8xtayX89F3+3bnT3wH37xdtf2GQcTi6NTItXUDEwa34YZhaMrkhjQMLhIpgTQKamzB2k/B9K6FcFmb57bWskWABeyj6sF8KAQXtV65VBD9FEHSrSWBUhFMGGtnkjd+8y/1U2qHjtM1vz2WBn8Mjk4aC3rbLZkMsrLqbztE1pP1QBGsSlGUBls5lQKHrlTboGAnbdL5sHtUt8Cpv8JX9n1ArgvAta2W+6VrSWMj3UgRj7lvP/rlpfngO6FrqnzImuR1qi4uc54W33cdxi/5yHxUgU9aB/JnHL2tVbpoPpR23+ytw0l2TSZlcuvdRW8o+d2BRxnKL9hQg4zYU2JIBiueM1tmHuI8CJUweANUfvg/VN1VQvfBNqCb+U4Jc43BJM8PPW4ZAmkf+7LaelbXm/tz4HsqaVdZyj/qm8xWN27sM+a9H6LGt4ipqO9tRUyyBjFarg8lsYT/OTwIYZX8vyPSCzJ3+O/Pf2F4vyPyXCGMU1YryyOjsethi7RAjTTAEGaG36aE36Vgjo/jUfBVfBBLikucns88HSexkMkU+MAQwlLgxNSUV169eZ21MRUUlMtMzIYompKUtQm7uFRbymxub2cSMwgpTZC9y7qccM2TCVVcvAcTVq1fY+Z5MwdZnbkRtZQNfq4AMJd9MSlmI0zeBzDZERIRCbxRgdQRiXuqim0Fm3TroDEY4A0KwI3s/6hqb0dnVifLyUixZsgguFzns25E6PxUlhUXo6GxDY3MNjhw7iJjYKJhFE0ICQpC9bQ/qqyUNUXlpGQNMgMuFVctXoKaqmvtJILRjyzYkxs/B7NhZXJ88fhJtza08NzmXLiE6MvImcCF4UUBGqemZUlJMBpmde1FTK92XQGbB/CQE2MywiEZYLSbcFmI4TPfNEda+ivVyN9zj84IMBYfoOW6D3sDaSvL3on9tXUD0wa34cbAvVN6S0Ce9fSdzHtm0R3mLzrW7sNhzWxF0lbfP1B5BhQwWBDCKaRULd4oAKAueN93HzedAEQT/DaIUgZE0FvK2u1aBzmeBtEe/qD1+6y73n4RgNmmSzZpuKZS7CedsDqWc6w41isDtplVwF9K7t5XzPqFW5qG7X/QcZMH+39qQ+6XMkTtcKP3ksbn16abP1AdlbLeouV23ebzpXJq3HiZh3f2T51Tpg7Jf+XxTH9z6ppx3q5qvVe7Xs5a1V9yuov2h9UUg8hEe9B8O1cBXoXruQaj6qaB6TAXVO7+V1jz5yRDMKFo1BWB4vRIkyjCjrD9lrpVagczb1d3nyto27bvs7P+XaAG7agpYI1NVVIr0VWvg76+FaKKgKb0amZ6/X72fe8Hty1gDvSBzF4OMktGdaoIU0WKC3mGENZpAxgwhSITBZmCNzJftI3OrxUvRvA4ePMQCOZlf5VzKxeK0xewHs3H9RlRVVaOzsws5ObmYMycROp0e6ekZKC2VQiiTFmf58hVsOkVCIo2Bcm9kZmWgvLKMNSEFhflYumwpDAYj1mVsQF2lpJGpLCvGnIQ4mKxWJKUswpnzF1gwpP927rwBMhZHEOalLsZ1d43MunXQGoxwMMgcQG1DE9o72pB75RLi4+MgmowgU6/E+EQU5hVwmOPa+grsyt4Gm90MURDgtLmwY+NO1JJ5GYCK8nIkz5+P0OAQrM/MQotsrtba3IrLFy7h8IFDOHbkKA4fPISigiJ0dXSyeRlpbmJjYljzQloZghjWwpB2RtbKEMzQ87dabXC5grFr5z7U1klARyCzMGUegm0W2Ni0rBdkbrVW78S+LwIyip+TUhOQk9YyKzOL1w3F/Zt7bDd+RdnqPUjIIn8TEm7Jb4F8DKgMcPNxUOBGzrdCplC3LW6wQvDApcc1N5kBubXPfhI9znW/F/XT/TNtd7fl7gfyKds3jbXneHtce6tzlfnhY7K/xx3Zdpv/T2qv2/fErZ98rnKtUrv3q8c+bsMNlhRo4lqBVfe5VZ4RAYPSFtW3uof78Vttu19zu226lvxdPkMhUzO/t+R1S3A2GA9MeQeqV34E1SMqqPqooLpXBdXL34Vq7N/Rjxz/BYpoJmvvFIBRagVkbqWRUQCFagV0bleTiaBsOkjho/8xy4q99aXs7F9aVMJ+nb0g0yus34m/F71tfPZ11AsydznI2G0OfhNPTsOUh0JnM0AboIc6QAOdQw+91fDVJMS8xTxT2OE1q9egUTYvq6qowrZt2xEdHYNjx46zkzsdI01NYGAQw8jGDZu6I48R6JDmhvxpKIgAgQxpZZatWIrCkgLWhBQW5WPFyhUw6I3YkLkJDVWSP0tlWdENkEldjLPnb/jI7NixDeGkkRFE3BZkAkOxfc9B1DY2o72zHZcun0PcrGiIJgM7zc+ZNQd5166jvaMFVXWl2L5zM0wWI0TBCIfVie0bdqCmQgKZyooKzJ83DxFh4di8cRPIbIz/dXaxn1B1RRUa6xpQW1WDhtp69p9pbmxiM7PY6GjWwBDIkGmZopG5CWRYk0IgE4JdO/ejtk4Cuoa6GqSlzEOI3Qp7L8j8mwbkTv4x+bwgQ8DS/TJCNg0kE0mXM4DNKQnyycNs+fnD+J94G/p6kjBGJlRk3qP4HpDgSOFtFZiRhVjS1vSEiC/8WXbs5jZ7bt8CVm51Hx35ltC15FNCQj3193MUd4H8dte5n6dsu5+v7Pvf1Ep77m3cbp9yTKndr/u0bb6G5usTQEaBT4YaBWCUWp7nT7vHHTtOa5H8YT6lUBQzvzehUlPEsvekfEUD/wDV9x+WAEalgorKU/dB9fbLeMBP9qfi/EUKzMj+VPx96KGRUUDFHWK6QUbRQMo1m0S6hZSmHEsUHlv3Ab4hjMPAxCAcb6pGXWcXiguLOSANgQyZR/dqZD67IHonf2d72/rvm/dekLmFgH23fBFICCKQoUJjohCuWrMOXmYfeJq9obb6Q2ehqGVGhoCvetwEIBRGuaCgkLUyra1tOH36DJYtW877yAeGnPqzMrLY3Iy0KuRor4RQpkAACxcsZJCh0M4EMnaHHatWr2SQae9sRV7BdQ6LTCCzMWsz6mWQqSovxpw55CNjRVIPkNm+fQuDjIFAxhmMxOQ0XLuVRkYGmbqmFtb+5ORewKzZMTCZjawNSZiVgKu5V9DW3oyKmmJs37kJZqsAo0EPu8WBreu2o7pciqJWXVWF5HnzEBkeji2bNqOzTcqxQ/By7sw5HNi7H0cOHmbNzMF9B9hv5uPsPcjKyERIUBCDkxQl51ZmZVIIbrPFCpczBLt2HUB9neTXU1dbhbTkeQixWWEj0zKz2Gta9iX9JnwhkJEBhswCqRDIkGaNwnnX1zcwyGQX5WD68ng86UuhhUkjQz4Y8tt2d0GXAUI2jVEc0r9orR94IzrXF22DhGz3a7sBpycM9X5mM8FbgiLNDcEizSVFGSONwa2KbI73b/P9Vc2tAqcE1Z9SCHQIZPwootm7UE37J1S//S5U3+gjaWMIYkgr8yBpZb4F1bh/yKGYyemfEnJS5DO3wpoZNxjhgAKKL427GaUcbICPu51P4EIAQ4lKDXKwCd1Q/NTlBf+1C5DX1gLyVcs9fwnJ85KhVvv3Ovt/Sb+hX7WM0nu/rwcU9YLMXfyFU0CGBCBFI6O16qEJ0MHP4Q+tQ8camf8UyNCPREhIKIcZJod+ksoo3DCFHW5oaGS4OXfuPJKTU/gNl2JaVl5azsoK8pGhpJIUrthoNIJCKQcGBmDrti2cH4USPuZezUHi3MRujUxdpSTAVxLIKKZlqYtxRtbI0DvuHTu2SiAjmuAICsfSVRkoKpUSabKzv2JadkdARvKFqa2uZo1MWEgINmSt6zYtqyyvQGZ6BiJCwxEWHMp1ZFgEqISHhiE4MIgd/c0mMgmTHf4VszKL5PBPUcYoSSb5GDkdwdi5Yx/qZJCpqixD6rxEBFCwB6MeZpMAM+XyMd/GxKzX2f8LaW7uBMjQMyTzsrCwcPYVa2lvR25jFebs34RXXd64X00Z0Sm/B711J+2GHJaX3kIrkbP4jfKthN3PsU9+K31TAsSeb68/z2d+Sy6H+1XC9P5va0UbcTfX3fAiC9usMSCtwS0KPw/3Z6yEV1ZMBr/s+lbmbYp2SKlljRyblw2AyvddqEa/DtULj0H1WD+o7lNBdY9K8pN5pA9UP30IqkG/Qx+K/EaRzSiCGYX47i4UKY/gw20+lGATPdcnnyOfy+dQUAkZaBSYIUDyH4KHxAkYmByOVRePo6kLaG5vx97tuxAaEAx/Pwlk+O+v1QYHvVCUf5N71r3O/l8PQbkXaP5vP6dekLnLQYbf5Lr5yBgcRthjnd0+MoJdimb2n/CRoR8HMp/JzMhCZXklwwk5/VeTb0xHJxrrG7Fn9x5ERkbxGy7RKGLp4qW4du06n0uJMg8fOoLExERQks2g4CAkJ8/HmbOn0dLaxOXk6ROIjolm4W/jus1QQKa8tLAbZOLnpuDoiVPcJoHM0aOHOElkUEgoklIX4eS5S6hvbOHjN4FMQCh2ZB/EDY3MxU/UyFTWlGDbzk2w9NTIlEkgU1VZiXlJSSBn/5XLlqOspJTv11jfgN07dyN+VjyCA4MRHBDEMBMXHYu4mFiEUe4Z0kaZTJJWxu0PJoMNaWFcToSHhyE6JhaJick4dPAkGhokE7vqqgqsXbkMiTFRiA4LRXBQAOeTIZj5RKf/XpD5j4EMBcIgzSTVW7duQ0V1NWo72nCoOAeG9BT8wjYdD1HOFTXlbiH/goFSDhf6zDlUpPC/0ray7wvUHEWMhLovUCgfyE2FcoRQkfPNUM4Z7usX6Jf7ddTOf0Ppfq6f9iyUhJHyvH6lc0PrkApB9i2KH5mQUZGDL/gNkJKJeg6AasxfofrbC1C9/P/ZewvwuKr0f7wsUGDRQmH3t99VYHfZssDCHxYWKFo3So06Ukq9jYzP3DuWpLHGpWnqlBp1d5fU3d1ST+NV+Pyf98ycyU0azySZmZw8z5tz58q5R95zzvu5r5w/od7fnkW93z2Fen98BvX+/XvUa/wy6nX5AL8JIE0kRdQralrGnf3JvMxJLCSzszwsYh2PVueMdMZDNvOUyuvvGEsPqDvjaW1PfJhoQcSmJTiZn820ounplzB94mSYdAb20Yw2IhZAxrOFXwFOfKd/yg9k2H4kZKJSOgnm8EzmIKBCUct0dj2CkoIhxcgwhZmgt+mhk3S1YlpGNsQ02aekjMKpE6ccTv+AKyWTs1kzZsFuD4LVamNameTEZBaK+dYtJ7CgjSG3bMGcuXMwb/487N69C1lZmSBtzMUr6Vi+chko1DOZ5CxZuAzZGTz8cjpSUhKZaVlkdALWrNuAe7/cY7vdX7x4HuvWr8GChYuwdedeZObdwu17jv1urmdkYD7XyASHYfW6NOTk3WSbSx4/cQSJiXGQJAPzWUmKT2SmZXfv3sKNrCtYuWopZLMRBr3OaVq2AjecQCYzIwPjxo5l0c7GjErFvt178MvdewzQXTh3AZs2bMLcWXMwY9rPWDBvAdatXotVK1bixwkTINGGmCaJARnmJ+PSyFAIUBlxcbFYsGA+duzYid279+PSxQzcoQ05Ady6lY8j+/dh77atWLdqJSaMG8vKJwsgUymwUtr8V3TuLCv8MvORKWJaRmZlpJUhMBMbG4f9+w8g7+ZNZN7Jx7qzB6GfMw6fx+jxsuUHPK3vicd13fGEpjue0PbAE7qeeFxL53rhMW3PKtFvdb3wuK63k77G47rC9ITuazxZAj2l/RpET7O0N57Q9mJEZfutpgcjKh+9o7LkqF8PPKrt7tP0mLYHHORor4I+4X3jSKkd7+/zmmufRzTd8Iima4n0sLoL6msc9Ii2Cx7VdMaT6i54VtUFzw3tgIb92uGFb9rg2a+a4KkvGuOZjp/guW9a4pm+rfHk4PZ4ivpZ0xX1NV/hYU0XPOSkBzWd8aCmU2FSd8TDatqY9EsFdUB9VUc8ou6E+gp6TNMZj6o64rfqTnjG2AN/D+qPNslWRK5fgG1XziLvl7u4mZ+PVavXIDw0AoEBKod/DIXAlx2h8CujkXn2uWfRuUtnNgdR9EIWlZOiUVosYBsf+/AH2NLmUHHNM+XL2u6XMoEMDRoaRFTQogtxcb9ru0Li/fczOkWsovDLZEKmtWohRcnQhumgD9FDZ9VBJ2lrfENM1k9OIEPmZbRPDHf6ZxL2r8CuXbsxKmUUJJPEIpnRV+iQ4BDMmDETJykEswNbIDs7GxfSL7D9Y/Ly8xioyMrJxJZtaRgzdjQDaST8LV60FDeczvXXrl7EqFHJMNJGkkHDMXP2HFy7fpUBGdoP5tq1q7h46RJuZOfhakYmrmVk4u69eyCNzLz581n4ZVtwKFau3oDM7FzcvXcXx46Rj0wcJNnIgAyFSz5+9BgDC9czLmPlqmUwWyQYjQZYZSsWz1uKa5ccJmsUbvnHCRMRZLMzk7HZs2bj2pVrDMiQ5inzRiYunL+As2fOgvacIa1V+vkLWLxwEYuC5tC+OIAL+coQ0e7SdH4Maan272MBAm7dvIN791xNx3x7buXn4U5+Pq6mp2PxwgXQaTUO8zJZglwcCY1MpUBO0fmyLCBDAgwB/aJEX3sJmAcGqvDTpJ9w7OgR3L1zG5l387H1wnGM3LIUqvnj8dVP0Wg9ZjhajApGqzGhaDU2DC3HhKHF2HA0GxtWJWo+NhzNx0agxbjIEqnl2EgoqdXYSLR2UptxkWg7NhJtxkag1dhwR7nGUJlC0dxZNsc76D3lpQhWJioXPdN0TCiajhnu40R1DGV9yfvEUX9lWzjao2if13T7NBkTgs9HBxdLn40Jwmej7fh8jB1Nx9jRbLQNLVNtaJ1iQduRVnwxKhjtUoLRJsmGFnEymsVKaD3Sjlaj7GieakOzMUH4ZKQZHyXL+HCkxOiDZAlE7yebGH2QbMKHjIxonGTAR0l6NHbSx0kGfJxsxKfJJhd9lmxCs1FmNE+R0XqMDV2nRiFw0XhM3rsBB6+nI+vuTeTm52Df3r1s2wCVRge1RgemjZEJyFDkyALTMj4vF0rpo5PVymSrzp07o2HDhiyQwbPPPgv6TXOGzWYrDGQEiKnU/Ctkw/tlQ19pk7KBDNt/wiKAjBdPHhzIGCUDVLIa/pYADDP7QWVRQStroDfpagfI0CRuscJmtbGwlXv37MXZs2dx5swZnDx5CiTMh4WGwWQ0MY0MLRCkxRkROYJdO3H8BDIyMpCbm4v8/Hzk5eUhKysLFy6cx8bNGzBu/FjYg2wwMf8QI6ZOnop9u/fj3Jmz2LtnJxISyDFfglEyIz4xEWvWrkH6xQvIyclG/s18ltfJM+ewdNlKbNi4GceOH8P+Awfw0+SfoDcYYQsKwcw583HgwCGcOHmcaXGiY6Mgsb1YZESNiML6deuZoLl33y7Mmj0DFouZhWamr3VTJ03Dnp172F46e3bvwejU0czUjjbFpGdXLl/BNsZkdczJRV5uHqsn1ZfqSaGXZ8+eDZPByL7UMfAiK/Z4oWNZRsrIkdi4aSPOnD2Ls2fP4ezZ8zhz9hxr5zNnTuPsmdM4d+YMjhw4gFkzZkCn0zKfGodpmSNQQCFAI4BMpRbSQkDGLLMIewRWBg4ciNdee80RialePTRu3BgqlQrF7SPDPwAQuB8yeAj0Oj0mT5qEI4cOIvdmHvtCfIb2LLp6DotPH8SsI7sw49AOzDq6G7OP78XMo3sYzTi2Bz9XgWYc21vq85T/DOe7+DuV6axjezD72B5WrhlHd+HnIzvBUjo+ugvTju5kNPXIDkw+sh1TDhemqUd3YvrRXQV0bDemH9t9X5nonC8T70Pqj/IQv5+nNd42yj5THFN/T2e0A9OP7sDPR3ZgxuHtmHFwK6NZh3ciJW05jNPG4NtoO4aNjUXqtlWYcdhx79TD2zD14FZMObgVPx3cch9NOpgGTpMPpmEK0YHNhelgGqYqaNqhLZh+eCumH9qCWUe3Y+nZA9h+/Ryu3slH7r3buHT9CrZv38rC3/v7B8A/QAWD0cSADLM2cH5Q4n4xHMAUFR4rAmSKPit++65wLvq2/H1bISAjGrb8DespbUVfc6ksJIiaZCM0kgZ+cgD8zAFQmVXQSOpaC7/M24gEvBEjRmDs2LGYOnUqpkyegkk/TmLn6Ks1XXfUQYZMWgYWJCAM48ePx8oVK7Fp0ya2CebmtM1Yu3YNZs6cgdj4WNhsVodAThopycTAwYRxEzB1yhSMHz8GwSF2tr+KgRzlrRbExsViztzZWLd+LdK2bMaatWsxddrPCI+IRHLySBb9bOLEiYiOjgZtpGm12hEXn4gJP/6IyVMmI2XUSBZsgIAMvY+CEJBGadJPkzB+4jjEx8exqGrsC7tsRcyIWIwfNwHTpkxjm4NGhkfCbrUzsEb1joiIwNQpU7FixQps3LiR1XPrlq0sXbt2LQMxCfHxMBkdQIa1pxLIOMF36PDhzI9oytSpmDp1OqZNm8HSyZMnY8rkyZg2eTKmT56MCePGITaGwkeTs7/k3HvGsQcNgWEl8b4TacXmBA5mqN1IgAkKCsKgQYPw+uuvMyDzwAMP4KOPPoJarS4eyMgEhGUG7lWBKgwZMgQ6rZaB1U1b0nD23Dlk5eYi984dZN+9w/xnsn+5C6KcX+4h241Eu5lXlniZyL8n894t3Lh7C5n3biOT/b6NjLs3XXTlTg4u3srCtbv5uHInD1fv5OH63Zu4we6nZ/hzdypdnsrWwxOeq0qfekL5lWVw9L+Db4k3sp1EvLvpwB6ogyx469PG6DmoH7YdPejk6buMFzhPlTfNYWOCxsX9RO+l81SGLMZft5B55xbybt9GZlYmDp88ikVLFiFyRCQG9B+AYUOHQavRMbMy/sGNAxdlWtx8KYBMxebQ4tpQnKvbbVhuIMNsM71YK1EXGV1pkkJCKAnYeosOpnATdGF66IK00Jsd4ZcJ6NRGG5FgR3vAkAkjqdBJsLMH2VnKQQyVnZfNJQg676eFhIBFbGwsAyJRUSMYmJDNEgMxTJPgjNpFeZD2x24nVb0ZJorURdecQIfKMDw0BJRHTGw0oqKj2P415JfgeM7OhEtaeCgvCqRgs9lhsxPZYLERaHRszEnlpPanOtE1AlUstdpYXjaLDXZbENsTJCgoGMH2YNA5elcB+JQxfPhwBuhiYmJYPePj41ldo6KiEBYWxvKn0NO8XSjlbaVMqS3tQUGgdwUFD2cpffEPstsR7CS7jfYccgBH8qkqKS9lvuK4YgsI7ydmsmurOJCh52m8UJ9TpD5/f38MGDgAw4YNQ0hICCZNmoQNGzZg/4H9OHr0KE6cOIHTp08zIk2nu+n0mdOoEp0+hVOnTzI6ffqUI6/Tp3Dy9AmcPuu4dvjoQew7uBfnzp3FmXNncPrMKZw6cxKnzpwCe4ae48+eOe32Orq7zUR+FefDc+fOYeHChejVqxfI7IrA/qJFiwrxNefz6khPnjqJw4cPY8/ePVi5cgXGjBvDtOuDBw9mIEalUrOAMnz/GNLIKLUyTFtegvxUHJBp0KABOnXqxOZguk77owkZrGJzrVib6k57CSBTwuTiC4OAAxmqC9PISAborBqYYyUYRuigC9FAZ9EwHxlmDlULbcEFOy6gsY0taXNL0giUIJQ76uMQ6Pj9rL8sZuYPYzIZYTQZHEDF6eNB4YdJS8KIrhsNjBiAcz5Hmgh6ls5JZgewI80LfQGnlL+LUs4f7Ou4ycQEy6LCP7U/1YG/l54hQESAxRFNzgqzTPeQT4sj5V/z6F62N46zHXg7kQDMqBSfNV42nrIysMhmEvM3onew/CSqm1SYnG3O218JInl+Iq38AqHsR9rzqKIaGXqe8yHxh1arZWCGtDoDBgzA0KFDmaaHNJwEepOSkjBq1CikpqZi9OjRGDNmjNto9JjRGD2a8q08pY4eBSUp80odk4qk5ERERY9gUffGTRiH0WNHY/SYVEbK5+jY9SyVy0nurK/Iy328U9G2JG09fRRq3749XnrpJWZ+SfMgRawkvnY30XhRUnJyMuhjUnh4OFtj/AP8MWjwIAwdNhQGg4ERmUCztcEJYso7T5YEZDp26sjyY0CGnPxrYX0W76z8XC/arubaTgAZH54clECGgIpR0kNjVcEUbYA2QgVtsApaM5mWaRx+HbXcFi4hT+mXpdDGFDcxcKGOPevUvBBoYSSTpsKhmSFNCRH95ucItFAQBPpNqYH2UCGwI9PmmqYC06oigEpZTvrqVuh3KW3I+qNIFCoGaJznSBvDyJknrxtPef35+zjIcP12RhTk9ylT5T3K8yUd0zvpmZKui/OVm6R5P1RVI8PzMRoJlBuh0WiYidr333+Pfv36oX///owI3JAPDgEd+nrsaUTCoJJ4+YYMHcLK/+133+K7Pt8xEzr60ED1ovrQdeVzdMyfFann9XNV+4T4t2/fvujRowc6dOyArl27ok+fPi4eJz4nM0t3ES8vvZf4jfjuhx9+wA/9fmDji875+fsxrSjNhXyO5uOyIvNjaUCGPlYIIFO5ubYifSDu9e42FkCmFMHT25nbJTg795EhHxmtWQN1sBoB9gCorQ5nf51J65FAhi8KxabFABwS7DlQYWDFTH4eDuBCTvbM0Z4DGQIrBHjIn4X5tBgdQIaflxwAh3iA3l9RXnCUpfBzrv4oDsy4TMoszCShuDqTeUFx5eCggz9T3D28HqXVhT+vTEvKS5yv3MTP27aqQIa3P9cCEg+QdoaCBAQGBjJTMxKtsQYJAAAgAElEQVTCvJUGDxnMBMfeX/dmQiSZzc2dOxc6nY4JsCTUkvaJARqnsOmtdRXlLptPCagQkKB+7/N9H3ZMYGLgoIEMaHBwy3jCnYBmSAEoJJDk5+fHxhiNNdLE0Lgrz9zKx2txqQAylZtLi2tLca5utqUAMj4OZKxOMyYa4CTca2Ud/GUVhskBUJsdZmUUtYyuefsk4AIyTsd0poFxAhkOcJi2hWtsnECGgR4noOH3sdSVj3smh9KAjEsbQ1oZp0amvP3BNTPluZ8J0sWAwOKedQndPjxGiqt3dZ5ztSmFta+CaVnRMnLgTIIVfcUlLY3eoGdfjEn49yrS65iQqNaomZYlICAAqaNTkZOTgwULFzB/AfIJovpRXaluJFh6VR29rU88oLwE+Dp06ID3P3gfbdq0YUBWp9cxHidQQbzAed9gNMDdRGOK8qcxxomPZ54WHZfl+S2AjHvW1/K0tbjHN9taABkfFtKUgjMNYBLOdWY9tHY9VHYtdDY99LKORS2ja94+yF1AhmtdFBoZDlBIA+MyPVMAGX69UFqDQMZqtoKITM0qCmQq0m9VWXAr8h5xb/ELhqv9qwBkKI+S2tcFaJhJZYHAxQUvb0mpfiSk0hd20jKNGzcOv/76Ky5cuIAFCxawiH4EXEi4pDpxIdZb6ifKWTHeJG00aWXef/99PPnUk3j11VeZpo4ADOcBPrYYP3B/SDemlC9/R6GUWQI4NgovaVyWdl4AmeLnytLaTFwTbabkAQFk6gKQYU7njvDLOosWxggj9OF6mEKNMFj10Jq0vqWRKQXIEFAppJVx+sgUAjDO55lQWE7thXJQlXSsBJZK35iixwLI+O4kzQWgqpiWUR4l8Rg/zwENf5+3pRShiaKykeaF/H9+/PFHtk/u3bt3ce78OSxZsoRF7aN7qM5UvxIFTafvmLe1gSivAxxQO5CjP/mtfPLJJ3j++efx5ltvsmh9XEuibKuaBjKc/6gMfPxVJBVAxnfn+4rwgbi38nwggIwPAxkaGCQ8U8qd/bUUtSxahhRlghwhwWQ3wlN8ZKo6kMujkfEGIEN9VtlFsaw2ZAu+G8FZWe8T1wtPzlzgqm4gQ+3OgThPPb0veNtQeQnIkJDKNTITJkxgQIb+MTDjDMdLIcipXuQrxIGMp9dTlK/wmChPe5CwT4D222+/ZWZl3bp3Y5o6burl4h1FVD/iB3eT8j38mMrPjis5r5YFZCwUfllELasUSCwPb4l7Kj4ePa3NBJDxcSDDJlm2twmFHqbwyzrIkTKM4UZIoRJMNhP0Jn2d1MgUq4Xh2hhKa9C0rJBWxgk+PW2yEOWp+oTvEn4qaVpW3j7g7ymalvf52r6PBDcqOzlXU/ACCr9Lf2Re9ssvv+D27dtIT09nm8VSqGm6lwutdFzb5Rfvr/pYKdqG1L+kgSOTQkqLmpQV5fWa+l20nBX9XRyQeaZBA3To2JGF7icgYxZARozpOiCrVnTs8PsFkPFh5uCCOAnsjuhcRujMOmjtOgRYVNBbDWy/FDK1ons5U3hryuqrACK0FwyPWqYELdy0THmu2GM3Axm22WVxEcuKnHM4/rtfEPDWfvWlcnPhqrIamfK2BX+Pt6VF60f+MSS4ctMyAjL37t1jRJqZzMxMtjFiREQECxBAIZpJ4OX5eFv9RXkLzMl4W1BfErAljQyFFu/duzdLKcAD9bXyPrqX/66OlPOVO9PSgIzRZIJZABnXeHZnu4u8fEfGEEDGx4EMDVYS8Cn0MpFaUsNf9scQaRg05C9jof1lHDvce/vA9gYgYzZbUTYVH2bZ2/tHlL9AyKo1IOME52yseNhxcfyhVqvZl/cpU6cwjcytW7eYadnNmzdx+fJlHDt2DBs3bWSbf5JgS5HMlECG8vTEuooyyeXuF+pDivBHPjJNmjTBSy+/hA8+/ID9rktARvZhWaW4sS/O+Q7QqO6+FEDGxycHFgWLdomXaZ8ULQIlfwQG+cPPPgwauxp6i5b5yJBGorqZrbrzF0BGTHzVzWNVzZ9/Ja4tIFPV8tf08wRkyA9i8pTJuHPnDvbv349z587h8pXLSEtLYzutU2hm2meGvtiTyRG1MSunxQxq55ous3if+9s8KCiIRS1799138fgTj+OVV15hWhniDdeYcq7l/Hd1pNXRt+XVyAgg436+qo7+FHnWfD8JIOPDQIZHyaKBRUBGL2mgNgfAOEIPXaQGxjAdDDYtNCa1R2yIWdUJQACZmp9Aqtpnde15LlwJIFM6r3KNBTcfSklJwZ49exAXF4d58+bh4MGDWL9+PdvpnQMYrU7LgExRjUxd4zFfrC8BGfKXov1jXn/9dXz22WegDSoFkCl9HPkiL4g6iT4vygMCyPgwkKHO5lHLmEZG0oGilsnRMoxRRkjhRuitWmiMAsjUlI9M2WZlZHomTMuKTlS+8lsAmfItwrydaJ8QIvKRiImJQb/+/Vgo3pUrV+Lw4cPsGgEZZlZWxAHcV3hG1MPBM8QH/v7+oI0xCcRQnxcHZLytvYRGpnxzgrf1qyhvzfWrADI+DmT4l80CZ38ttCE6aEK00AfpoZM10OgFkBFApuYmnbo8wXMBXWhkSuc33k4kqJLAGhAQADIzGzJ0CPsyP3r0aGzbtg2kqSENDG2eqdxTpC7zmC/WnfqY+pd4gQJAEKChIBACyJQ+jnyRF0SdRJ8X5QEBZHwYyChNrTiQ0Uga+MsBGGb2h8asgV7WQWfUifDLimhnLlBTDVHLhEambk/CXEAXQKZ0PnB9gHGG3CWtCwmtRCTI2uw2pKamgkcro6/1JOwSURsXXejE79Lb2xvah8BL165dmVlZu3btGKAVQMb7+9UbeE+U0bP5TAAZXwcyJIyz3eyNbB8ZtaxGoE0Ff2sAtFYdjGYKAmAQQEYAGSH81cBcIIBMxRZEai8OYMi8jIh+E3DhaXH7iQjBo2Lt7OntReZX/fv3x/vvv48GDRrg3//+N/vNgas3g1dhWuZbvOrpY8kXyyeATA0IL7XNOPR1k3xkjJIeOosW8ggZxkgTpFAZsk2GQRJAxqWFUQIaN2tkKOqMbLaUScJHxncXNgFkKta3vL24oMp/E4jhGyNyTYwvCLW1vVZ46vvtdjsGDhyIDz74AM888wwaNWrEopb5Qp8LIFOxOcFTeVSUq/b6UQCZOgJkmGmZZIDBpoc93g5rnBXWCAtkuwS9RCFLfST8slMDxYCJE4gUB1IkJWAp6djNm4Q6gAyBmbJJTIq1NylWZ9tzQVyYlpWvf3l78bQ40FLcuersQ5F3+frOne1ks9mg1qjZZpgtWrRAp06d4B/g7zAlZHO+95oTlgVkLLQhZh2QU0Qda35c+UqbCyDj4xMEj1pGwjyBGb1FB1OEEYYIA0yhRhitBuhNvuEjQ4OS29a7K3X3QBcgpm5P1lwgr24g426+re382HiWHbu+c+DC27Lobzpf2+UV73f/OKd+Ji0cBX4gp3+D0eEX5e1tXRyQIfO5jp06MvNJAWTcz0vezjOi/IV5QgAZHwcynOEdgoAErax1+ciorWroZK1PARleX5EWHuiiPTyjPbjwLYBM5fqD2o9pUxXaUvpd9Jzg98q1rye3G4EX8pPp0aMHMyuj37SueXKZy1O2soAMXS9PPuIe3+N50afl61MBZHwYyLi0EgrTKa2sg8qigZ85EGqzBlpJI4CMD/OAmAjLNxHWVDsJIONZ/VFT/S7eU/V+p/1jmjZtir///e9o/FFjtpcMAzKWquddm/0jgIx3919t8o54t4N3BJDxYSHWBWQUfiMGqxFymAX64SYYg03Qm3UCyPgwD4iJzrMWSQFkPKs/xPjwjv6gaHXff/893nrrLdSvXx8v//1lppURQMY7+k+MM9FP1ckDAsjUESGWgRpZgtFmRHBCCMwxFpjDzTDZDNAZtT7h7F+dA0XkLSZid/CAADKCj9zBR3UtDwIygwcPRsuWLVnEsg8//FBoZOqI7FLXeF3Ut+JrhAAydWQy4ECGopbZ4q0wjjDAFEbO/npojBoBZOoIH4hJsuKTpDvbTACZ2m1/d/alyKvm+pKADO0dNGzYMPTt25f5ypDjv9DI1FwfCH4Xbe2pPCCAjI8LsK6oZU7zMq1ZA81wNfztftDYHM7+WpPQyHjqABXl8q3FQwAZ3+pPMT5rpj+5Hwk5+Pv5+7HIZQRsBJCpmfYXfC7a2ZN5QAAZHwcynPm4RkYjaeAv+2OY7IdAOdDh7O8j+8jwuopUTLqeygNlAZl69eqhcePGUKlUoE0APbUeolxijNUkDxCQ0Wg06P11b2ZeRvvIBAYGCiBTR+SXmuQ18S7vm9sEkKkDEwEHMbSPDIVfVlnVCLSrobFoWPhlgwAyQmCsA+PAExaoigAZm90m+FLwpeABsxm0IebAgQPxwQcf4Pnnn8e///1vDBgwQAAZMT7E+BA8AAFk6gATcCBjko3QWXWQI2UYI4wwDjfCYNWzqGUEcjxB0BNl8L6vIaLPyt9nJQGZ115/DaSN4RoZ+tpMwpto2/K3rWgr320rGgu0h8y7776Lp59+Gq+88gr7LUzLfLfPxXgWfVteHhBApo4BGb1VB2ucFVKUCVKYCQarDlqjBgLIiEmjvJOGuK/yvFIikHmtAMh89NFHzGzGahMb4Qleqzyv+VLbkbN/QEAAunXrhs8//xzt27dnvwWQEfzhS3wu6lI5fhZApq4AGTPtiG2C3qKDKUKCLkwPfbAeerNWhF+uAzwgJsjKTZDubrfyAJlPP/3UAWTEjt5CIyXmJsYDNG6MRiPUajX8/Pzg7+/PopgJIOMZ85q750mRn+jXivCAADJ1aKGgSV8vG6Cykp+MFlraDFPWwyg5o7/UobaoyCAR94pJ1V08UBaQefChB9GsWTPm7E8Ozu56r8hH8LC384Ber8fQoUPRp08f5h+j1WmFj4xYs8UcKXhA+Mh4++RenvITgGEkS9BJOvibAuEvq6CWNAzImMwmsY+MmAzEglADPFAWkHnkkUdYVCb68iyAjAAf5Znf68I9NBaGDBni2hDz448/Fhti1sB8VRd4S9TR++dZoZGpA5MBBzHk7K8xa6CyqxEYpILGpmGmZhS1TPjIeP9gFhOy5/dhWUDm0UcfRatWraDWCCAj+Nnz+bmm+oic/WkjzLfeegv169fHiy++iB9++EFoZOqA/FJTPCbe473zjQAydWAiICBDIMYo6aGxqGAYoYc2Qg1DqBY6iwYao1oAmTrAB2Kirv2JWgCZ2u8DMQ68rw+4RqZ58+b4xz/+gffeew+DBw8WQEasW8KSQPCAMC2rC4saARnSuBCY0Vo1kKMl6CN1MIbqWdQynUkrgIyYDMSCUAM8IICM9wnRdWGN8IY6arVaFnK5Z8+ezE+GNsiktc1s8W6eIpBG80Lnzp3RsGFDFoK9QYMG6NipI0wmkzAxrYF52Rv4X5Sx5HEuNDJ1ZJBw8zK9RQ9TuATtcB0MwQYYLQaIDTFLHiBi8hBt404eEEBG8JM7+amu5CVJEotSplKp4Ofvx4JhGIzOIDUCyIiPUHVEjqsr472i9RRAxscHAAMw3NnfLEMr6xAgB2Ko5Ae1WQODWQ+jbBDO/j7OBxWdGMT91SNwCyBTPe0q+NW325XGDW0S27t3b7Rr1w7du3eHSq0SGhmxbgkQJ3hAmJb58gLoAjGyxICKLEvQyBoMk/0wRBqKQDkQOlnDNDLC2d+3BQFf5nNvqpsAMmKceRO/ekpZyfyqX79+eP/99/HCCy/gjf+8gYEDBwogI4RYAWQEDwgg4ykTdXWUQwlkuI+MzqKFPlwPTagG+mAdi1omfGSEcFUd/CfyvJ+vBJC5v00En4g2KYsHCMhQ1LJ33nkH5D/SqFEjtpcMrXHCR0bwT1n8I677No8I07I6gGYZoJEl5tBvsOlhi7cxh39LhAyj3QCtUSNMy+oAH4jJvPYncwFkar8PxDjwzj6gzTA7duyITz75BG3btoW/v7/QyIh1S2hkBA8IjYyvL2oWixVEVE8CNEabEdYYK0wjTDCH028DtAYBZHydD0T9PEN4E0DGM/pBjAfv6we9Xs/ACwEaPz8/0G+hkfG+fhRjT/SZu3lAaGR8GM1azBZYLTZGdEzMQ1HL1EEaBNoDobVpoZd10Bm1jgXBh9vC3QNH5Ccm48rwgAAygm8qwzd1/RmLxcKilpEWZtCgQRgyZIgAMmK9FtoYwQOMBwSQ8WFGUAIZK9PMWKCVtRgqDcNgaQgCpADoJK0Iv+zDPFDXBSBPq78AMgLIeBpPekN5CMiQJqZNmzZ4/fXX8emnn7LfQiMjxpM38K8oY/XyqQAyPizEKoGMUiOjCdYiwKmRofDLekkvfGR8mA/EJFq9k2hF2lcAGc/pi4r0m7i3dvvNZrMxZ/+33noLDz/8MF588UUWxUwAmdrtFzEuRPt7Ag8IIOPjAizzkXGalXEfGVusDcZII6QwifnIMNMyWRJqWh/nBU+YcOp6GQSQEQt/XR8Dlak/AZnBgwejSZMm+Otf/4q3336bmZgJICPGU2X4STzjW3wjgIwPC69sknc6+dMeMhSCmUUtiyMgY4Ap1AiDVQetScOuicHtW4Nb9Kfn9acAMp7XJ2KceH6fUPhlcu4fMGAAunXrhm+//RYajUY4+/uw/CLGpeePS0/pIwFkfHgiICDDyAliCMjQPjKGcANUISpo7RrozBroJZ0AMj7MB54y2YhymCGAjFicxTioOA+Qjwy1m9FkhE6nY47/JpNJABmxbglLEsEDIvyyry8qSjBDWhmdrEOgVQ0/sz9z9tdKahhlg/CREZOBWBBqgAcEkKm4EOvrc7SoX9k8QRoZrVaLPn36oEOHDvjmm2+ERqYG5ivBm2Xzpmij2m8joZGpQ5MBgRq9bIDGqoPKpoXarIHOpBFRy+oQD4hJt3YnXQFkarf9Bf97Z/uTj8yAgQPQuHFj/P73vxc+MmLNEh/eBA+4eEAAmTrCDNzEzGAxwBgqwUSO/sEmGCx66E06oZGpI3wgBLnaFeQEkKnd9hf8753tb7fb0a9/P7z77rt48skn8eqrrzJ/GVrXzBbvrBPnRdI20bzQuXNnNGzYEPXq1UODBg3QsVNHkPkcXef3itS7+1r0X/X0nwAyPi7A8rDL3NlfZ9VBGiHBFGWCOUKGyW4UGhkf5wExeVbP5FmZdhVAxnP6ojL9J56pnf4jjUxgYCA6duyId/77Dlq1bgU/Pz/hIyPWLgHyBA8IH5m6sjCRo79JMkBr0UAaYYI+Ug8pzMSAjNDI1M7iXFd4T9SzgL8EkCloC8EXoi3KywPc2Z8c/YcMGYKAgADm8C80MoKHystD4j7f5RWhkfFhNMvMyShymSwxEGMwaaGR1dAEaxBoV0Fr00Jv1kMnTMvEVx0fHgeetIAJIOO7i6kn8ZmvlYWAjCRJUKvVGDZsGNPGGAwGoZER87ZYuwUPCI2Mr034yvpwvxi2f4ykg86khlpSIcCigr8cCLWsgU7SQS/phY+MmAzEglADPCCAjAAyyjlaHJePH8i0jABM+/bt8d5776FZs2bst9DIlK/9BJ+JdvJlHhAamRoQXmqLgbhGhgMZrUkFtRwITbAWatpDxqqDwawXQMaHeaC2eE+8t/iFUwCZ4ttF8Itol9J4gIBMv34OZ/+nn34ajRo1Qv/+/YVGRqxd4gOc4AGhkSlt8vSVawRk9JIWGlMg1JYAmCINMEboYRxugNFqEFHLxEQgFoMa4gEBZITA7ivrSk3WgyJ3UfjlTz75BH/84x/xzjvvYNCgQQLI1NC8VZN9Ld4l5siK8oDQyPj4REBaGRMDMjqQRkZrVcEaa4YlRoY5XIZsl2CQHLbGcjnagu5xF1WUWctzP9dCuSstzzvFPWLiLS8PlBfIaNTqSoVdLYvvy1tOcZ/n8HRZfcqv+3KfkY+MWqNG37598dVXX7ENMek31V2EX/YcXvVlHhR181w+E0CmHMK7tzIwX+BcQEZSQ2fRQg4nEGOGOcQCs80KSZYLgZOS6usuAKPMp6R3VeY8ry8FN3AL0SLpw/wh6lbzE3P5gYwGNqsNFD69JCraf2Xyv5v5uaRyifMl95mybYr2X0m/Wb+WNadRUBc3929J5amN8zRujEYji1RGe6vo9Xq2xwqrs9hHRqxTYp2u0zwggIwPDwCa5E2yBCPTyOihlTQsSpnBTmGXzQzE2KxBMJutkM0WF5gpaaFSAhB3HZf0rsqcL9eCX5ZAoLzu48JBZdpYPFM18FNhIGOxwlIcmS33LVxl8r+bBV0mlBdXNnGu+D5TtosToJY1nlifOiNPlvlxxs39W1bZavI6aWRUKhX6fN8HXbt2xddff80imFH7CI1M1eakmuxH8S7RV9XBAwLI+DiQkcwyAzI6WQeNpIbWrIXBaoDBaoTJKkG2mEH3EHFwUhKj8evuTEt6V2XOlynIKUFKeY4FkLlPWK5Mv4hnChavsoDMI488gpatWjIhjWlklMKv8lgAmbLBgrK9PO1YAJkKzS12u535xHzy6Sf405//hP/+97/CR8aHZRexZhSsGaItym4LAWR8eDLggIM0MlpJC5UUCI1ZBdNwA/TBWuhtWujMFIJZy8AOv7+kgcOvuzMt6V2VOS+ATNkDvjLtKp5xX7uWBGRef/111KtXDwzItGwJjdppWlaSAC6AjAAyRT/G+LBGhoAMRSkjAPPEE0/gX//6FwYMGCB8ZHxYfhHrjvvWHV9vSwFkfHgiIMBhpo3ELDJII0NARmvXIDjODusIGaYQPbQWFTM5M5pN7F72TAlt4k4Aw/Ny5wATQEZMfO7kp+rIq9xARqOB3WYvWVh3Ahm+4zmVtUz+d7OgK0zLSjD7Kwl8Ks8LjUyFNDJ8H5kvvvgCb7/9Npo2bSr2kSlhna6OeUvkKdZWT+YBAWR8ejKwMEFItlhgMBuhkTUw2g0Iiw9F0AgbzCESDBbHhpgmsyRMy4r5wknCoScPYFE271pg3A1keP8Tn0qyBEmiDxLEs/L9AS/czMsCyFQNyJhlMzg/UMr6sojjOgOnxfVl0bmKfru5fzlveUJK4ZfJ2T8wMJABmICAAOb4z+pcpM08obwVKQPVjfq/c+fOaNiwIdPMNmjQAB07dWQBDeh6RfIT93rXmiD6q+r9JYCMjwMZhyO/mQEZrayF3qqHOdQMU7AJBouBbYZpMBmEj0wJgoEvCwdiAq36BFrRNuSCKzkoW21WBAUFMVt/blpWv359tGjRAppyamT4+ylfiuZkMhlB+0YRoKHjQiTReQI77iFZIrBEwrigSrWBJN/XFxYrfXwqCOQggIxjjFKbEH/TuCAQQykBGwFkan4O43OOSEXbewoPCCCjADLc3KloWlpnKcNpetoxTfImswyDbGDamACTP/yNQ+FnGgI/42B2HGAcBo1JDYlpZGgBLZ0c0c0owlnVid5VWpuV1u6uBd7pkM9+FwdGqnJOOPuLL4GK+aE0fizvteoCMgRODAYDDAYKS2t0ABnJCJOTCNgwjQ0bDwRAqk6kUbDIFkEVaINC86tcIAhRf5BgTnzEgIwsw0LXmaamGO1acfOaj2tk/P390aVLF3z88cf48ssvGaARQKaAh8o7B4n7RJv5Gg8IIKMQVIoCGP67tE4vNjSq0ha6Fo9p/xitSQu1FIhA2Q9+5sEYau6PQXIfDJK/wxDz9xhq/h4aiz8kqwSzhVTYVkfqLDf7TeeqgUptu2KcmZX9UC3ApahwIICMADKK+UHJf5U95gDC3RoZKo/NbkN4eBiiY6IQFxd7P8XHIT4+3m2UEJ+AhIREQZVsg/i4eCQmJiIpKQmxsbEIDw9nGjoyJbIQoJFlWCkVpmUgH5l+/frhf//7H8jsijSYAwcOFBoZN89PlZ3XxHMCHNUmDwggo5gIOHApLuWdRF/JGLEFxgKrxeqxREBGY1BDIwdCH6qGMUYDfXwAAmIHYFhsXwTG9IcmZhDM0XpYQswwW22FNC0EbNyheSkpj8poZAppYooCD3f/FkBGABnF/MDngKqkJQGZN954g9nGc9MyrVZ7n7O/zWIrcP4noE9zkcXCTNTCIyMwfuJ4rFi5DBs2rUPa1k3Yuj0NW7dtxtZtm7Bl60aWOn7TOffQtm1pEFTxNti+fQu2pG3Ctm1bsGPHNmzevBErVizH5J8mIyEuASFBwZCNRgRZrbCRD0hZc5sPz1XE4wRkKErZhx9+iOeeew6vvfaaiFrm5rmpKvOaeFYAmdrkAQFkikwGBSCmwHSKC9wOUwozbGaLi6xFzKM8CdiQ0G+UDNCYVNCFaSClGGGYoMaA1O/wfXIPDEvtB03qMEiJBhiDjKCgABLZu7MISI6UfrtIcV55T1WOK8L8LhBT1qLurus+LBxUpN3Fve5bpKoCZLgGkwANzUmSSUJwSAhGjxuL5WtW4cjJo7iWcQUZ2VeRmXsdWbkZyMy5hozsy8jIvoSM7ItupetZ6W7Nz93l8+z8LuFG1hVk595Abl4WMnMykJFxDefPnMWOtB2YNnkqQoLskEwGyJKJaWdYAAfnnOSaCxW/fXmckpaKwP13330HilzWo0cPtkEmtYPYENN985Mv85Com+/yiQAyRYAMMXtx0XisZiuskhk2yQyrXEBKDY3r2SLgpjQ/kPuuWRzOnvQVqqrEQJXZArVejWG2YfBLCMDgsQPxVfKX+DKxFb5L6YXByf0RGBWAAFkFgyzBKDnIJEkoSnRNkik6kvuIC3blSbmNP3Nklk33R2VyF4Dh+QggIzQyxcwPVVkQOZ8XNS0rj0aGgIzVamNEQMZutWPatOnYsXcX0m9cQd6dbGTdvIzrOWdxLfs0oytZJ3DpxhGkZxzEhYwDuHB9P85f3+cWOndtL85d2yOoAm1w9toeEFFfXMk8jozss7iRfR6ZOReQk3sFd+/dxq2cmzh26Ahmz5oBi0WGZDK6rACqwnve/CyNGyo/OfwToCF/IjoWQGl4osQAACAASURBVMZ3hVNv5ldR9prlSwFkiggqShBjNdtAZDPbYDdbGYixO8GMXba4QA2zZ6Z8yASgymRh+7nQ/i9VJZvFCrvZBp1eiyHyUAwKH4q+id+jS/KX6JjcFt8l90b/mH4YHDIE/qZA6CUJeskEvclJdKwgA4Ecckp1E5UOiAg0FSYTRWKSTTCSA7PsOC56j8xBiDtSAWQEkCkyP1R1gaoqkCHwQmDGZrNj7OixOHjoIG7kXMeNW1dx9upe7Dw6Dxt2jcXaHSlYuz0Ja7clYM3WWKxOi8LqzSOwanMkVm2OcAut3BSOFZvCBFWwDZZvCsPKzZFYtyUem7eNQtr20di8Yxy2756OC5f3Iu/2DeTlZuHMqRMYO2YMQoKDmRmhw/G/ZgWEqvK7u56ncaPT6ZhfDGlj+vbtywCNADJ1kx/cxVciH9/gHwFkFIIKgRimeSHQQuDFYkeQxY5gIrMNIbIVIbIFIWYrhltsCDJbYSf7XSt9KbXC4mEUZLVjuDUIZpMJKkmFYSGB6B/dD9+l9MR3qd0xOLkfBkcMxkDzYARKGhjNFKa5AKjQsZJMZjMktsEmbbJZdSJTtpLAGjdXk2h/jEIkMRBDUdY40R44RARqBJDxjYnJVxeYqgIZMisjIBMeHoFNmzYjJycLubczmIZl7c4xGDvnB0SOb4KI0R8iYtS7iEx5B5EpbyMq5W2MGPn/YUTyW26jyOQ3EZH8H0GVaAPqh5iR/0ViygdISP0E8WOaIGViZ6zdFIOTl9KQdesK7ty+hbRNW5AYn8iizNH85qvjoqx6kXXC4MGD0aRpE/ztb39jTv9DhgwRGhmF/FJWG4rrYm30VR6o00CmqOkW+buQ/4uVtC1mK4IJCNiDER48HJEhoYgKDUN0aBhiwiIQGx6J6PAIjIiIQKSTIiIj4BkUiYjISERFjkBcZDSiwiMQHB4Mc5Qd6jgVVOOGImDcQBhSNdBH6aG2a2EJtSMkLKx0Cg/D8PBwhLqRwsLDER5RPIWFhyE0PLQQDQ8LQXBoMIJDQxA8PIT5CNiDgljEJtqDgezIyfSMAxoCO3Su2A0CywI+QiNTZwWn6prwqwpkaL8S0saMGpWKS5cu4+69W7iceQzbD0zDmOnfw5b4JvyHPw3/oMcQaH8EKgWp2XF9qOzuo0DbwxBU8TagPtDYHoHO9hh0QU9AG/IMpMgXMWZyF2zYloiz1/fg3q93cfVyBn6cMMlhVkWbndZRwdVut+OHH37Am2++iQcffBAvv/wyi2ImNDJCOK+rY0LUu4D36zSQIUYgMMMZgjQrZCZmMhhgliRERURgbGoqZv/8M1YsXoL1q1dj47p12LxhA7Zs2oQtmzcjzeMoDWmb07AlbQu2pm3FjrRt2J62FZvTNmNd2kbMXT8HY5YlI2ZWOKatmowlG5Zi6eplWL1+LdZu2MBo3YYNWLdx4320fuNGbNi0CRvdSJs2bcLmEmjTpo3YuHEDNm5c76ING9dj/cZ12EBlXbsOq1euwcIFizBl8lQkJCYiKDgIBqOBfamTS9rhvCwAw68LIOMaG3yMiLRg8qxMW1QVyJhMEkKCQjBjxkzcuXUHd+7dxJEzqzBnqQ4h8e9BH/YC/KwPwM9SD/7WAvJTHCvPi+OCNqqVtmD99AACbL+BOvhx2KP+jUkzvsWeI7Nx624u7tz5BQvmLURwcHDhfWbqGKChqGVDhw1Fq1at0KhRI3z66acYOnSo0MjUMT6ozJwrnqnamuUN7VfngQx1EhcuLLTbtsWMkGA7xowehaVLFmL3ru04c/oErl65iBuZ15GVfQM5uVnIy8tBfn6uB1Ie8vPzcPNmPm7dvIlbN28xunnrJvJv3kT6jfPYfnIzVu5ajKPph5GZm4WcvNxClJuXi9z8vPsoLz8P+Tfza47y85CXT2XJQW5etoPoOJ/aPh+5uXnIyc7F9avXceL4SQbgZs+ejfiEeARRxB8yN1NoZ7iWptypADICyLhZUOBzTWWd/Q0GI0JChmPhwkX49Vfg1r087Ng/GWN++hKm0D9CZX8Y/iQcFwEyLiG9pPMC6BQCfq72qqF2IaBJAFRja4CYlA+xfmsCsm9dxb1fgRUrVyEiIgJ6vZ6NR+XHN28QMtxVRtrwddiwYejTpw/zlSGfGaGR8X0h1V38I/LxXV6pU0CGJr3C5Aw1LFFkGImZJ5EQPGv2DOzcvQ3pl84ih8Jj3szEtdzLuJyTjvSc8y66kHMO6dmeRxdyzsNBF3Ahx0m56Tifm47jmcex+/JObD2zGYeuHkJ67kVcyr+MC+z6BZzPvYALpVB6bjouupku5aWjOLqYewHpueeRnnsO53POMKJjOn8l/zKu5l/DjduZyL6TjeybWbiedR1nzp7Bps2b2J4aw0OHCyDjZkFcLAZVWwyqCmT0egOCg0OwePES0N/NuznYtGMUEkd/DEPws4VAjEM4LqJxEECmVgHLfQCpSH8EWh5FeMJrWLEhFBn56fgFwMpVq9lmmSS40/iri0CG1m2KVBYYGIhBgwYxQEPATgCZqs1HYj4X7ecLPFD3gEwhsyHSxlBIR4ltNJeUnIwVq1bhzIUzuJF9DTm3MnA9/wrOXDuBnae2YsPRNVh5aCmWHVyERQfmMVq4fy44Ldg/F7VN8/fPxfwD8xjN2z8Xcw/Mxez9cxjN3D8bM/fNwvS9P2Pm3pmYuWcW5u1fgAUHF2Hu/vmYs38e5uybizn75hRLc/fNAeXJ3uGmtLT2mr9vDojm7puF2Xt/ZjR//2wsPDAPSw4txqqjq7Dx1EZsP78Dh64fwpWbV5B3KxdZ2VnYvW8PpkydAgIz5dbAcN7gqdDICI2Mm4FgSUCGdiqvV68eHn74YTRv3hwajea+DTEp/LJOp2dAZunSZQzI5N/JYl/vY0e+C0PQMwiwPMDADAMxtnrwI1JqFYoIzvcJ1sp7xXH1gh7qC07OttZYHkFo7D+xZK0V1/LO4lcAq1evYUCGwg7XVSBjtVkREBCAr776Cp9+9im+/PJL9lsAGSGI+4IgLupQNT6uM0DGEQWL9j/hUa8oGpZjs0cy14iKisaK1auQfvUy8u/m4Ur+RRy9fgjrj6zBrM3TMXrZSETPj0DIHBtsM02Qpmthmq6FkZEOxuk6GDyI9NN10E3XQjtdC810DVTT1QicroJqmhqqaRroZxih+9kA/c9GRtqfDdBM10M7XQfNNE2xpJ2mYXnqp2vhPtJAP7100k1TQTM1gJF+uhrGn/Uwz5QQNNuO4fNDEb00BuPTJmD9qQ1Iz0nHzXv5yMnLwZ4D+/Dj5Ekgk0ECM5JschGFby4zyhkLElC1ASYmKNF+Sh4oC8g89NBDDMio1WpYbY6NL2nPGE5arQ5BQcHgQCb3zg2s3RqH6JS3YbA/hUDLb1xmZfeBGBKWueBcnlQJZJT3F3NebXsYWvujoFRlfcgBAPgzyvvdcczzLSmtwjsCbQ+56hBoffD+9qpC3oVAY9GyU76WetBaH0FIzMtYvFrGldxTDKyuEkAGISEhGDBgAN599100aNAAr732GvstgIyYX5Xzqzium/xQJ4CMMpSvkfYhIWIhe8m0zALZZGY256fTzyH/3i1cyr+I9WfXYdzmMQidFwzdZA38JgxBv9F98G1qb/RO6YYeyZ3RY2QX9BzZFb1SujPqmdIdnkTdR3ZD95Tu6OakrindHMcju6PHqF6FKaUnejDqwZ6h54pSD1a/HuiZUhaVvx16jOyGsqj7yK/QLbkLox4ju7I27j2qJ75J/Rrfjv4Wfcf1xdDJQxG1NAoL9y3EqezTyLubh5z8XGzbtQPxiQkwmYwwSUYYZQNMsmMfGgZk7jM3LGx+KCbGujkxVle/VwTIUDh30hgrSa3VgqL0LV66lAm5FHqZ9okZMfJNaO1PIND8AALMDqHYpYkpKjSX97dSaFc+ozhP71JZHoYpuCEsYX+CFPIC9MHPQBP06P0goIQ8uAlccWkh4Z+/V5lPacf8fkXK2sT5DAN6Cq1VoPVh6IMbwBj8PAxBDWCwPQmNtX7heijyKrZs5b1etNz0nAvIvIRFq0y4nHNSABmnRjQoKIj5xXzwwQdo2LAhAzIDBw6sM6ZlddGcsLrmYJGv763pdQrIEHgxyEboZSMMTiBjtwcjIT4JR48dR9atXFy7lYFN59MQvToGg6cMwjeje6N7Sld8ldIZHZK+QLukNmib2BKtE5uhTWILfJHUBu2T23kwfYEvkr9Au5EOouP2ye3LILqnePoyuT06jCydvmTPlqNNktrhi6S25aA2rJ2prR3UFu2T2jGidxF1TP4S/cb/gKC5QVh4YBHO5JzD3V9/weWMq1iybCnzfzKY9NCbdAzIEJg1kQmZ0LoI8zE3m4+VtlBWFMgU3TS2OCCzems0wke+AbXttwzEcCBTIe1LUcGafiuFcuV1ft5Sj73PHP57xI35CKkT2yBh/OeIHv0ebLF/LbsszMHdYfpWHIhhoIO/S5kqy6I8pnuK/lY+53wfq5elwOyOIrwF2urDHPF/iBr1LuKpDqn/Q0T8vyEPb+gy1yuUt/I97jh2lt2hkeFA5oQTyDh8ZOqyaRkJ8qSl/Prrr9G6dWtmYhaoChRApgbnrtLmNXHN98CBN/VpnQQyOtnAgAxtABkeMQJLlyxHZlYO8u7m49C145iY9hOG/jQM3Ud3Q6eUjkxwbz+yHVontkTLxOZontAETeM/RbP4z9lvOu8uapXYAu6jlmid1Nqt1CapNcqkxFblbg931ZXav+vIr9B/XH+EzQ/D+lMbkXE7Ezl3cnH0xDHExcfBaDJAb9RBMju0cgLIiMm3pifr8gCZZs2aMaGNNDIlAZlFSxzO/qSRISATNvINqGyPlQ0eKiJ0K0EAf055zlwP+pCnkDjhUyzcaMGG7UlYuXUEFm4wI/XnL6ANeoqVRwkACGQVAlrO/ApAywMMQHFgw0GHMg92rCxH0WNeVkqLXFPmS8dkCieHvoDIpP9g3PTOWLhOxvJtEZi9TocJM7siLOafUFsecgAkykuZtzuPnXlzILNwlRGXcjwTyNDHH+JjPnaUx/ycu1MCMpIkgQIekK8MgRoeZp8iALr7fTWZH22mTW3YuXNnpm0iXzkyn+vYqSNMJpNjs23FNhE1WTbxLu/mrbrSf/UOHTqEG5k38OuvvyIzMxMrVqxgkwINoJqYoGqioblpmVGWoJcMjAyyxHayj4mNx/Gjp3Dn7j1cv5WJNcc2IWR2GL5L7YOvUrqg08gO7It/28Q2aJ3QEq0SWqB5QlM0jfsMzeOboGVCc3aerrmDKH/3EQGs1m6lNomtURa1JiBTjvZo5UYASECmU1IHZqY2aPQAjF8/HvsvH0D27UwWzWzqtKmgDTMNBr3TT4p8pYRGpibGn3hHwWJIcyqfV4kfaaM/isLEnf1ps7+mTZsyQc1MwptMfn0FRBoZq92OhYsW4Zdff0XOretYtSUKYclvQGV9DAFyPfiTaZkbiDQVnHh+/Del/uaHERr7CmatCMSh9LW4cuM4Llw/iJMXt2DpxhAERf8L/pYH4VeOslB+AdbfQG2tz9LC77m/PsrrrCzW37CNOf0p2EGR9xW9l91PJnHWh2AJ/38YOb4p5i/TIm3fBJy8tBVnru3GzjPzsHCdGbHJ74Mc8HkeRfN2129eJq3lEQRHv4SFK424mH2crcsrV61CWFgYuEamtseTkoepLOx3DWi2Kfwy7R3z3XffMf8YV/hlL9dKEEijNiwJyAizsoL5s7Z5X7zfM/uiTgEZElyNkhEG5itBzv5WJI9MRW7uTSYUnLxxFtO3zIZ6og5fp3yNDont0SG5PTN9aptAArxDQG+R0IyBGEoJdJRXcC+PcO/We5hmxHOBDIEPalN3EZmbdUr6Er2Te8D6sxlL9i/Bxbx05N7Oxdp1axEaGsq+4pFvDCdhWuaZE5OvLhhKIbA4IPOb3/wGTZo08RggU5ygzoV6XXBDpExojjV7kpGedQS3bmYj/+YN5ORfxc6jMzFyYmvoQp5FoOXhQuCCAIQu6HFIIc9BHv48TMOfhxz+BwSNeAmhMa/CNuJFSOH/D9qQp6GyPcKeDTA/wEAOPacPfhK6kKehH/4sjGG/gxz5J1ijXoI95l+wRPwZxuHPQWP/LQIo8IG5AIyxcpN5GQNh9aCzP47IkW9i+vIh2Hx4Ek5c2YrM/EvIunUVx69vw5ptcYgf9RnUBGQUzxXXJlU9x8tEoOk+ILO6bCBDfFXSmGGCMAU8KQNsKHmzpLzofNH7Snt3WfmUdr3oNQL8pK38+9//jsaNG2PIkCFl1qloHp74WwAZsQZ5Il96U5nqHTx4EBk3MvDLL7/gxo0bTCNDEx7FbCdVrnKS4hOYN6bsq6ZkglEyMDCjNxhhDwrF9OmzcO/eL7j3yz1sO70TCUtHYkDqIPRK6YF2CW3QPrEN2pEWIqEVCMwQ0GgV3wIt45uhVXxhbQyd9yRiZU1shVZuJGqHsoi3Ubnawo0aKHpvm4SW6Jj4JQaNHYgJGyfgSMYR5N3Jw+GjRxETGwO9Qc8c/40mI4hMksnF597I16LMDg2Ht7QDzalsXjXLTENIGhlyWuYaGQIyn3/+OVQqFUgjY5KkQqTSaFwamXu//ILsm9ew0qmRCbQ+Bn+nRoa0IO6i4oR0ErxDYv+NmQsGY9vJWTibsR9XLx9H5o3zyL11g2loZi7zQ3BMI2iDnnZpNALND0EO/z2iU9/DmEntkDq+DRJSW2DijF6YuSQAi1fZMHupGpPm9UHUqI9gDP0D/GTSnjwKKfT3iEx9G/ETPkHi2M8Qm/I5xvzUCVMWDsSsVXosWGvDlPn9kTy+GWwjXobW/qTrvQzEkIbJ2S6BlgcZkIqb9Blmp0nYeORHHDy5HFcyTiAjLx3Hrm3F2q3xiE35FIHm+hjmBDL8ebenzrJprI8iOOZlLFhhYBoZWpe5RobMqchSgltLEM9zfqL1mn4rhQ/+m0yXSFim5xyRGgu0gso8eF6UcuGa56G8j7+f3qV8hu7h9/Hn6J5C5yyOfXDoOV5m9hyNB6f5FCunJLG60Dm6l8ZJ37598eabb4K0ln/729/Q94e+jvo4Td1YPs4yeNMxr2OnTp0KmZZ16NiBtRFvF2+qkyird61L3t5fdQbIsI4iYGYyQjaZoNcaEDp8BBYvXs5A3O27t7H6yFoEzwnFdyl90DW5C76Ib81ATFvSGiQ4gEwb0swkFJhOcaG+QsJ7DQEedwOZ1uUAMcq24UCmdXwLVDfRu5rHN0WT+M/RKq4lvhn1NZJWJ2D3lT0MyJy7cAEJiQnQG3TMV4ZFMRNAhgkZ3j6JeVP5ueBHH4u4RkYJZB544AF89vlnIEdmTwEyXGhXApoAy0NIGPM51m6Oxf70VTh+ZQv27VuKUye34kZOOo5f24YVO2KQMLop5NA/ODQylgegtT+F6DH/w4wV/ti4KxXr0hKxYn0U0vZPxP5TS3E6fRsOn1uDHUdnYsFqC2JSP0aA9RFogxsiNO5NTFrSF/M3WbFyQwSWrwzFxl2jsePkHBxMX4MTV7Zh5/E5WLpxOFImtoN1xIv3ARleB5W1Piwhv0P8j59hyopBWLjOilUbR+LkuW24nHMKh69swpqtcYgZ+Qn8zQ9hGDezcyNA5O3KUieQ0dp/6wAyy/W4lH2CrU2rVq9y7SND/MOBBOd7DgoINJDQywVffmyz2UDE7lf4t/Dr/DwHQfSbwA//ze9TghJ6p/L9/De/h9Kiz9E5ypeIgxV+D0/pHrpGxPOg9xCQIbOyFi1a4JVXXsHHH3/MNDKuyJNeCGB4+1Hdqf0EkBHCP+cJkVaMF+ockDGbTLBIEgwaA8KHj8DSpSvYYnHzTj6WHV4JeZYFvZJ7o3NSR7SLb4V28fSVvwUDL+2YdqYtyF/GAWgI1HAqADcEIJREWgIlKa9V57EDZPHylZ4W50vDNTn8WkFdS8vLAfqoXso618QxAZnP4z9H89jm6JXSC3GrYrHr8i7k38nHxYuXkJiUCJ1BC4PJ4AzHbBIaGS8WALxxsieBhQl9pQGZzz5jO5jXOpDhwrsydQryhuBnMHF6D+w+PBsHLq1hYGLBklBs2DwRp89vxdGraUg7NhU/zfgewVGvMCATaH0IxuDfIXV6e6zem4yTV7bj6Pn12HtqMXYdm4P9xxfh2Om1OHl5O05f2Yl9p5Zg6oL+kEf8EVLES4ge9TkWbgnG1hMzcPTcOuw7vhA7Ts/F1qPTse/0Epy8vA1Hr6Rhz9nFWLzGhrjUxgiwPuTSwri0Mswf50G2705oQiPEjf8YyRNaYvLsQBw4voJpQg5f2Yg12+IRnfIpAkgjw9ugBoBMSMzfXRqZM+fOYdz48WyDVHJyJ6FXo9Vg8ODBTJNH5zhP0a73dJ6I/EcIvFDq7+/PQACldC+BBNL40X1knkWbr5LDPGlI/Pz8WL6U0n00xsg3h+4l0y66l/LQ6/XsWQLhBDDoHjpP76NzdC+9g54nQDJs2DB2jsrLrT3oXjpPz5O2ie6lPOjd/fv3d72Pnqd7+/Xrh27duqFLly7sOnun08/RG+cCXmYBZComtPJ2E6loN84D9Q4cOIDrGddx7949ZGRkYPny5WxC4ZMNv9EnUlJXUxQQk+wAMiGRWLJkOas7+VEsOrgE2hkGdEvszsyT2hCIiW/JtAkECtoltkW7xHZom9gWbQjMKImZnRGYuZ+41oanxd1THecY8FCWsZTj1hTMQEGtEluDUQKZppGfjeN6oToXza9IG/D61lTaIr45miQ0Q4u4VuiV0huxK2Ow6/JuBmTS0y8xjYxWr4HBqGcAhpuV0eLpE/wtQInH9yPxGuc3Eh5J2CTBjzb4o2hFTCNDQIaEQPo6XYxpmcVmw4KFC3H33j1k5V/FirQRGJ70OgLItEyqx0yxCn3tr6TwPcxcD5yU+QXIv4E94i+Yu1SDExe3Yt/5FVi6JRxJ47tg2hwVtu+djH0XV2PPheVYujoEUcn/Y2BCbXsMhuA/YuLMnth6ZBpu5F3C+RuHse/0UqaZWbJiOFauCcf+44txOfMELmYew7K0CESmvgNb1JtIHPslVu9KwuGLG3A95wIOX1iPlbsTMX2pCnNXB2HTvp9w6NIGnL1xAHuOzcekGb2gD3nG1R68LjwNsDwITfDj7B5tyHNImtgRuw/OQXrmURy6vBGrt8UjKuVzBFh+W2w7KNukqsdUJsrDYVr2dyxYJeH8tQMYN3EiuvfsyUIOf//99wzIkJBPflTkJ0JCPddg0K73dI5ME2nzSOItSlu2asnOf/HFFwxwECjo2bMnPvnkE3z8ycegfIknhw4birZt2+K9995D23ZtWXQwAizffvste/7999/Ht999y0AMgQ26l85RSsCFnPH79e8H2uvlww8/RI8ePdi9dL5NmzbsPN3LfFtkGQMGDmD1oHJ07dqV+S+S3EFO7x82/pDVg8ALaXCozi1btmTnevXqhYDAAJa3L8zbBNSo/UvSyNB1X6inqIMAHtXFA3UKyJglGRaT5AQyeoSGRGDx4mUMyOTcysaCA4ug/lmLrxK+QoeEL9AmzmESRb4wJIyTJoZATElAxqGxKNDMOAT4otoLpY9J0WsFv90BbCoCZNoktnWAFaeGqRUBGCURmHFpnwrKWR4tDfkWVTdROVomtkQzCl8d3wa9CcisiMauK7tx++4tXLx42aWRMRoNLk2MUrCsrkEm8hUTOOcBJb8pgQz3keFAxuEjU3NAhgv3XKDmgjk/z3+Tv4rW/FtEJ76NlWlRuJh5HPvPLMfMpWqEJ3yCURN6YvXGaAZijl3diu17pyJlYluQKZo+6GkYQ/6KH2f2xs4js5B3OxvnMg4gbcdYzJgxCKPGdMLYHzthw5ZkXMk6jeyb17H5wCSMmtIOw2MaI3lcV6zbPYqZkGXnXsXuI/MxdmYfBCd9gKhxX+LnZSbsPrUQl7NP48y1vZizXANz1J8QYP4NAwm8Liy1OEGa06RrqLke4sY2w65DM3HhxmEcurwBa7cnImpUUwRaHmcamaJt42qTSgJF5fM8b42ZnP1fZkDm7MXd+K5vX/zpL3/GP/7xD6aNsNltDCD85S9/QYNnGzDQQb5+BBYIxDz33HP405/+xIAKbSJJQv8r/3oFzzzzDN544w2m+SBwQqDgd7/7HZ5/4XkGHAgMkQ8K8eFTTz3F7iUtDGk92rdvj2effZadJ0BCvEkAid/76quv4ptvvmFaE9KYUOhgKkeTpk2YBoe0La+/8Tqefvpp/Otf/2JlInBCZfvjH//I8iZAROWij0sEhOh5qmP37t0RHByM7j26o1GjRvjzn/+Mjz76CN26d3NpfPjY8tZUABmxPngr73pKuRmQuXb9Gu7evYvr169j2bJlzIGOJkaa3Gjh5YXli7C3pmZyYjSSRkaCXq1DaHA4Fi5awuqedTMT8/YvgGq6Bl/Fd8GX8e3QJrY5Wsc1R2ty6o9v6RTG26JtAlGbYqlNfCuXP0jbBIdfTcG9rUHXSctD1yiYgJL4fRwctGZ5UX6VI8qH51l6yuvU1vku0kIR0Xsp5LQjwAFLFeCmZUJLKInuL/09xbeZu54h4NWCQjrHtUHvkb0RszKamZbdvkNA5hKSkpKg02tZCGbag4B/yeR87q18Lcrt0HJ4QztwniPbfg5kuFBYSCMTSD4yZhhMpkIUqFaDNDLzFyzAnbt3kZl3BSs2OzUylsfgRxoZrpWRndqZcqRKIZ/ACifleTr2lx+Eyf57jJnUHmn7JyEj9yIOnliBSTOHIDy+CeJHd8P85XbsPbscFzKP4viFzZg6tz8MIc/CENQQctjL+HFWb2w78jMr+8FTKzFrzlDEJ36I4LB/ISjiJcycPwxnr+xF9s0M7D6xANPm90dMcjskj+uB1TsScSh9PS5fPY7VmxJgi3kbAUENYRzxGkZO7Y6N+ycwIHMp6xQWrDHDePGo0wAAIABJREFUGvM3BMoPsfowsOCsm7JevK6xoz/H9oM/My3RwUsbsHZbEqJHNUOAWaGRUbQNf84dKS+bWq4Pe9SLmL/KBAIyKq0Wr//nDQYsSItCviIEGhq92ogBFhLqSYtBWhbS0pDw/89//hO9e/dmGhm6lxzk/+///g/vvPMOM0uje0kz8te//pXdz7QhpE3p1w///e9/8cILL+Dtt99mmkIyJevyVRd23x/+7w8grQ6ZsJEWUXkvhUQm0ENaGCoDgSnSBBGIofv/++5/WRn+85//sPJTPfr06cP8XQjMkM8LPU/jgzRKlAf5whDYISDTq3cvVg86T4CMykGmcr4wdxOQoXoUp5EhOYxrZLxhfhNl9J61yJf6qk4CGQIzOrUWIcFhWLBwcZlAplVcMwZOHFqF0oXxAiDT3AlYlGCiMJD5IqEt2ie0c1E7BUAiEFJZAMOfqxCQIZO5BAIyBGAIuJE2ygFoWsY3R4u4pqDUBVziW4BMuTi1ZPfXLpAhLRZpZVrHtUbv5F6IXhGFXZd2goDMpYuXkZyUDL1eJ4CM07zJlyYyb6mLtwMZtfVx2CMaYebCodhzfCGy867hxOmNWLjMjokz+mLybH8sWx+FQxfWMZBzKesk81cJjv0nTMF/hCX8n5gwuxc2H56My1mnsW3/VIwe0xrW4X+AVv4tC3Wc+mN7HDmzFln513Dg7CosXCFh1LieGDWhN1bsiMOe88tx5sJOzF9ugjro9xhmfhCBwS8gctxn7Dq982rOOSxaY4Ut+kWozPXLBjJSPcSlNsGOgz8zAHb48ias25aM6FFN4W9+rMC0rJqBjEp62AVkzl8/iDXr18NoMjFg8sMPP7CPiuRnQpoP0pQQYCGeIoG3z/d9mDBMpllk6kUCMPmgkDaD7iWQQR9wSPNB5mQdOnRgRKCEtDpkrkVgqXXr1kwTQkCBQA/l1bFjR7T/sj2oDAQ4SCvTo2cPZjJGz9C9lC/lRfkS0CCgQud0eocpG5WByk1lIrM3Mk8jczg6//XXX7t8Z+g5yoPM5kgrRD4kZI5Gz7Zr145d4+XwlnFfWjkFkBHCf2n8Ia6VzR91FshoVRoEB4di/sJFDMhk38wqpJFxmZbdp5FxABmuNVGmZHrl0l44gYAD2JA5GQcxJOw7NDWkjSEww8mhmSgw2+KApLJpeYBXgTbEoWWid7WKa+4KI82jjdE5OuaRyCht6byPa28Kv6+gHso2qs5jBmQSWqBtbGt8zYDMCOy6tAO37tzEJadGhsIv02IuNDJlTw5iAnV/G5UbyDijltWGRkaprVAek+bBMPx3iEtphlWbonHk7DpkZV/G2Uu7sfXAVKzemYR1u0Zjy6FpOHFlB7LyrjIws277SCSM+wy2iEawhDfCRAIyB3/CpcyT2Lp/MkamNoMp6DkEmh5i2qSkcS1x8NQKZORdwr4zyzB/uQEjx3ZH6o+9sXxXHHafX4ZT57di7mI1As1Ps2cC7Q0wYvRHWLE1GumZx3El+wwWrXYAmQDzwy4go6wPP2YaFakeElKbYsfBGUjPPMZ8ZEgjMyLlc/jJ9V1Ahp5xhwamaB48XwIyQdEvMdMyKkdmVhbmzpvHhHkCC6R9IQsJAi5qjZqBCj5OaU4j4EFaENKk0H10PwUHIODBHfWJBzkYoXvpOZan0eAyBaN7uVUGe5da7Xof/Saie3i+9B7Kl4CLSq1iWhgqC+N3yfE+ehd7n8HA6kP38nN0L5WBiI4pb7pGKdc48ffRedc48oGPMhzIEFgkkzrSzJJ5Hv2mdqbrvI9F6v45WbSp97dpvf379+Pqtau4c+cOrl27hqVLl7JBQwOIJgtf6mTZJMFsNDHSqtSw24Mxj0w07twBAzL/P3vvHVfVlbWPmz4tM5M2mbyT6Zm35J3MvJPM/KalKdxKR0QQe2/0Jh2xAbffSwcROyKIiA1RUAHpTUTpvTdNm/L95/l91j734JVgYhJjQM8f67PPPXefc3Y/6znPWms3nIRvhh8cJ03LpLAgPxkm5PhPYISTqeBCbpBDZpBBahTumFgLTuTEbujpHnJYGSymFe7eX86MbGp56Dfd727Pmu48D7r4sjOgQgDGWG5KZToxB3Qm2+TTz7lbG01Xxvt7jjOBY0AmzgWacwrUDFbin//6BAMDA8xHhr2EgwLZy5F/GT5s4/xhmrMPW134MUf1ohDM5Csw1bRs7ty5TEEkZ//pgEzY1q04kZuLf/+//4ebHw8j/4oSu2J/B6+wb8MjmDMtcw+Zgy8koXPg/lliNFnbGv1rHM5ch9qmHHQO12Jsohs9g/Vo7ClETedJ1HWdRUPPBfSMNOCDj0Zw85MRVDZlYn/2ckTr/o6IyN9hX9YSlN04jJEPulHVfAwJe20Qsusn8Al7Ft7hTyPpgB0auwsw8mEPKluPIT13A9QJlojfsxB5VRrU9pxFZ28FcvMC4B/xIquz//aXoU8To6DSwIDM8K1OnCwIxVb1L5k5HNWN/GDcjHWcmpI5niFZhNrrxzBwsw1kWlZYbkB0/PvYFPz4Hdd+oXa9136gcoXMAcfI/Bq5BSGsHvRuOl9wAVFRUUypp/FDii2NGzI9NJ0fBAL4CFgEEug3/W865qb+pjz8ffh1kO5B4MH03vwxnf8iusHUZ/PP5+83XcqXg1ICXDxIorysvGHcBorTXTsbz1GdqK7EQvFAhnyS6De1NdWJb5PZWD+hzLMfKMz0PnykgEwIARl6EQQFw8/HFxHbtn8mkLHSEfiYHsjwyvqdyv9tIEOAhgCBXC9lwoOB6QAEf+6bAjKmz+XBGF/22yCOmBopAzI8mOHrdLst7gR6tJ/LgxTmz2OQwpoYmTgXaE2AzODgIPOREYCMsKh+k4syKSS8UnI3IENRnOhLN4VfnllA5jFEa9/CucJdaBsoR8doLdp6rqCiLgOFFQk4X67DhcpYXKiMR/X1HAyONGH0wz5cJValMAS6BEtsi/ojDhxbjsrmTAbCCAAdOr4Z0bFvIzz6t9imeR2ZpzzQOlzJTM+Kr+1F0hEH7NC9B12SDfIq1ajvzkPfQAMKitXYpX0TAdt+hJ2at3AgazXKGw6B/GP6J5qRkx+AUNVP4RHyGAMJDMgYwQwDMiFz4Bn+JLZs/yGCd76ClH3OaGw+ywBW+2gNSmvSYEi1h9+OV+C17dtwD3+cA3v3Ck6+SD4eyJCPjOpXyL0QjMFbHewj27nz5xEZFTkJZGj88iCFH8um4IL/jwAPDzzuBkz462lMmgIGfozy//Op6fjlz9Fz+Gfy5+52Pf+/aco2JzYBTvwz+LJPvTf9nnrO9H6z7Zjaj+osABnh3TTbxu5MKe+choYGjIyO4N///jdGR0cZI0ORQ+iLjunCRgXmF5jZmoYEBSM0KAhhgUHw9faZBDJU9w/+cQsnrp6EzxHf24yMVgoLcvhnTv9SWOrlsNRbMCE/DAu9nLEVpNCTwi7RS9keJmKtmKV03orYDJ2UMSPWtMEmsSR6+W0xYU3o/nTN/RK6H4Eka/30wpeDL79UJ4VYJ4FIJ2H1YUEJdFLIdRLIdBJIdWJINOaQ6kRGEbPzVHeuLbj2oWM5u46ufYBCpm56Cay08kkgUz1QgX/882OOkYmNZeOamZcFcqwMjXF+nM/WcS2UmwMHs6EdJsdbSPAkI0OhZfmoZXMem8OiMpGDNAGZgKCgO8SLAI6RkfnXv/+NiY+GcO6KEjtjfsf5cgRzX/bdQubgCwkxFp8hHqGPwy/iWcSmyFBRdxA9Y42Meckv0yPx0AqodksRlfw2opPfR3SKGdKyNqGmIQtdY9fQOHAZRbW7sS9jAyJV7+Jg1krUNB/HR/+4hb7xZpTU7sfR3ACkHdqA9Gw3lNbtR+9EE/pvtiK/Ugfl7ncRqnwLmkRL5FfpcKOvCDdvDaKxLR/HTvkiaa8DMrK9caUiFU09RRi61YmWnhIcOb4eW3Y+z4EYk7q5GsGMd9jTCFf9AvrUeTiQsRznLqjQ2VWJmx+PsHs0tRUiN38nUg47Q5n0ZwRGvsS10Rdt23vJT+VjjMzTiFD8Ejn5gRi42c7ey+fy8xmQIZOqu61V072vSdmn/ARyprvO9J0+OS6NQHu6uUT5p7sXr8wQIKHje7kXf39WPhOGnF0bzK3JdEz5TMvJX/cwpTzgNAUyxMzwpmVU1+na/WFqA6Eus+cdNhP7SgAyJ0+yl8UXATIciOEADQ8+SJmX8mBGSwo+MQNy2OutYKu3YlHQyLHfRm8JSwZw5J8CGPy9HiSQobLQ87iyyyDWSSFi4EMOWwOV3RKWOhnzh5HqJZBoRJDoxAzUiHXmkBCo0UsgY8wT3YsDeARgCPzcTQgc8XK3PHSeB1GflYf/j/n2CEBm1n9wmIkL5f0q06SSNxXI/P53k/vIUCSqmQZkPMOfQUjUf2BfxlJc7TzHQEZJ0yHsPr4SvtH/hc0RP4B7xLfhEfFdeEY8iwjtmzh+Nhj1XXloGLiImo5TOF2wHUqdGIezVqOuKZd9YLj50TC6BmtR33QGVfXZqLt+Eu2DVeifaEXbYCWyzvsjRPMbBEb9NzTJFrhQE4u24Sr881//wNBEBwvBfLkqBfWNuejtr0f/RAt6xq8zsJW81xbe4c/cBnRGMENAxj30MQRE/BDaPe8j+2IQKhrScaO1AEPDrfjwkwmMfzSIwbFWNLTn41J9CtLz3BAZ87sZC2SmG59fBwCYHL+fAXgI0ExXnns591WuvZf7z8Q8PJCxs7NjoajJR0YAMoJiPxPH6kwtkwBk7gOQIQDCMzJSUugJxOgtsThxEdz3b4LnEXdsPLQRixIXwT7GlrExxMwQqCEhZoQHFGTKNcliGM3SJn9Pw27cNn3jTOBM8xJA4VmXqam1kRWi55J5nIyJBSwM1rCLd8CyPcvhdcQd3hnuWJ66FLaxNrAx2MDWYAc7gx2sDdaMhaHn8UCCnscxVjyzNF2ZeFO9T6d3lv3O/5mJ3jT1N71GADLC4j9TF1q+XJOK4BQg8/v/+z3bDPOxxx9jmwlSZCrykfnCjMy9fP2fLo8JYzEdM+MV/i2EKl5F6lEnXL6xD7Wdp5FdFIKolL9jY/izWBc8B64m99iy6xXEpdnibKkCBY0pKGzcjZyCYETr5uFw1irmY0OAYXS8C61dJWjoykdD9wVc6y1EQ28B6jvO4mJVAuIOWDNw5LfzZ9AkyVFYE4/WoUp8+PEEegcbUNtyAmUtR9n1BIAaey+i9PphHD3hjkj9mwywsPpQnU3KR8cB256Ddv88HCsJZfeoazuF652FaO0rQ3NPMW70XEJVRy4uNqUh46IvouL/8ECAzDblr74wI8OPr6875VmSr/s5j9L9eSBDUeHIN4YBmRcFRuZRGgNCXb+a7jLn6tWrGB4Zxr/+9S+MjIzg7Nmz7GuKKVX90DSy0bQs1GhatjViG3Jyc1ndb31yE8ev5sI73ReOekfY6a1hqSVQwTMHpFiTgk6Mw20hxZ3Oy/TEZhADwZmg2ett4H/EF3tKUnGg9iBiSuOxft8mOMYtZCZqZPI1CWR0smmZB96/hgcKd0vvxlqQkm/K7hCzQsIABwUD4E3ZjEDGwmAF+9gFWLN3PXae3YUj9elIrzuEkJxguCS7YHHyUmw44MpkWeoKLIhfABu9FSwYmBFz92WmdzyQ4Z5FII8X0/JMPebzUDr1PwJbpv9Pf8xFUiPTsqWxi6DJi0Z1fzk++cdHgmnZZ3xBfWjm9yyo4ySQIZOZ0BDmnE2mZbTXxxNPPIHHH38cf/3rX+Hu4Y7gkJBpgUxoeDiLZPXPf/0L4x8OIq9Ege0xb0yaln0hk7LpQM005zxDn0Lgrh9Bs/sdHDizAUfyvWDYJ0ZA1CvYFPwENgdxplEMzITMgV/EDxCh+S0SD9shNXcZ9p5eg9Sjztiu+SsOHluFihuZGPtgAJ09lSgqS0VBZSwu1aXgUv1u5JWrcawgAImH5iNE8Qu4Bs2BT8RLUCfKUFidgMb+IvSNNKP6Wi5OXorCybJI5FfH4HLtbpws2YG92cuwQ/cm/LY9z8AVXya+Xfjf3uHfwY6E3yMpxxmZFwORXRiC3MKtOHVxG04WbkVuYTiyC4OQnu+B5ExHhGt+fZvdmaaN+Pt/ldQn5BlEEJA5F4D+iTZQH+fl52PXrl0sGpgAJL6awjMT17ppgcwLL7BQ2rzvk2Ba9vD1+0wci7O1TI8YkAlCCEUBodCV3j64FyBDSjoHZu4EMnIDB2Z4R31SrCXMl0bOTMkWxznDcF6H8u4yVA1U4GhzNtwOesEx1gkWOmJKTIAM8ynhzajEkJJpmpaLFkb3Jd8U5p9CPipGYXkmy3b7WnLEJ6H8BHxMGRueveBBAt2bjlnKfHessShuMUKyw3Dkagbqhqpxpa8Yu87swvLU5fA96o+Uyj3YXZWGiLPbsSZtNex0tsxEjtqIWB/yx+EAEoE7AhYcY0NMFQn9pmcy8zpqBwJXRt8jC4Ml5Ho5l8/IvvDlZ+GeKfwzux+lVHYCTJwQgKQoaySfC2QCAiZtjk0Vy9k6iYVyz56XnOl4I9MfUmIoatlbb72Fp556irEytNGgq5sr2+U8cIqPjLcxCACF5KWPTwRkzpUYfWRCvw334Ol9Y+52/l6VbveQx+ET8T0ER/8UOwx/QGTcnxAU+RN4hD4FV1LqpzzXK+wZ+O94EUFRP0eY5j8RoXsdEZrfIVz5BxzMWYvypkwM3+phfi7px3yQfMgFyRlLkZixGLp9VohM/BuCFb+ER/jTDDz4RTwPRZyYAZn6nvNo7S5HXlEsYvY6IfaAFZIOOSD1kDNoU8tQxa/hFf4sqMw8aOHrSb/5c+4hT8Bv14sI07+OnQnvICrxPSji34Mq4X0o49+FIu4dRMb+Ddv1f0K4+nX4bXvuvgOZqf3iHfoMtql+jZxznI/MP4xAZicBGR+fL22yJawRM3eNoKAfBFRsbG1Y2GViZF588UXQfkDkz0lrBgMyX8FkT+j/mdv/Qt989b6ZU19fj6HhIfzzn//E8PAwzpw5wzbHoljuU78C8C/hWZsSiAkIYOLt5cWAzPETJ1jdb348gez6E/BO94GjbgFsdVawYM7+5PDPmXvxCrdcR+yAHBY6OduzhML9ynUckLHWW2G+3g5u+zYjsyYD3ROdaBi+ikN1R7BhrysWxDiCricmhxgZO70VZ16ms2AAhwCBVCuCXMvth0KKukQrglhrDjFLxaBgAmK1iG2YKSfAo5GwgAJyjQgyrYhdT9fIGCASc2yP8ZjOWcUSYOAAjEwrhVQrhaXBEjYaa2xI2YDEwiQU9RShcaQBF9ouICwrDCt2L0f0OQWu9F1BxUAF0ir3wjPdCwv0C5jJGQNnWjlsdByQkeo4hkpEZdaYQaQxh0hLAItrSwIwDPjwbai3gpXBBnIGZmSsznx0NNqQVML8cbhAA+w8u94KVowRkjPgx4M4S7UMSwzOUJ+JQmVvGT765AP09fXBYDCwcJ40tolxpPHNy6wd08ZgBUL5bzsIz5a2oKAqBGTc3NwYC/P0008zs5L/+Z//AbE05C8QEBh4h3h5ezMWJycnB//4xz8Yq5FXokSk4ffwDP4WByjIzMtEGMggxsTknOn/93pMir9X+Hfgs/WHIGDhGfotxpbQ9ewZJvd3C3kMnuHfgnvIM/AIe4bl9Qx9DmGRr+NQ9lqU3cjA4M1OVF7PQuL+hQhVvI5AxWvYEv1z+O36MXy2Pwf3sGe4+wbNYewKAZnz1XGo6jyFG+0XkZMXhnDl77Flx0sI2vkKQnf9FP7bXoB7yNNwDX7s023Aly/kdvu4hz4Jr/DvwWvbi/Dd9hIT/4iX4BfxIvy2vgDfiBfgFf5DeIZ9D1R/vp73JaU+MfYL3zdeod9ChOo1HCcgM9GOT/75T5zKy2O727NIdsY9RWbLGBfK+fnrEgVlIJ84iUSCZ599lq0Br/70VRbFjM5TG/K6mNCen9+eQhs9em30yAGZ4IAtIPlCQMbot2IKZMiUjIAMhfolIUVeqpPAWm8NR50jtuVE4FJrISY+HEFtfw0MBbFYvXsdHGIcYcH8YjgQwwcDIADEASIJAyCWWhlsdFYM8BC7QkCGGB8JAQStFGK1hIueppbCSiuDNZWHgIzGjAEZYiY4fxsJ5BoxJCpziFXmzFmfNo4kIMNYDDJrI3+ZGCvYa+0QciQYZ+pPM/B1dfgq0qsy4LXfC8tSliCuMAYtozcYOMuuz0bg0SAsMrjALsYeljpLWGstYauxgFxDoE4Oc60UIo0IYvU8BmTMWTQ3DshYs2AIMtZ2ZJ7GfG9iFjAfHQkFHCAgZtyzRsaAjBnE2nkQa80YqCGAR3461N4EChlwIyZKKwIPZFRTgIzeoBeAjAB8JqMqfdMvPPoSR0oMbfRHDv7f+ta3mBLzk5/8BCtXrZxUYHiwTSkpNrSHyIkTJzgg8+Eg8otViNb/AZ7B374TrBgVdqZ03wcgQ4CFWA6P0CeZEFjhQRCv2PO/GbgJeQx8HqaoBz2JoB2/woFjK1HceBDdY9dx6WoqNMnvwTP8Owy4uIY9CbewJ+AW+vhtpidoDvy3PQ9lvDnOVmpR2pGNutbTSM/dDN/w5+Ae/Bg8gh+HZ8iTrHw8KODLwpft7uljIEDjETK9EIChet/9+ttA7gvlmQ7IhH0XEZr/Qc75UAzd7GZA5sy5fGzfvh3Mb8q458g3PXaF598/ZZHWAPqYQWsAsbLEyPzmP38DZ2dntjYIbX3/2lpoy4ezLQUgcy+MzOcAGStiaFjoYjHsDfZYFrscSZeTUNlXgZEPBnGppRDBR4LgEr+EARkbvT1sdTaYryexZqZoBGIsdcTyECixhK3BBvNj5jO2w9pgBZsYG8yPd4BD/EI4GBwwX2cPB/18OGjt4KCzg43OEnICChozZlJGyj1FHZsfYwNbjSWs1Raw0VoxcGRjsIaVgQNJzKeHQjTHWMFRvwCasxpUdVaheawJ5QMV0OXFYF3SeixJWoSEwjh0jrdj8FY/cq/mIigzGM6GRbCNsWPMiJ3OBgs19nDQ2MNO78D8bagOjjH2sI+1g6WenmnJAJsNA2pkhmfJAiA4JyzCspTVcE5cAjs95TfWnQAei/Rm9EVifkhiBl4YkDFwQIZM8TgfIrEAZASwMmPAyme9OAnI8OFqRSLR5NdY2tXbZbEL2+HcFMTQMX2VJyBzLPsYY5InPhzGxdJYaOPfhU/oc+wLP6/AMzBBbMkUhfkLKdsmbMu9XMc/m/Lyx5MpMStbX0DsQQtkX4lAactRHC0KxDb9f2Oz0eSLN/1iKQ/ECMhs/T6iDH9GRoEfTtWoca5Kj4TDtvAMfALuD7B+99IGXyYP30beEc9BEfdX5BUpMfbhIAdk8s5j27Zt8PDw4L7Mm4Qn/qzxJfw3O5Q2YmU3btqIP/3pTwzEEJCh4B+rVq+aXMdorRD6c3b0p9BPD76f5tTV1WFoaIh93aP09OnTbMKYmpY9NB1D8fQDtjAhRiZ8awTItIxMNCY+GsfxuhPwOmw0LdNaMZMtC63R/4RMuMhRXkdmTMS+SCHXypg/BgEZqUbMWIeFsU7wSPNEdkMOGobq0T7cgsyKI1iTsBKOMQvgEr8YSxNXYnH8YjgZHLBAZwNbrQVkGjG7FwGYRSmLsDR1KRYnL4Fj7EI4xTlj5Z5VcDvsAa90X7jv94Dnfg947HPDprQNWJ20Eg6G+YxlMVPPY6ZrdrF2cEl0xto9K7E8dhFWxC3Gmt2rsG7fWqzYswJO8Qthq7dm7A/Vi0DPkrjFSC3eg+bhNjSNNiOv7TyC0kOxLGYZXBKcEFcQi87xDgzc6seJ+hMIzAiEs96JgS4rrQWcDQuxIXEtNu7eiM1prvA+5A3fQz4IOOyLzfs2YlGcM+wNdsxsz0YrZ/W201nCJdEJGw9uRkB2KPyzguB6wAObD3lgRcoqLE5cisWJS7AwzhkL4hcywMT8hxjoI/BnyfqE+oLOEyNjoZJiid4ZytORqOgpxYcf30Jvby8ERubBLzAPzdrxNYJDUlKsrKyYXTwpMd/+9rdha2vL2BceyFA70jGxN6T4HDx4EB9++CFjfK/U7sfuAwsRsP3n2Bw4Z9LciynHvJIfZDz/oNMpgMYj+CmE6l6DNl2GtFNroD5gDu8dP8Cm0DnYbGLyRcf8bwJi3mHfxrbo1xBz0AKJx5yQnOmE7TG/hfuWOXAL5MAaBQWYVTKlbai/Anb+FEn77HGlZh9ufTSOWx//A9nHTzLmztPTUzAx+hrn4Te1VhEjs3z5cpBJKc1/knfeeQcbN26cBC9khvpNlU94rvDenOljQAAyXwLIcEoz+c7IQCZgtF8M+bRINRKsSFqBqJxoXO4sxo2RRtT0VCPhfBxcdE6M1fDJ9MPO0wqEHg/DqsQVcDE4wl5nBZlGBIcYe6zdswbBJ4IRcjIEnke9sS51PdbuXo+w3K2IKY7HnvK92FO6B4eqD2B/5V4kFCUg8mQU1u/dCPt4B5irRbCNsceqfWsQlB2IqDO7EJYehIiscGjPaxFXGofoQgXW7FmDBTHz2XPJOd7BYIfNezchs+YYOm/2oX64AQer0+G6xx0u+kVYnOiM2AsxRiAzwIDMlowtWGRwxoK4+XDQ28M1bTOUuQrEF8YjpTgFB6sO4khNOjIqD7PAB577PLAifimcDAtgpyUGyB5L4pzhccgNygsqHKg9jPT6o9hbfQBxRYlQnFVj15lohJ3chk2HPbF090pmgkbtzAIXaGUMTFJ/EMCkcwKQERbdmb7oTi0fARly7P35z3/OlJgnn3wS5ubm2Lx5M1NcCcDQNZTSByY6jo+PZx+gbn44iob288jNC0WU9h14hb0Aj5Cn4R78BFPq3ZjZ1ZPwDH6KmU7R+QcqIU/A1WiCxnxsQp+Bb8RzCFL+Glv1b2KL4lfYHP4dbGQ+LY+Bykv5NxuFyuoV8gy2RDyH8J0/w04s2KKWAAAgAElEQVTtG9iu/i0iVK8jaOeP4RHwmAmQeQyuQY/BPfjxOyXocbjPFAkmEzWunnxd3cj3JvQp+EY8j0jd35B90h/X2i/gk08+xvDoB9i7/zDz6TN19p86hoTfs3fd4+f/L37xCzb/KXqhRCqBu7s7N++DAlmQB6GPZ28fC3339fYdAzKDQ4P45JNP2IuRGJnAoEDmS8A7RPOdwH8dnLVpQACCtvgz8fL0ZIxMdk4Oq/v4h2PIrs2B1yFvLNAuYGZYFmrOkZ4c6mWkPDPFmUALKdBSyDVSyFRiWGvlsNZaMB8Rtz1uOFhyCA1Djbg21IDT104j/Gg4FmocsfHgRiSW70ZhWxFONJ5E9OlorIxbjgVae1hoxFidvBz6fC1OXz+FnMZsGC7HIDgjFGGZEci8moWLHRdR2VuB2t4q1A5UobyvDCVdJTjbdB7aghisSF0DS60tFicsQ2juVqRfzcCFlgs4WXUKp+rP4HJ7EUp6SpDdfAKeh7yxMMYRErUZbLSWcNZzfj15TfnovjmAou5SRJ6OxoqEFViod8SiRCfEXIhBx1gH+m7243jdcfim+2CR3hnOsU5Ym7Ia+nwdzjSeRUlnCcp7ylAzUI2GwTo09Ncxf6HD5QewLSscqxNWwE5rw0DNloO+SCvZjbPNZ3ClpxSlfeUo7r2Cos4SFLWXoLijDCdvnEFMeTLW7t8EO8N8xn4RaKHNOYkJk2k4dowYGTpHjMxivROUp3ahvPsKPvjoJnp6eqDT69gXbX9/f6YQ0vjmZdaOaZOABUIdbgdvmE1tQU79K1aswO9//3umyDz22GP445/+iJUrV06al9EaTHUiIEM7vIeHh6OmpgbjN0fQO9KMmsYcHM3xh9JghpCdv4F/xE/gHfYCfMJehG/4j+C39cfwCf8RvMNfemDiFf4iPMNfhEf483AP+yG8w1+A/9aXEbT1VQRt+xUCdvwXfLf/Eu7hL8Mt7Dl4hT0P77Dn4Bn2Q7iH/YBd4xv2IoK2voLQ7b9A+PZfI3zHbxC07RcI2Poqtmx9GV7Bz8Iz5Fl4hFJ+uvZ5dh+fsOfhG/bCjBSqJ4ln2AvwingJ/jt/hqBdryFa/w4ycrxQeTUTPSNN7L1UW38DKpWOKbXkH2VqYjSbxrhQ1s9em8jRnzbBJDaGHP4XOi1kjCxFLaO24+e/0I6f3Y5C+zya7TOntrYWA4MD+PjjjzE4OIhTp06xiUPKHg9kHprBQZGqtvgzISATFr4Vx44fZ3Uf+2AUx2qOG4GMA2zJtGwaIGOh5YCMhRHMUB6K1GWntcYCnT2CDgWh8PpF9E70oaK/GinFe7Bptysc1A7YdGAzMq4eQ9tYF+oGG3Ds6nF47fHCIt1CWKkl8NnnjnPXzqJrtBU1/RVIu7IX2zJ2QJ8Xi4vdl1HaXYay1jIUNxXj8vVLqO2tQ9toOzrHenDqxjn4Hw3CwhgXrNu9CboLBhT3lqF9rBsdw71oG+lC62g7agfrcar1HPzSA7EwZiFEqrmYr7PB6viVSL6chLKeCrSP9yKn4RQ8KVx0jCMLArAoicJJG9A+2s7qllmbBe9DnlhqWILVSasRkbsNp6+fxo2hG2gYaEBpexmKW0pQ3VmN5oEmNA/fQH1/NTIr0rHlgC8W6hfAc487dl9IQnnXFQZ6LjcX4XT1GZyqPoO6vqvoGu/F0AdjqBioxZ7aQ1i7bxNs9XYQq80YYOFScw7YaKXMtGwSyOicoDi1C2VdJbj14QS6u7uh1WkFICMAH7a+zag1LSgQmzZtwnvvvcf2kSFl5rXXXmPOvlPLSWsyKbRkZpSamoqWliaM3xzCwEg76q6fwen8KOw/vAZJaY6ISbWEfrccMbstmRh2W7DfdO7BiAy6FCkTbYoEuhQJDMlSxCTLoE8hkUOTIoU6RQx1sgjaZDEMyRJoks2hTJoLVdI8dk3cbkuQxKTIoE0SQZXwHqLi/oro+L9BkfAOVInvsbzKFHNo2H3oXiLoksXsenqufoYIVxauTXSpcujTrJB8cBH2HVmDE2cjUNNwHH1DzRj/YARDQ8PYv/8wAgODmTM4MTJTx4Pwe/YrbtSvtHcUmZTSR4yf/exnWLNmzcOnfwnvHmH+fk1jQAAyXxLIECPDwjNrOSBDZlIrEpdBlavC1f4GjNwaRkF7ESLPqLEiYTXsdfZYnrwCaWX70TTchpaRFlzqKsbOrF1YFb+SmVqFZQShvrcawxN9TAGPzTfAf98W7DgRibSK/dhTtBfJeSmIP5mA+JOJOFWbh6ahVkx8eAtlfdWIPKvEstgVcN/jiYTCBFT0VaHv5hCGP5jA9aFmFDRfxOGqDBgux2Nd6kbmVD9P+T4WGhbAb78vjl89joahBjQMNrFnrUhcCTu9LQtMsDjJBTHnY9A+1sEBmZpMeB1yx+r41QhID8T+qkOo6a9B51gXilqKkXoxDYZTBqRdSMO5urO42leH7rE2VHeVQX1SieUJyxF6KAh5DafRPNyIos4i7Lt8AIqjKiizNDh7LR9tY50Y/eAmLraVYNdZFZYmrYCN3oYBGQIxDMioCchQtDYJAzQCkJn9L/ZHUTkjcGJtbY3vfve77Kvsyy+/zH7TB6WpX2PJT8bN3Y2BcnL6b2q+jtGJYQyOdqC5qxRVV7NQXJWG8+WxOF8WgwtlsUzoOL/M8MDkXJkeJPRcVpZSA/Kv6HHuihb5V3SclHJ5qFznSzmh/89eUePMFRXOlepQUBbH7kHHdP5UcRRyL+9AbtFOnCyOxOkSBct7tlSLvFItu4by5pfquXvS82ealMeioDIBBVWJKKndj8qGLFxvv4TeoSaM3hxGR1cHzp07j9CQcHh6erGIZbzf6qM4Px7mOlOo9f/93/9lHzHIrPTNN9+Eq6vrpNIrWA0I77SHefzfj7oJQOYrABk5Kc9qc1hqpHCOXQiP/W7YW7QXvePdDMjk1p9BQGY4nOOWwEZvjQUGe2jOaVDdTQp/O+oH65F0IQVuqW5wiXOC+mQ0WoavY2iiF3mNZ7AteytWJ6zBmtT12HTQA277POGR6gWfPf4I2BuC5HN7UNVVjw8//hj1gw0wXIjB6rjV8Ez1QFJBPCr6KtB/cxDd4/04VXcaipNR8NrvibVpaxmIkWrleFf5PlziFkOZq8TlziI0DV/HlfZyROcq4aB1gJXWEjZaayxJWoLYC3HoGOtE70QvMmsy4XnQDZtTXKE5q8flrhK0jbahbbAdGVcy4L3Xk7E8HvR/rgIFjecwPNGLnrEO7CveC7c0V+w4uh2lHcUMyOQ05CD8WATWxW/EpiQ3JBelMtZqYGIYOTUnsTHVlYFBCklNfjASjTlre2p/DsjQJqIUtc1oWiYwMpMvwvuxUAj3+PpfpkuWLGFfY4mRIUBDDr/kJ8MDGZ4hp9TTyxPr1q1jTuCHMzJQ19CA3oE+jE+MYHSsDwPDbegavIaugQZ0D1xD92AjS9k5Ov+ApHuoEb3DTaw8xDT0DF5nz6aUlPb+oRb2HzFKfcMt7ByVtXPgKjoG6lm52XVDTegeuoGuweuTdaE87QO1aO2vQftAPToGG9BB9RpqRNfQdfQMNaF3qJndt2+4FTNF+odbuTqPdqB/tB3DI12sz8bGBtA32Iv6G9eQc/Iktm7dDtfN7vDy9J40MRTm4dc/Dx9kG9Ncnj9/PmjfGH7eW1hYMNaVzAipLAKQebj6/EGOr0flWXPIzrp/oB8fffQRBgYGcPLkSbabLH31oy9A/MvTdELxE2vWpbTJp78fE08PD2ZalpWdzeo+emsEWdXZzJzKQeMAG40l5Crag4UT+uJPvhgyjcyYSiBViWAW/T7kSjGWxCxCyNFg5NTlYOTmALrHe7C/6BDWp7nDTreA+dVYqWUIywjGhcbz6BxpRctwEzLKshC8PxiuezYh7fJudI+2YmC8C0fL0+F9wANL9UvgYliCVSlr4XHAG0EZIdiWvROqUzrsu3wI1Z1Xceujj9AwcA0x52OxLn4tPJPdkZAfi7KeMvSO96Ku+ypiz8RgXcJKLNDYM/8fiUoCkUoMc6UI61LW4UDRATQMNqBhoB7Hq0/A74AfbNQ2rK7WaissTlyMuAvx6BjtYPckION10B2euz2RXLgHjUPX0UUmc231iMnVY5nBBQ5aGyzWOsJ3rzsySg6inwDeRD+OVWfB77AfIjN2oLStCK1Djciqy0LI0TCsiV2P9YmbEXcxEeW9Vegc7cbh8iNYalgKS5UcFmoKqkC+MSJICMSoRbeFzmlEkCslWKxzQvTJnSjtLMbND8bR1dXFTMvIv4DGNu8nQ2OcH+ezbjyb+PgIZb/t7zTb2oLWVlJaNmzYgLfeeot9mSWH39dffx0uLi5MmSEww49Zyk/HtPfE2nXr4OXnB01MLE6eyUPj1Rvo7exDT3cv2jvb0dnZjq7OdvR0dqC7swOdD0iIUeCkE13dPejrGUR3dy86u7rY+e6ubvR296Kvux/9PYPo7x1Cb08/urt72Fylcnd0tqGji7u+s7sHHUah+9C1nV2daO1sRVNnM1o6W9HS1Y62rk600zO6u0HXdHb3oqunD9107xkiVM/engH09Q6gv2cA/d396G7vwfWr13H23HkYkhIREByCDes3wd3VA/5+tzenfijew4/gukX9xgvv90LrFL2L/va3v02GXn/xxRexYuUK+G/xnwzNPtvWM6G8s/ddNFv7TgAyXxLIUOQsqVrMlGmZQoyV8cuhOaNGSUcxhib6UNleBeVJDRbFL4WVxgYyCg6glMA1dTMOlxxC42ADOkc7cLG5CLpsHbYf3YbcmuPoG21Da/81JOfHYU3iCqyOWQGvvd5Q52lxoOowjjfk4tT1syhoLkRx2xW0DbXjg48+Qv1AA3TnY7A2YT3ck90Rlx+Lku4SdI62M1+VnUcj4KSzh5VKxsptrjKHTCWBvcYaIYcCcamxEL1jXajqrcDuwmSsS1wLK40lAzJWakssTVyC+IIEdI51on+8D1nVHJDx3uOD/UUH0TrSgu7RDpReLcb29K1w1NnDRi+Ho8YWm1LWYP/F3RgY68LozUHk1h3HlvQt2Jm+DRcbz6F96BoLBpB8IQXbjuzEjswoZDWcQO1AHar76xFfmAAnnSMDljJjm98BYNRGUMM23zQXgMwjqCjM1gWYyk0KDgEV2vDQ3t7+DqWG9pchoM0DGR7M0Dk6pshG6zdsxEZXNwSHhEEZpYZBGwO9zgCNVgutVgu9VgeDTsdSnVaHByVaepZOD70uBgZ9HEt1OgPoPJXPoItBjD4Osfp4JnRM5+g/KiOVna7X0jX6GGiMoqP76WJA91JrtVBpNVBptVDrdNDo9NBQ3Y3XaFm+WOjp+TNIqD2ovky0sdBrDFBEKhEYFIyNbm5Yt24D3Da7Y4svbRdwO+LPpDIszPFJpmK2zH2+72guh4SGsHm/du1axsLShwvaEPeNN96Al7cXm+9TGZnZUk+hnAGzbmzO9j6bU11djb7+PrYnQX9/P3Jzc1knmDIys72Sk+UnhsnfjwkxMqFh4SBGhvZjGLk5jEwjI7NA7QAbNTEyYsjVnBBokaspUhkBASkkavLJoEhmElgpZPDY64ZDVw7ian8t2kdacaL8BLYcCmTmUJa0TwxFPlOIsSJ2ObSntbjUdhmdo52o72vEoYJ0pJ5LRXHzJfSOtqGqpQjKYzuxWL8QHimbkXYpFRebC1HRW4WynmoUNF/G2fpzuHCtEDf6m3Hzgw9QO3AVmnN6rIpfB7ckD8Tmx6KoqwjNQzdQeKMAoekBsNNYQK4WMd8SkWoe7FQWWBXngtiTGjT1NGJ0YhCXmgsQmb0NLlonWKg49okYmWWJS5FwPoGVuW+8l7Eq3gfd4Zfqg32X96N56Do6hptRXFeIsINBsFVawEIrhr3SAhsTV2J/4W70j3ZiZGIAOTXZ2HLYH1v3h+BUeRaaBupwrb8WRS1FOFlzGjl1p1HaU4my3kocq89FcFYo5mtsIVOaQ6oyg0RlBikDYiLIVCJ2TOdIxCozyBUSuGgXIjp3J650FGHi1hg6Ozuh0WpYxCeBkREW2sk1YQYphARMSLH51a9+hSeefILt8k2283SOvuJSmXkGkQc0lLoamRliZ9atXYe1a9YyIYdhEv73bEtNy75m7VqsNoppPdasXYPbshaUz1RM886G49WrVrPyb97sCj8fPwRuCURQIBexbiaOWaFMX24tJZBC7yGpVDrpF/fjH/8YUplUYGJm0JosjO8vN74fdLsJQOYrABmZWgpLjQx2ahtsz96GgqYCptDX9dch6WwSNiVvhKWaNtDkwgJLFSI46xYiJD0Ix2qymZlW+2g3LtYVoaCmANf6rqJ7pBVnqnIQejAALnpHhB4OxOXWS2gdbkZNby1O151D6rm90B+PRWr+PlS212Lig1uMuVCd02JV/Bq4Jroi5pweRZ2X0cKATCGC0wNgQ2UhIKM1Y0ySo8YO3mmbkV60H/2j3RgY70N2eQa897livsqGMTZkTmetssKyhKVIPJ+A7tFOlu94dRZ8DnjAN8ULewpScYPs04ebUdFYAkXWLjgobVnkNyeVA3z2uONI8SH0jHZiaLwPmeUZ8D3og4hDYThVfRw3Bupxrb8etT21KGkvRUHLJRS2X0ZGzTEoTmuwPmUDC9dMwJIHLpQSO8OEBzNqc1YvAcjMjsXnQS92s+F5tHv7+++/j+89+71Jp3+5XA5fP987vvLxjAyZoNAXXDIzI38a2kSPTNQEmb1tQP3o5emFgC0BCAwIZDIbxq5QxjvXXf6jg2m70Dn+N32g+M///E9mSvr000/jd7/7HTMrow1vib3h8wnpne0qtIfQHlPHgABkvhKQkcFSRTvaOzOzq6v919Ay1ISLLRexPX0blsUsgVhpBmI/zFXzIFGJGLOwafc6pBSmoG2kHYM3R9HS04723g7GdjQNXcfu87vhtdsdS2KdoDgRicbBaxiYGEB5ezn2XtiL7fu2I3hPKPS5sbjSVoHRWzdR0VcDVZ4aq2JXwjVhAwxn1SjuvIS24RZcbipCyJFg2KgtGBAQaeYxALDY4ITtWWE413CasTFtgy1IzIvFyrhFsFHKWXl5IEMR2ZLPJ06CkRPVxxiQ8UpyQ8KZGFztq0LXSAtudDZgT/5urIlbjSUxS7A5cROUxxXIq89D71gvuke7sP/yPnjt80BU1i5cbC1E02AjytrLcKnxMnJrTiGjPBNpxXux43gk3NI8sThmCex1drDUcD4yBF7kFBpbLWVCxzygIb8ZAcgIC93UhW42/CblZUvAFixbtoyZm1AoVt7chBz7iX0xVXAoLxOjmRl94aVQrmSiRuGZBZl9bUB9R334UFpEPGJf2qcDMrQO0RymDw/k1E8hl8nJ/6WXXoJILJp08p8N65VQRuE9O1PGwJyqqir09vXigw8+QF9fHzMto5cjOUXz5gt8YfmJOWtT2huHvmz6+YI3Lcs8dozVfXhiCJlVx+BxwBPz1fNhTaZlSjEzLyMlWUpsgFoKmfq2aZmFygKWCkusTVmHw+Xp6BjpQOPANRwqPgivFA8s1DpApJgHM8X7MFfOhVhlDmu1BRYTQMmNZn4tfeNDGBgdwvD4CNqG29hGkDuP7WKAZKHeAZEndqG+/yr6x/pR3VmDo5czoMnQQH1ci0Ml6ajqqQNF9irpKoXyTDRWxi7DpoR10J9R4VJnIVqGmnGx6TJCjoTAWmMFiUrMgBX566xLWIWEc7Eo77yC/rEelLaUYltGOOYb6y5SmnE+MipLLCdGJj8OncOt6B/twrGqo/A+4I4NMWuw88hWFLUXoGPoBrqHOnCm9jQLKx10MBiaHA2yyrJQ3lnB2qemrxb603ps3L0eyhPRKO2+gqbB67jSUoozVXk4cvko9hUeQOK5JOw8Fgnf/f5Yk7gGC/ULQSZuVmo585UhEGOpljGhDTApMANtTkptfBvI7GCmZeM3R9HR0cFMy0hJMHX4pzHOj/NZO66NAQuE8nOBG2ZdOwTc/kpLay2NT9pXgjbGIzBDDsCWlpYgtoZMUsjGnq3JZG5m3DCPlCMSGsukBNM9HnWhdpit8llrEvX9rBvjj+AaZfpu4fuMn6MUxOO///u/GYh5/PHHWfjlxYsXc3M7UOhfYXzP0nfZNzTPBSDzFYCMtdoaDpoFCMkKRd6NcxgcH0B5Vzmic6KwKm4F7DW2kCjNQYBAxPw3zJnCbau1hF+6H/JbLqB1pAN9Y/0YnhhGQ/9VHK5Oh/s+DzjqHGGhsYDfEX9caCdmpR2tQ22o67iKi1cvofB6Ico7ShkI6B3txpWuYijPRmJV7FJsSlwPfb4WxV2cadn5GwUIygiGlcYKMpWUOftbKuTw2euJY6VH0dhfj/bhFmSVZsJrjxvk0WYQR8+FmXIu8wOyUMmxOG4RYs/p0U1hTEc7kFF9BO4H3LBcuwTuSRtxqHwfanoq0Dvag8bea7h84xLy6s6yjTvrumpwfaABtX3VSK88Av8DflhscEZERjgKGvPR1H8dTf03cLXrKipbKxmgKrxxEafrT+NoxVGoz6qxLnU97LT2XDQ5tRgWKgkDMQRsCNDQbwHICIvfbH4BMnASEMCUGV7RISdg2luCTFCIqaH68UCGlCI6NhUe0PD3epRTnq2aLWOCV3ZNy2t6zrQvTfMIxzNv3eNBDAFpOqa+o5Q+RKxbvw5vv/32pG/M888/D7FYzFgamr/Un/z1pqnQzzOvn4U+mRl9MqeyshI9vT24desWent7ceLECTaR6GseTaKHqqOoPn6+TDzc3RESGoajWVms7kPjQzhamQWP/Z5wUM2HlcqCMTKkHJOj/21GhoAA5+xvp7PHspjliCmMw5WuUvSN9SH/+jn47PNhO9cTqyNT0rXkkC5ibAE5oxNrsDplNeIvJeFCyyVU9NTgWv91nL1xFjtP78TieBdYqC1hphJhecpqxF5KYptCNg21oH9sCG2DbcyfprS5CMU3LqGyvRRnrp/AjhNhWBHjgvUJaxF9OhqnbpxCaVcpjlZlweugDywoCplaxpgle5Utdh3bgaLrl9A80IiKzjIYTuqwKn45zKPehZniPcxVvAeJWsQYjkUxjlCejERlZymquyqQXJSMdWnrsVC1AEu0TtiaGYyjFRmo6axD82Az2ofb0DbUipbBJjT3NaKk9TIOlu1HaGYIVsQtg4PWDlszQnHx2gWQSRvlvzHQhGu9jWjsv47rgzdwbaARjX0NONl4CttO7oBzrAtjZSRKM8aUmTIydwCZaAlcNAsRdWIHStovY2xiBO3t7dBoNMxsg8Y2/4LhXxQP1Tj/hr6KCG14/xZ1Mj2ZN28eSMkh0xMyMaN9ZWjzPAIuU9uaV3JNz/PnHtXUtC2E4/s3NoW2/Py2JN81aideh6I5SPOWLALIpOzVV19lbCsxrv/3f/8H2kOK3kt82/LvJdOU/09IP7/9hTZ6tNpIADJfAcg4GpzgutsTR2qPob6vHm2DrThadgSrE1bBSm0BObEfRhBDKfnImCvNYKY0g0OMI9wP+yIqT4uESynYW3wAijwV1qatM5qASRmQcYhxgscBX8QWJuJ47QkU3SjCuYY8ZFUcRfzZGOhPqhGXb4AyLxKu+zbASb8AS2IWw+uwN1T5KiRdSkBUbiRWJa1kAIxYHgqrvDR2KVIKd+NGbxNuDDQit/YEQg4GwsXgBFE0mcK9j3mK941RwMRYoLOD7wEPJF2IQ0phIoKzguGUsBg2ShsWGGBl3BJszQhDWuFeHK/OQV5DHs5fy8fp2lwWQCD2vAE+h7ywPGEZHLWODKxpz2hQ01WNjuEOlLWW40RlLjKKM5FdnoPzVwtQ11WP3tFeVPRUIKl0N1YkroKNypKxRTIlt/Elx8ZIJxkZamOLaClcNE6IPrETV9qLMD4xio72DgHICABnUlGY6S86UmoWLVrEHICfeuopBmZeeeUVyGQyFnJ5ppdfKN+jpUgI/f35/U1si7OzMzMjow8TBGLoQ4WtrS1jY3jQQm3JH5umQht/fhsLbfRotpEAZL4CkFkSvwJbj0WhsKOUsRANXVeRdC4BC7WOnDmZYh7ESnLyp7DBtNcJ+aeIMI9CB2ssYWtwhHPCcixPWoN1KRuxLHE5rLXWMFeYQ6yWQKKWwlprC6cYF2zcswlbMrZg27GtCMkIhMc+N7Z3zZJYFyyNd4FLgjPm6+0YCLLV2GKBwRHLE5diffIqrIpbDHutNTNvs9BagJgkj/1eyK09jYHxETT0NSC1MAWbE9fDUTN/kj0i0zLmJ6MQwU5ticUxjlgbvxTrElfAOc4Zcq0tpEo5LFUy2KkssUTvDNeUjfA75IfgzBAEZwbD/7AvvPZuxorEJbDWWIL2pLHXzMfGvZux98oBZi7XNtyBY+XHsS1zB/zTAhF2OAJxpxNw5UYZhidG0dB/DftrDmNl4hrYKK0ginqfMTLkG3NbJMxsj9gzHsgoTuzClfZijN8cE4CMAGJmDYjhX8a0R4yNjQ1+8pOfMCBDgOa1116DnZ0dvH28mbkKn1dIH80XuNDvM7ffiYXh+4csAPgNb3/4wx+ySGXf//738Ze//IWd5/MRcKFjUwDDH/N5hHTm9rnQN99M38ypqKhAd083bt68iZ6eHuTk5LBdZfnIKfzEutvk4ifZrEj9/LCF6FtfX/CmZRmZmazug2ODyKjIZP4p85X2sFZaQKYQgb7801d+iZLMwySQqqSQqCQQq8RYnrQa+kspKO6uRF1fPc5fzUfEkXDYq20xL3ou5hGzoZjLIpexe6jFMGdARgRzlRQilRxSjTWsNHaw086HpcYaIoUIcxXzICKTNo0Mlhor2Grs4EigJ8YJLjFOcNTNh43CioVFliukkCooLLEUFhoKryyDRCGBKFoCS4UU9ioL2CtlkJOvjmoeLLWWcNAvQPCxMJy+kY+e0X4Ud1zBruM7sMywGPYUdlkpZnVmvi1iLRcAACAASURBVD0KM0gV5rBWSGGrkMFeIYOdUg4KdCBSWUCslLIwzbY6S9iprOCosoOj1gELDU5w0DlgvtqWgSALpQRm0dQWItiobbH5gDvSyvfjxsB1XOtvxIHSw/BPD4JbiheCD4YhPi8ZRc2l6BsdQGl3BWIvJ2Bp3HJYKywhVZjBgqKWmQAZCl7Al9syWoYlGmdE5xAjU4zxiTG0EyOj1rCoMKYO//SCmWpmNivGsjFIgVBWLljDQ9cOW7h6kT29mZkZSOkhE7NnnnmGOQmTYzDV+W7rsp8/Z5v/0LWLMO7v2udCX8+ctYDmJTEw1Cf0fnF1dWV+MC+88ALI742ilb3++utYvXo1Mzfj5zH/LuLfS6ap0L8zp3+FvphZffEIAxkPBIeG4YgRyAyMDeJIRSbc9nnATmXPfGRo3xepUgSx0pwp4FOBzJLkFYi5koxTrfk4fv0k4goSsTFlE2zUNhApzGAePQ9m0e8zVoPuQRHDCACZK0UQqSQQMcd72qTSkoEYuVrO/jNnoIN8cyhKGoUctoSVlgAPgRdLkPO9VEEMhAxipRgiBra4/HQNO6cQMwBiqTCHpcIMMiW3WaSlxhLz9QsQkhuOg3UZyG+5iJQrqdiUugEOGjtYqeQcIFCKYK4wY/WQKMxhoRDDUiGGFRMJ5EopxCoZJFQHpZhzvFfKYKO0gI3SEhQIwZLKqpDBQiEBtSW1CbUBnV8U74KtJ7Yir/UsyrpKcPxaDhLKdiOxZA8OVmbicnMJyruqUNJajr0l++F7xA+OegcOYBqfR0wQCQ9oZCoJd38CMtpFUORwjMzExDg62juh0Wjh4+0DXx9f+Pn6wd+Pe8nwLw9hcZpZi5PQH/4MeNN+E3/4wx8mQ7WSEkQbZZLzP4Fy+vJLNvnUXjSWmVK05fbYNlWG7vex0EfCnBHGgD/zb+HfI5TyPjGUEhNDzvw/+tGPGIghIEOb3trb27PrWPuZzF9+Hk+dq0I7C3NNGAPTjwEGZLq6uzAxMYHu7m4cP36cvRBNGZmHpvH8/OFPCqyvH9zd3BEUEor0zEyMT0ygf3QA6eWZcCUgo7SHpdICEoUIYjLzUpizY4mSY2R4VmZBrBN8swKw/Ww0Qk5EYPN+Tyw0LIKVygoShZgp7gRkzBXzjNeLISG2g4kEdD+ZSnZblEa2RylmYIQACbE/JPRMJlQGJXctY4ZM8lJ+do3xGWIFRR97H5Lo9xiLQYwFhTAm9mfDgc0IzgnD1pM74XbQHfN19gycELtD9WZ1Z9HLzCCJNoc0WgRZtAhyo1A+KbExCgnExvwU9thCIYUFY4CIBZJBxvJw9yQwI6M6Uz6lHMuTl2Fn/g7srtyN1Jq92FN/EEev5+J0cyGKOiuQXXsKSYWpCDwShMWxi2CtsjDem0zKCMAQMySfPEfgitrGKlqOxZpFiCYg01aM8fExdLR1QqvWwseHwtLSGPAXgIzwdZutdTN1feODUlDqstgFv/3tbycjHRGYeeONN0DRzWi/GL4O/Jdd+j1VEfo6fvPPFdLpX7BCuzwa7UKb0tI85fub5iE59xOIEYlEzDyUwiyTX8zPf/5z5utGLA2fn09pjtLxdHOVzyOkj8aYEvr53vtZADJfAsjw4ILMvhbGLcLihGVwinPBfL0jrNTWkNNmkgoxA0Ci6HlGVoPM00j554AIU/BJyTcRBlDIbG0acPJFzvFgiQMyc5lzPJmHkfkVKf5WSis4xpB/jgtc4mizSXsGBgiwMDECk8nfRiBDYGZSGONDrM9t4MNM3MjMTcGBFUoZ4InmgBExN0yM97HRWmHp7iXwyPSAf84WhOdth7JAB31hIgwFidiavQPe+32wImE5bNVWIPM0BoSozUwBIB0b25FYMwHI3PsCICyWM7eteGWG+sjH1weOjo6MifnOd77DFCJyGKaIRw4LHLBp0ybG3ghAZub2pzDXZnff8CBjun4knzVTIEN5CcSYm5vjpz/9KfiAHS+//DJjZ+g/0/vwc51/hulv/tg0v3A8u8eS0H/3t/8EIPMlgQzHfJB5F+cvwhRrYlSIDTEyOaYpDy4IrPBK99T0fgMZjlkxZyZmnJkcBzwIjFgoidWQM9MvadRtBoZnX7hrufN0PAlgTMDMZ+bhgY4xP+WVsXMiBpbEUWasnShssl2MNRzj5mNRojOWpizDyuRVWJ60AotinLFAa89ADIEwrg53bz9qTwHI3N8FQlhwv7n2JD8XUmJ4BYmYF3L0p430+B3BCdSQmZmVlRXWrFnD8vJghleAvs5UGB/f3PgQ2v7BtT0/F++lzb28vLBy5Uq8//77+I//+A88/fTTzLn/ueeeY+dontKcpHvRXJ06P+n81HN8/nt5vpDnwY0Loa1nRlvPKS8vR2dXJ8bHx9HV1cVMy2jSentzXxhMJ9B0k2s2nePMynzh7+vLTMsCQ0Jw+OhRjI2Po2+kH4fLjsJ1rwdslfawUMiZ8k6KvZiEsRRk0kVghTPtonMiYiuYCRiZdZkz9oXln7yGgM1tId8WMsmaVhTG+35VRoaxQUYQYmRZGAigOlC5ouZBQmZjUbeFO3/bjGw64HK/ztGz+HKIoogxmsdAipzYFLUctP8O7eNDwQrIv2YSxBjZnmnbjmdkiHWKksFFTc7+u1DSWoSxsVG0t3ZAoyJnfx9mXubn48f8ZEhJJJlN41go6+zdsf1e+44fl5ROmvlu8WdOwxSulTbI5L/yEqihaGZSqZQxM3QNvWBN78Ef88/nf09N6f+p5z7rN38/IX34x+Sj1Me8gvp5debzESAh8fDwYGHT//jHP+LFF19km9mSORkdv/feeyB/N9Kt6L40r/jUdI5Nd47P+3nlEf4X5uGjOAYEIPOlgAyBGSnERsDAm0wR6zAJYr5BIEMAiwEvBhjIT2YeEx40UEpCYIYAhZSBGw7UcL+nZ2AYo2LCyPDAhs5/EeFBFffceQxYMYYmmjN/o/13yN+FfG5IyJyMM1vj2BgByAiL9aOwWJsqN3RMShPVmzbLdHJyYkwMRTHjo5nRPjOkLK1ctXLSzOyrsjNTyzD196PQD0IdH831hgcp1P+m457/zX/sDQ4OZs796zesh1wux3/9138xXzbeJ+aV/3iFmZNt3rz5jvuY3tP0mL+/6Tk6FsbhozkOhX7//H6fU1ZWho7ODoyNjaGzsxPZ2dlswvCT9KFqRF8/+FHEKh9fuLm6ITA4BIczMljde4f7kF6agc1p7rBV2DFGhkAJMS68cMCFnNtNhXxhTIVjaW5fw4EKDlxw+Sg88nTC34dCMH8lmSyzGQMs5lHvg8Qs6j2WMiDDwA0HZG4zJAR6zCGJ+rTQeQIuU/9j+Xmfmi+Y8veje7D70LPJjM1olsb72jAW6y5tZtqOlI/YL4tIGRarnRF1fCeKWy5jdHQEbS3tdzAy5PBPkcv4l8VDNc6NIaWFOn3+AjiT24gfm3xqWlYyX6HN9SgAAJms0FdfioZEx2/98S22yR6FdqV8dN2XBTT8s++WmpZJOJ7d403ov+n7j8Y+6UNTmRRqLzpHc2zJkiV455138LOf/YyZktHHBTIp++Uvf8kc+8mHjf8Qcbe5xJ+n+/LHpqnQP9P3j9AuQrs8ckBmi68ftvhwUcuCKWqZEcj0GYGMa5o77IxAhgcjlJozhoWACA9iuGNTRZpnaHiTM1PwwoMU0/xTj/k8XwnEGM3dqMwEDliwgai5DMAQmLkbiGGmXjyg+LqBjNG0jAMyBI44kzceUPFghoAM7ZPD7ZVDrMxnmOWRud5nApk2qFRqeHt5T4ZgFl4SwgI4k1+C041POkdlJqWIlKiFCxeyTfWIjSFTMwI0zz77LFOgaLM9MkMjcxYe0PDX8l+bmXJl9MWZri1MyzDd8XTXCOeEefUwjQEa9zTXyMST5gv9puONGzcyMzIy6aQPCmQ+xs/B733ve2yfGNrQlvKxeXYXgDJ1XlHbTT1Hvx+mNhXqIqwR93MMPHJAJsDHDwG+/vB080BI8J1A5khpBtzT3GFv9JHhAQyBGBIRY14kLDWPJqaFfF84dsUUxHAA5s7/+Xyfld4vIDP5fCNgEEebcYBmKgszhUHhmZHpUt6MbOp/EmNEMgIf9yzGcnHAhczYxBzbY3IPYmUYiKFQzkYww5z5mX+RDFLldCK9g5GJPr4TJc08I9MGlVIFL0+vyZeS6cvifk4q4V7CIn0/xsB045NXaHjFiGzyV6xYAYlEwvamIBDz5JNPsq/BdEyhXsncbP78+cwBmcxbeJ8b3q6f7sXf77PKbVoe/viz8gv/CfNgto8Bfm7QeKePATTf1q9fD9qQluYcARjaH4b81IgRpUiCP/7xj/Hmm28y808KsUxtQPfh58znpZR/ujyzvS2F8gvrwdc1BuaUlpaivaMdo6Oj6OjowLFjx+Drx01aeuHRhOIfPt3kmk3niI0J9PFHkO8WeLl5IDgoGOlHjrC69w/1IaM0E15pXligcIClwgKiKHOYR5nBLGoeAzJm0bRJpBiUkhBzImFKOCniYjClnhR7ozAFnYUgNrIJxmNZtATTCXcPMcQEkr6C3H4+x3SQLwrnD2PG/GEIlNCeMFOFByvTpXzez/qPz3P3VAxZNInps+k3tcenz8ujaV+a20CGAA33m85NJ1LWD5aRcixVu0B1PAolLUUYGRlGS1MLFNEK9iLy9vJiyhyNb15m0zgWysoFaHhU24HGLO1bwa/LpCSRgkWmZn/+85+ZYsUHAqD0Bz/4AV599VW2qaZMJsPy5ctZ0ABSzPgvzVPXev7ek23sx7U5hYHmhf7j8wmpoKTMhjFAug0TY5CXyfFt/M2/D/iUz0t+aTRv6IPA22+/zYJtEAPDAxhiQr/73e+yiIKWlpbsowHNLbo/zRf+Ofx9Pytl15i8m/i8/D2E9NFe/4X+/3T/PxJAxo9euL6+2OJLICYAwb6BDMgE+G9B2p40jIyOYmC4H7mVuQg6GARnlROsFZYMxPBAxizaDGbR5kYQY2RoGEAgpXyqEj5VUaf/OSHl/G7C5+GByJdNebDBAwZplDl44c89+PTO+tPGmRxQ4dJPt6EY8igx5NHc/1ybSWEZLWNghgCNqdB5AkSiXWYgILNKtwKxpw2obC/H8MgQaqprsGvnLni4e4CAjK+3D3zZ5pifnhTCQiG0yUwdA7xSQ/tW8Ioj7R5OQv+tW7cOZM7yhz/8YXIncbLXJ8djUrqef/555oz8pz/9ie1xQYrZsmXLmPkZfT02rTfdn1gb/v5T08DAQAgitMFsGgP8GObZSNOU5g99ECDQQuZgxHQ6L3Jmoc3//ve/4ze/+Q1jW77//e8zxpPAC80t+k1RBOfOnct8ZegeJDwI4ucsS01Ajelcm3p8xzVGUDM1j/BbeE8JY4AbA3OuXLmCtvY2jIyMoL29HVlZWexlRl/raDI9LA1FDv4UfjnANwCBvoHwdvOEr7c3YgwG9PX1oW+oD/l1+YjMjMRy7TLYKKwhijSHWeQ8zI2cy0nUPMyNmgczxtKYMaBDzu+0D4ssSgT5PYhFlBgWxDRMI6S4070eRpFFiUHCARMpLKJlk8cEUui/qfVm1zDgR2CGE4toAjN3ihWBmmgpZFESSCJFsIm2hlviZuwtSEN9Vy0GhwdQdOkytoaFw83VVQAyd/ka+bDM9UeyHn632RFSoujrMdnuv/G7N9iu4mRmRmCGFC9iaQjU0BflX/ziFyz6GYWLJWdluoa+KNO+NASIaN8ae3t72M//tBAIcnBwEERog1kxBuY7zGeMCo1bNqZpXJsIjXuxRMz2eiH/MtqficKa014wBFbIZJPACwmZkNH8IXBD82bBggVsA0xiX+gDAGM7fTi/GlNQcq9rk+k1/PG9XivkEwDOozYGHjkgE0hAxicAvu7e8HRzw47t23GtoQFd/V0oaSpBwtl4bIhbD3uFHURRIgZg3o18B+/uehtvR76NdyLfwXuR72Fu1FzO5IztxUJ7s3w60tfUCF/cb94nhDNH4/xDjKZpUSJmzkYmbQ+biKNEIJFESyCNJsd8GZdGS9k5cbSY/c/nYymdYyZ7xmsIrJAophfa+8cySg5HpQNCD4XgeEU2WnpvoK+/B8eOZmGLnx9caQd0L0/4EO1PX7ru8QvZo7YwCPWd/S9DipTk4uLCwAkpZqSUvfTSSyBHZAIzvFAIZ9pYkyKe0f+kuNFu5LxQJKbphPxvBBHaYDaOgenGM5lfvvzyy2wekJkYzQuKPEa+L7z/C80RuvaNN95ggIeAPAXTcHd3v+PD71SzzS8KRvj8pqmwJs/+NVnow6+nDx85IMMYGZ8A+Hv6wJ1CIvr6Iu/sWbR2taK+sxaZVzIQsH8LHJQOEEWJ8d6ud/G3XX/BX3b+f/jzzj/hLzv/jL/v+jvejXwX70W9zxiaeWR2ZmRpPj81h1nU3cSM3Y9Yn/+/vfNqruO49j0fzn08t1x1Hv0N/OS3W+VT55Yt2aKOJFs69indur5Vli0GADtv5JyJyARIDACYwJwgijkgMYgJkQCIDJBKTp9i3fqtvXtjuAWQBAlSBLAeunr27JnuntX/mVn/WaFXXKl7W96Ku+b9Ghew+neFWkv9WnnbE3vkYpASdf07iWPfqWf9nrnymzqyyMV+f7D5t/KHzb+XPzd8Ig0Xtsv1sW6Z/X5SJibGpHHLNgkFAhLw+ZTIZGRgccwwImPWmRVjdU5+SeKjj3XGH/Cry9nHH38sb731lgYiuy/NKGZOaUNx46szBAcFzhEdq+dIn8li5cviX/7Hv+h9gNUSS8y//du/aYzZz372M/nFL36h1kqC/Qn6d54rEA4Xb8Z9yH3nfr8IGfGe47aT72/7/WqUYpPr8pPrmtu3b8v0zLT885//lJmZGXUt4yt1NBpN3IhuYt0NtdxqvrxTWM09NytXcjNzJSuaIUGfT0J+v+zetUuGR4dk6rsJuTl+Q3Zd2SmfNq6TD+s/krW178gvq/9D/qPqF/LvkJhN/0u3ITi/qmZtFlzMFiImi9v/Vu2v5Vc1b8sva95acYXr+lXtr+Wt2t/I27UQE4hMrLxdt1b3sT+5zB2/Vn5T9668gwWn/j8T5Te1a4XC/t9v+YN80vCJ5B7IlVP3TioxnXw8Jje6OyU3I0tSN26UoH+OyEBmiDVYbni28c4laTBZzC8LlCivIsUznN/4/2/YsEGzLv3ud7/Tr8q4leFGg5vMT3/6U7XKEEvzk5/8RBMFoMy58q//81/FFbfP6jn5mCzebFmQ+MIV8O0tEBYyjmGJ5F74+c9/rsRl7btr1XUOd01iZ7C+zGdxgbywn3stEo1oQg53H7r6eZ9X7nhv/bzn2nHzPxNNLitXLquCyDgAx4K7WX8hS9PwRoJBJTMkAujsaJfxx+My+e24tD/skK2XGiStJSAfb/lYPqj9T3m3+tfydtX/ll9V/bvWv6n+pbxT/Zasrfm1xmUQmwHpealSg2vZyi5ra9fKu7W4iL33ZEHGte/+oLzD8TXEx7yn5f369zWj3Af1H2i9tuqd2P+178mfGz+R4iPFcuj6Ibk9+ZXMfj8l/Q96pGnHDvFv2Cj+lFQJh4KiBAYSY0TGSNw82YHc82Kl1ShY+O9To3CRihm3mL98+hcNUv7jH/8oWG2IGyA2hjVoiJMhXob4gffff1/ee/+9ROG3FZPBcsUAmHbxYC4mjPgZ7gHuBYL9If0+/xx54d5xz4VkkuGIDPdYNH3uQ7A7fjG1t223vZjz7diVq7Tb3P5wbpXITE1PyT/+8Q+Znp6W06dP643qtcisFMGlk7aUzCQZGRJNT5f0SERjJlLWr5eGhu3SfatbZr6dlfFvx6VjtEt2tjdLweEC2bhzvfy/rR/LR7XvyW+r35Hf1ayV39a8Kx/WvCcf1b4vH9V+IB/WfiAf1f72pcrv6j6QlV1+q4H4H9V/pIuOsvCoK+z7qP7DJ0vdh7Hjaz+U39d9JL+v+y/5Q/1/yX/X/17+ezPlD7r//2z7WP7S9GcpO10mrAXUM3lfpr6dkKGxB3Lq1HHJZfGyDRslGgxJJkks9Gu1EZmVcl/bdfzwwf48MkFBIo0zpMYVnvuuoJiFI2G14mDJIasZ5MeKyeCNwEAwoJgEl0tRsLSAefDv7gd3jzgysVDN/eaIDGTHiMyLPZOe57llx5hskzGwaolMOspsNF2i4bD4UlIkEgrJzt275MbtWzLxeFImvp2U6+O35PS9Ntl1eadsOlkh+QezJedAuuQcyJCc1gzJbc2MlyzJbc1+6ZJ9MEsoWa2ZK67Eri1bcg7mSO6hPMk7lP9EYV/uodwny8FcyT2YK/kH86TgUL4UHiqQosOFUnykSEvJ0WIpO1EqNWeq5fP2Rvly4Kz0zfTJ1HdT8mB0UL74sk0qy8rEvzFFooGgZGvK5Ux1J0tYZcy1LPGFMfnhYL/thQEGnPIG6XHb1MkkyCl/Vs8RQ5PFq5PF63IL9mJ+oW3uEy+RYd5fZnzz9WPPY3seGwbmx8CqIjIZcYsMVhm2+TLPF3qyl21cv17S0zPks893Svv1bhmfmZSxrydl5PFD6Z3sle7hbrnYe1HO9ZyLl7NaX+g5Lxd7L8iFJSjne85rm2d7zslKK+d6z8u53gtyvveiXOy9LBf7rjxZei/Lhd5LT5a+S3Kh75Jc6rssV/quytX+a1quDbRL+0C7dAx2SNdwt9wavSU9U/dl+OsRGZ4dld6hfjlx+qRUlpWLf2OqlqxIeozIZBiRsYfh/A9Dk4vJxTBgGEjGwHykInkf5zhLDhYZ/k9uZzG/k9t/2fYW07cda/fAcsPAmq+++kompybl73//u0xNTcmpU6f0S4L7uuC9gea7uZbTPqwwUTL56NfEjJiLEV9OolHNZrVh/QbxB8JSUVklJ06fljs992R8ekIeffdIy8w30zL9zZRMfzPpKVPC/qUoru2pbyZlJZbY9U3L7LezMvvtI0/h96zMfDvzRJnl9zccPxM/J3Ycx7o5efz9Y3n0/SOZfDwpAw8H5XLXNWnctUNdBzeu2yAp6zdINBiW7PQMiRCkGcF3OT32NTleLycM21hjQewmh9cvh/msCzYPr38eTOavV+bz4T55H3Pi3NJQAtUiE0+48SLzldz+y7b3ImOwc14vzkzeLy7vVUlkIDPqWqYWmZhVBiU3LTVN1q3bIOs2bJBgKCQVVZtk/4H9cv7yBbl997b0D/bL4MigDI0OyfDY8CsrtL/SypPyGpGRsYeJMjw2Is8qI6MjQhkeHZbhh7EyNDIkg0OD0n2jS05+cUoad3wm2Xm5sm79evnTJ58IxDQcCEpGJCqZ0XQPkYm7xSS5ytiD5MUfJCa71SG7+RQs2/fq3KdMtk+R7Rv2/HYWmaUgMvY8XR3PU5vnpZnnNbdu3ZKJyQn529/+JpOTk3Ly5Ek1i3otMitF2JAXZ5VxRIZr0+Dv9HQNak31+eTT9evl//7xj/Lpuk91DYb8gnypqq6Suvo62bptq2xv2C6NnzVKY2ODNFh5KRmoHJHlc5aEvBu2y7bt22TL1i1SWlaqmE1JTVEC88mfP9FsMywIGA1HNKlDlNSYpBTHAvcSX8rs3KV58Jgcl78cTcl+ipLtSaBgcno1cnqTnyHJ8WRv8lhtbMv/Wbza53BVERkm25EZL5FxIOCLSjgSEZ/fL+vWrZNPP/1UUIo/+eQTTcX4pz/9SWv+W79+vaxbv06P47eVF5MBcnyRQlpMCikymRc3N5ou0+fTLDZkoWFOjcTYg9rd41YvHRYWUtDJ2OS+TnOM3oOebGgLnfcm7XdjfpPGtNzH4mTqxcbLXJPdy0t3L5ssTZbLGQOrjsg8a7J4sPKgJZ0jX/RZvXf9hvVKalCWWRQL5dnKjysDSCYEyM2Hl8B4X5j60lRLjD2onoV9+98wshgMLKSEuvvP/c9vFgh0Re/JN9xikXwN7lqsfnHrisPB0+b/af8ly34xWLVj7dlmGFi5GFhz8+ZNmZiYkL/+9a9a41qGWdR9zebh4QCQ/CBZyb/diwwXO9ZQIG8+xIZaSU7Ar6v8stKvldcrA+88MBfMjxevDpf64oy7lLl9Vr+4ImKyM9l5MeCekck1z0znmuzuQdajcYX/ks9xv2nfWXTcvh+jdtfwuvp2/WkdXVg+r2s8r6Ifrs2t1aLzjJUuPbZmC/15ZfA8/XuxaNv2bDIMrF4MGJF5DtcH70PWPWD162L8he19ANt2TIl55XKIf+F92sPLzdXTjrH/Vu/Dz+b+5ebe3V/eGpnym/vf1Ww7EkPtfTYkz4G3rR9z242RMSSPMfn3YsfpzveeFwqHEh9knIxc397jluO2e1cqBuKLTibLwMmbY5/3Gl0bVr/cfWzyM/ktdwysuXHjhoyPj8v333+v9YkTJ/TBPd8X7uV+sQuNX78A4tcd/zq00HG23254w4BhwDAQw8B8CqeTDYop//MeoaCo6zaWmbgyq8prsuIaj6+Zr+3Xvc+rVHNdrn93ja52+1+kpo3s7GzJz8+XoqIiyc3N1fcvVmbkk86izZ74ouW4nSAycSww/1yHkynXGQwFNbHOYqxxTv5W2zPZMLC6MWBE5g331bYbdHXfoDb/Nv9vKga8SrWSEhTv+PMUZZVtFFRqFPXy8nLZvHmzbN26VbZt26Z1TW2NFBcXC4sIunOpvW17t10/3n0LbS/m2OQ2nPJNG5AKXFi9Crgboxuz9/zkfvV3MmGLk7y83DzZsmWLHDlyRE63nZZ9+/fJpqpNev30G43EEid4219oO7lfd9xC+93/r62ORGPELBKVSDgiGekZStwKCgoUHzm5OZKdHcPB84zJyd5qe0YaBlY3BozIGJF5QoGwB8LqfiDY/Nv8Py8GnLKJ0u9cxziX/Y7IEF+5adMmaW5u1sWWu7u7hZT/LMRMfObVq1fl8JHD0tDQIKWlpWqd8Pbv+nD1YpTyxRzr2nc118M4sJZgJXGrzeLTigAAIABJREFUtbvr4zhnsXHjdecm95v82x0fDASlvLxC5YJXBMsgDAz0y6FDB7VP4jGjWGRQ/OchQq4/V3v7cX3oOOMu0O64H6PGssSYIC9aMjKlorxCPv/8c9m3b5+0th6Qlr0tUlFRLpmZGQsSWe/Y3TVabc8sw8DqxsCa69evy9j4mHz33XfqWnb8+HF1sXKmbR4cDiTeh4htP/+XMpOVycowYBhYaRhwijNKvzfGg3cHRAblH2vDl19+Kb29vfp+mZ2dlcePH2t59OiRTE9Py+joqNy+fVsV2pKSksT7hvcOMvPGVtAuxfX9vDXtPPNYD1nAApOTk6PrVO3fv18otbW1Smxc/6528+rG+YP9jNkTG+TepxCZ6uoaJXO8fymPHs3KmTNfCFYKv88v6ekZSmRo09tG8rXo/x7ZuDG56/aOKflc729vH97txDEu+5wnPtR7nOsvcbw7LkzsZFQyohmSm5MntdV10nbqC7l7564MDw/Lw4cPpX+gT3bu2iG5uTnPnqunJIzwXrtt23PXMLDyMWBEZpn7H9tNuvJvUptjm+M3EQNOWUWRdUQGEkOBxOBC1tnZqQstf/311/Ltt99qgbyoBWJiQgkNCjzk5ty5c1JVVfUDIuPaxrrjFPZkC4UjPW5MyGu+bbfP1e48jncrsrMPa0hZeZl88cUXqmSjaF+6dEnq6+vVzYzjGQs1x9Me43RZFPnNf+44N172cx2cA5EpKSkVPh6Ojo3K1NSk9PX1qnUCSxD/Z2VmqTsWfdE+57t+XTZRfif3S/sU+nfnUFPcuFztjuU/+nDnuP7ccYmaWNKMOcvbQscl+sM9Drey9AypKKuQvS17peNap0yMz80/GJianpD9rfukoCBfx+nOX6hOjMfe4T+YU5ONvTNWEwbWYOrnIcpLZmxsTB+qCMBrkVlNArFrtQeAYcAwYBh4NgacgplMZFCwISRXrlxRwsK75ZtvvlHLS3t7u7pSHT58WI4dOyYXLlyQ/v5+wVLDNm5ovHuc/OkDUpGWlqbKrXsvsR8FXhX8uAXI7YM0sM2xnEtxyj/tes/xbvOfU/5Jqc9YGK8jYHfv3lUXONYWo003Fs6jP8gE/5Ee3tsfx1HYx9iQj44jFJbMzCyprKiUpuYmJTC7m3ZLxaaKuf8zMnWb82nf9QV50Pbi5ITx8D/j4BhHltzxHPs8hfPd+NimeM9zhMzbruvT7XO/3fka5xOJSllpmRw7dlz6evpkZmomIVcn34nJMdl3YK/k5+dpv+78hWr6s2IyMAwYBozI2MPQXgaGAcOAYWDRGPAqmE7ZRZkuLCyUAwcO6IcxLDGQmKHhITl77qwG++M+xjFk6YLwcOzly5fVfYv/nFKOgoJSTYwK++vq6tTVC0sPSQOqq6t1P+OgX0cWnGKDVSMvL0/PZx8WF1y2Kisrpa6+Tt3eaJO2+Y923HG4lTU2Nsr1G9cTCndPT4+0tLSoyxntYnXieEdO2OeuqX5zvVqkGCt9kOiA69DjnVUkbqXIyc6RktISKa8sk9LSEsnJzY7FxESikp2ZLfl5+TpuEiYwLtqgL67D9VNTE0+akB0bE8dAyrgm5sbNFedXVFTomJAh53NuWVmZtsl5LnMY5yN/5Mh1UbhmfpOggfNI2sA8MB7XR3LtiMz27Q1y88YteTz7WB6OjMmd23dlfHxCvvn6G5Xx+NSY7NnfInn5uQu25W1bx2r3reLBZGHK/GrGgBKZh6MPE1/M+ErGg5kXg3sAOgF5HyK2HftaZXIwORgGDAOrEQOOvHhr3hsotlgycBeDxExNTal1hgxlHAvhcPLiNwo+SrkjFLSBVQOlGatIU1OTWnFwU2O5AOI62cbV68jRI0qGICKcR+F9hcK+ddtWzQIG+UB5pw+SDhCz09nVKXgj0A7vPFzGUNAZGwo7Qegc19ffp9fAdRDLQZ8Qr9bW1kTMDH3TPv2cOnVKj+no7ND26QNZtLW1ya5du5QAMMYY6YpIbnaeymvfvr1qjdix63MpKy+NxcOEIlKQXyifNX6m/REUDykiKQLXgSse7VOuXL2iSRO4DicLZOtkAiGBfHBduMt1dMyND8vZ6dOnZefOnQliiAw5B4JCbNDBgwfl0KFD2j9jIGaI80jYwLkc451btl0hQ1k0HJWGhka5drVd7t25L22nzkjzrhYlM7Mzs/L1N1/L2ORDad67W3LyshPnujbmqx2GrLbnr2FgdWPAiIwLRrQ6oVzYQ2F1PxRs/m3+nwcD8ymXKMA7duyQoaGhBAEYGBhQxZcv/CjWnOdt37WDch9T8GNKsEsUgCUEt2dia3BBm5mZ0e3JyUmNX0GhxjLgFHgsCsUlxXL27FklH/0D/eoyDTG5f/++urvRhmuHZAPnz59XCwMECksD5IM+6Q8SQ2Gb2J6RkREtpEzGsoQ1g/XXuGbOYVyM1dsH++/du6dpliFu4RCELiylxWWCmx0kaXhkWG7dvim7du/Qj4n8X15aIVevXNX+Bh8MKmmAeOHmNjExkegDssi4uEaIpCNLjshAYhgj1+9k6cbHueyjTcaC1Yp5ZF4gl+yjbeKEcP9DViRv4Dxk0tPbI7t379bjsaYhf+ZX55kg/ziR2VSxST7/bIc0NnwupUXlUlpcLp0d3TI9PaNEZnxqVJpadhqRMV3kieeD91lh2/Zumg8Da7q6umTk4YjgAsCD6ujRowqi+V448zVg+wxYhgHDgGHAMAAGUIJJp4ySzDuFgsVgy9YtibgSlORkvKD0QmJ47/A/rlgXL15UBZrsZrRDm5AOp8C79iEOuKbhKsX5KNOc76xCnA+ZgoSgeDsFnvOxGlFDQgi6JzYG6wLpoV377hj329UnT56UwqJCteZgKXL7aZ8xurG68dM3RAKrCCmIA/6glJaUyckTJ+Xx17FxDA4NyJ59LfF3cEgqyirlevd1HSfj4DoePHjwBFGiXzfGwcFBtTBhXUKmEDPmZP+B/XqNbiy04aw5vPc5340Pyw9zgCwgQFynax/CxXXNzMbIpCNoO3ft1PljDkkEwPx6iQxkJjszRy1Q1OnhTCnMK5b2aySDmNLrxyKzu3mHutZx7rNKMobstz2DDAOrEwNGZOzrxw+UCnsYrM6Hgc27zfvLYgC3J9yrnMKMkg0hwa0LpRpFF5eleckM2c9CIcnOyVYLDko7CjRKMwr6+QvnEy5OEBeUcUce2MZCkpWdJSkpKbpGCW5jTgFnPFgQbt64oW5euEOR8pl9tAH54KMe1hKUd6wQuE1hiUDB5xhntcAti/VvICQQBogPViHGq25kX7Tp+bifQQKwdLh+WOoAwsR5EJmS4lI5cfyEPH4cI2sDD/p/QGS6urrl0ewcmWMcjJVrwGWN68AC5K6D8WElUiIRici27dv0eCfLW1/dUjcx3NCIkWGMTtaMk/Nxr2O+qL1EBjkiq77eXvmirU3b4TqJdWLu6NPNrfavaZdjVhnSL0cj6RIJRSUaypDCfCMyL3u/2fn2zDYMRMSIjBEZIzKGAcOAYWBJMIAlhBgMRyBQrs+cOaOuXv5ALJuXZgaLux95X8LuCzxEAkLglHOsALiJoSwT+0JBCWcfSjV9TM9Mq1WG/jds2KBEBosD/7nS3dUlTbt3q5JfXlYu+/buUzKENYTx3r13V6qqqyQjM0Ndqvj/xvUbCRJBdjXcs5QA1NerWxlKO+Ml/oXYmc1bNqs1CCsIpAhCAeEg2QHjmJyaVELGNfj9gXmJzN59LRLVBAYxi0x3p4fITE9LZ0eHuu/h9lVWXq79jgyPJGR+584dHSPWKcaAhQwZ0j/xsMS6QDid7JEr8sayBVHhOomD4f/iophFxsnw68ePpb+vT04cPy6lJSUaQ8P1cz3MH2SG89xcYonRfuLuZdFwjMhEQulKZEjDPBW3yOBathvXslyLkXFzY7URFcPAszGwhq9W+ObyIOfrE1+1SKeJed59YXGCdA8nq59t9jYZmYwMA4aB1YYBgt4hLrxPKCjGKPIou+6dgvLvvtq7dws1ijc1MSpYCDiXNnDz+uyzz/R8yBCpmCFDDQ0NCXep2UezmmGMWBmITHl5hXR1dsnjR4+1TI5PSEtzsxTk50sY96doukBmbn91Wy0u9MMaLlgvmDPGWluDpeVqrA2Izp27GhDv3N/cNWBhgjAQGF9QWKAkAUIFicESdeLkCSG+hT6mprF4tEtObo4ueFlSVCrHjx3XhTD5f2CgT/btbZEogfqBoJSXcR3diTE8HBmR5qYmIYNZbBzpUrmpSu7duy9T09MqM9zXkAMWFcZAXAuEL9b+gCYOQMbMFQXSQhID52KG6xhxTlxXEUQG17f4fE5NjMvF8+ekuqpKmAvkhLyQRUJvCMdinVR/CIU1RiYMocESE06XcCiqpSC/SNqvdcRcyx4/lrHJOSLDuc8qq+3esuu194lhYH4MGJF5Dl9cA8/84DG5mFwMA4YBLwZQ3LGUOMUXtzDcn7AeOCJDVkwvgXHb/I/yjMuWU7xp59q1a6qQ4zJGXxyHEk9GM6wPuH5x3L37dzWbV2pKqlSUV0pHe6fMzj5Si8rQ4AOpqa6WjPR0CUOYwsTzFGr8CVaSR4+xRPRJQ+N2iUTD4kvzSdWmarly+WriWm7fvqNjQ4Gn/8RaLtGIuophzdm7d6+0fdGmrme4f7V3tEtvb49MT09pOzMz09LZ1SF5ebkSwCJTVKprqzx6FLuGwYE+2b+3RdI9RKa7ay5GZnBgQKoqK/U6lChEIlJUUiK3cJOLkxUC8SF+jBG3N1zFkA/EELc0ZMbY2E/2NrLAkZ2NuB6OQ55Yo7KySLtcIidPnkrI4OHwkBxq3S/ZmRk6D24uHAbok21HQkhqgKwhMo7MQGggMwV5hXLtGpagmGxiRGaX5ORkx+QbJzPBUFDmK07+rm+r7VlkGFidGFjDwwyzNw85zM9qkYm/LPRBaYq+PpjtBlmdN4jNu827YeD5McAXfjJn8T6BjKAUkyYYC0WaLy1miYnOuR452UJmsCAQO7Jnzx49lzY4nxgbLBAsNslxek4orAss3rp5S13QOPbu/TvS3NwkaalpMSJzrVNmZ2JEZrB/QKoqKiQDF8IQRCYs+fkFQvwJcSszs9PS298j2xq3SiTdEZkauXr5ml4L7TsiEwgGlMSgXENq8vLzZNfuXdLZ2aGEAIuGy1xGzAlub1iMaGNqZlKutV+R3PwcDaaHKBw9ekzjgPh/sL9XDuxpniMypRVyvet6Ygz9vb1SVlKsFptQKEYaCoqKpPvmTZmMW2TIIgaR4f1NAgRIC20jS+YElz3G5Qq/KfzHcRCa5uYWycrMlpLiMiUy7KcMPxiQ/S1NkkE8E2my41YZr67gSIyrITPMmbqZaRazqKRHMiQ/t0AzstEfbY9NjMqupp2SkZGesPTQRoLEBCGwc8WIzPPfl+4+s9pkthIxYETGiJoRNcOAYcAwsCQYwIWMOBKUZgoKKl/8cXWCyEAC9EUaiSkUqqjG11WByBBr0bKnJUFOHJEhzTFZtJTIuNTFpWVy48bNxLF37n8lu3bvlLQ0n1SWV0lne7daZLDKPFBLBkQmnERkrieITE//PdnWsFnC0ZBaZGo21cm1Kx16DVyHIzIo7yjRgXgdC6Yn+xbpkKe1vb6+Pr1uLDK379yWsfFRbWdiekwut1+U7LwsSfWlqcUDIjM9GyMRD/p7pXVPs2TELTJlSmRuJMYwoESmSKLhkATj/ecVF0nXAkSGBTmRP+NXsjA2pr9xJSNhAkkLsHix7g1xMvyGeNbW1kk0kiElxRVy4uTpxPkQmQMtu1WOkAqfP+Zexjw6BckRGG8NmcFVTkkNVpoIa/3kan8uNmd8fEyJKC5quA/SnuIDi4yHwLhtIzKmlDvMWb26sWBExhSYxAvIHgar+2Fg82/z/7IYgIhgUcG675RnMo5h6cfaglWFPlycjIurIMCefZxPfAapkt35eA0QkA7RgcjgksUaKzU1tXL37r2EJeHGrS7Ztn2r+NL8UlG2STrau2RmFkvEIxkc6JeqSkdkAgmLTGfXk0Rma+NmCUWDMSJTVS/tVzoT47hz566OTYlMKChpvlR1gzp4+KCMjAzL7Cxpl8dVOSeFMQtybtmyWY4eOyJ9A71qlSGgPUZkMiUlLVUKi0rkiIfIDPX3ysGWZslciMj09EhZCUSGNNM+JVT5xcXS4SUyPXMWGRITEAfrZMlcMDbWmkGmxMdQsNxwLNv8B8kIBsJSWlIpJ0+1Jc4fHuyPERmIVDAg/kBAyemziAz/+32xZA9YZpjDgvwClRWWIcY3OvpQmpqb9JpwI3RuamqRMSJj72nT1QwDC2BgDV9hHgw90K9n5NIn7SRfOnhpqB/wM760eL+62PazAxRNRiYjw4BhYKVigPgXlGKUZ3VlUuV+Qn83NDZoDAxxMATrs4AlLmNk+MJis6lqk26jTBPn4aw6pC9mJXuOh+yEgiHJy8uXvXv2Cdm6cImanJ6UC1fOSVlFqfhS/VJeukmukRFrBneqWRns75fKijKJRoISDqJQx9po7+yWh+OjMj0zJfd678iWhnoJRvzi8/mldtNmab8cuw7G0nO/V8fB+5E4GohMUXGhnG47JVNTkzpegvpRxiFtEB7cpJr3NMndnjtqrRmdHJFL185LZk66bExLkYLCYjl09KhM4n42OyuDfT1yqKVJMkMhVfaxyHR3Xk/Iov/+PSkrLpRwyC9+f5r4Q0HJLSqWjhs3ZWIq1gbB/o2Njfr+xqWPBSydmx9pql0gP+94cOje88gWGWdlZUk0mi4+X0hKijfJiZNtMhO3sA0N9ktr0y5JVyLlVyLDdTrS4drjd3Jh3kiKUFhQqPNftWkuWxrXTrIBSBbHuLGAE6x4WL+SCwRnpd5Hdl32jjAMPD8GjMg8R3YUA9TzA8pkZbIyDKxeDKAcQ0ywwPClHQWaQkZMLCtNTU0apM/6JMTT7Ni5QxdwJDMZ66ugeONGhtuTIzIEqOPyBNnhv5LiEmna3STd3ddlOq68D408kKMnDklWTqakpfikvKRyjshAEAYgMqUSCQckFPAliExHZ7eMjo8pkbnfd1e2NmyWUCSg1oPaTfVy9VJ7YhxDQ8M6xpLSEikuLZas7AwpLSuR01+c0vMZb/9Av8bLQAhQtIuLi6St7bQMDPXPS2Ty40RmOh5PhGvZYWJQWNjTH5ByiEzXHJEZ6Lkv5RCZ4ByRySksko4bt54kMp/FiAyk4NixY7qIJeNjTsgihzUGsuA+WEIYSMgAiSSjWXp6xrxEBotMa3OMyDiLzPMSGaxtW7ZskZaWlkS6ahIPMCY3NkjX/v37ZXfTbsEtjkxwJBSgDyMyq/e5Yu8Um/unYWAN/rF8ReJlw9cacsxzgnvAPe1k+8/AZRgwDBgGDAMOAyidKMgow8SHEMjNu4VgcoLgsbQQfM4CktT8xg2NOAmUWNIF0xbB6ngIuHMhQixQCaHp7OySnp5edT/jf0pH5zWp31Yr/qBP/GkBKSuplKtXOzSTF/8P9PdJZXmpBPyp4kvdqCQjJydPOruvy9jEhAbk9/Tdl63bN0sg5FcXOMjQl22xtWpogzH29vVKe8c1uXL1sjR+3iCl5SVy8NABDVTnGFzLiDc5evSoHGg9IBcunJfe/l4ZnxzXzGWjEx6LTGqK5BUUyaFjxwQiw/kP+nqkdfdOCaelScAXkMqKKrl545b+x/9D/X1SVlQgwUCa+HypEgyHJLugMEFkOAYLlrPIIMvt27drXAz/UVgn5uKli5qGeefOneoKCNlBtsiYdYCys0lGgEWmUk6caEv0P/wgRmQysEqxTIMG/MeyyDkMJFti3G+I65kvz2j/xBBRcCF0iQaomWdSb/Mf48G65/P7tBiRseeMw5jVhgUvBozImEXGzPOGAcOAYWBJMYB7El/fISx8IENJdQVCAMGhdkosCixuzXyB5yMamcBYUR43KXfcfOexmOKNGzdk1+4dkpEdkdS0FAkHw+paduVKe4LI9Pbcl4qyEgkFfRKAAAQDkpObJ+0dXTI6FlOm7/XclW0NWyQYDiiRyc3Ol6bdLfLgQYxQQQJYB4ZxjE+My+Gjh6S4pFC2bN0snd0d+h/H8B/u2lhnRh6OyP3ee9L/oE/GJ0fl4fiwnL98VrLzYjEyzrWMzGacO9B7Xw4275YoVog0v5SXV2rWMv6jPOjrVdeySCggfn+q+INBJTLXuq/L+GTMAoaVA/ICqSRBAhYyrCBYvZA3FpDRsVElFMgX0gBphFQQQwORIfWy3x+SUuda5vrv75X9ZBaLxBSpgGZuez4iQ+wN5ITrcFhw1+WtnSy4DqwyxFX5SBSRZJUx1zJTZr3KrG2vXjwYkTEFZkkVGHuYrN6Hic29zT1f38EBAf24K0FmyGKG9QWlGWsASjOLMENw2Ec8DaQFKw7WHE1vHAqpm1lra6tm1eI4ziMmZnhoWAYHBnU9lEuXLsvOHTslLz9X0vwbJc2fqokAigtL5dDBI0pUOjo75dSpk5KXlyPBoF8C/jQlMukZmXLw4GG5eOmytF9rl9Ntp6WqpkrdznDrYvHG8tJyTT+MUg0xGRwc0Pr+/XvS1NIkOblZ2veupl1ytf2qWmzwcGCsEITu691KeI6fPCYXLp+XS1cvyJ4DzZKRna5Zy7Kyc6Xx88/l8rWrulDm2TNt8vmWesmIx8iw1s3Rw8eks71Tujs75WxbmxQX5Gmwvz+QJml+n0SysmT/4cNy6SptdKjrGGvsQGJwySJBAq58xBlBJLDYYPVA/owT8oJlDGsMqbNZaBTXskAgLIUFZdLUvEc6urp0/RvG11BfI+mRUCx2ZREWGcZw8OBBnW/mnLF6C/vAif7X2aGYwEJHtju/32dExnQV01UMA/NiQInMwOCAfiHhgcaDhi8dPATdYldOQXEmYqt/GMhoMjGZGAYMA6sdA7wzKLwzqCE0KLB8Wd+zd4/GaxCjwSKZxMQQ3E22LGJfounRROC5c21mP+dyHISI89pOt+naKy1NLVJdXSNZmVkSCPol1Z+iCm8wEJKsjBwpLSmX2rp6qa2r01iVcIi4E95rPlXC/f6AFBeXaPazuto6YTHPnFzITiwrGgs3kiaYmBxiNo4cPSLHjx+To0ePyL59ezVOhqQBgRDWnRypq6uV1oOtcuz4Mb02trc3bJeCwnwpLC6QyqoKqa7dJEUlBRII+2PuUqGw5OTmSnVNjdTW1kh1ZYUU52RLNL5oJ4SCOJn6unrZQkaxigrJjEY0zodrwe0qLRCQgpISqaqt1QUwceHCIqbvcM32FVtvhhgVYmMgNLi+nTp1SkkPbmUHDhzQxT4hQJlZmUoGWbQyOyNXiotLpVYzmtWqe15BTqamsIZwkrXMm4IZ/DsMJNeQVIgJ7mIs1JlciM9xmdNq62r1WJJH0A5EJrnQ/2q/3+z67Z1jGAiKEZl5sqsYMOzhYBgwDBgGFo8Bp7w62aFMU/g4hoWGbF4EoONChmJNUDzKuDue2n04oy22UYDJdEaKZs6NnZelVoP0aLquT+IP+NQagwsSqZmDfuI8AxKMrzmjrkm+NAnSF+uvBEmfDKHBehRbdZ6+GCdERtc7CbJIZ4yYQbJQ8LPihWxkwXAwoVxDZogZ4RgtmZk6XhRx2vMFfOILsI4OsvBLShrWI0hVUIlAKBLWY8KhgGQEAxINhYRrg0hR0iNRXQSTxTz1GuKKPW2kYHlh7OG4RTA8t6YLMnQfJb3kErkjSwqydQuNqgx4JwYoLHoZlVAoIiHSQYcCas0K+9IkHF8UlP2agjk+V8yfw0ByDTmlfQpjguRqf1xTPAOZdx/Hs54M/2FZMiKz+PvRe1/ZtslvpWJgDaZmTOb4zWJuVotM8EmLzEq9eLsuu7ENA4YBw8Crw4AjMpAVFFOKV8HltxKdp3xQiimxseP0XH8sqxjuX27uIDI+AvnVbQxlGpKBxQAlGGU+TfxxFyWIDOcpkQnEjuV42tNUv4kv/ViVYvvd2F3gudZKntK0Txe/wVj1P8hF4nrZlyapvhQtEBpc4GIWjaD4GF/AL6m+1BhRwB0sGFs8ElJG2uIQxILrhYjFSQx9xvrzaxtOTsjIyYXaydxtI2+3T8+Pk023n+MI4g8GSc0cURnqGOmX+CIIYVyGrk1vn975Td6mX/qBoLhtficKVibvb0iwuq8ZkUEOVkwGhoEfYsCIjD0c7OFoGDAMGAZeCQacIvsqX75KPiAQgTSB0FCUWMQVcpRyd4yLtWA8KOdOYYcssO9JIvPDF2bimHjgubMSPO081zfjc2OMHU9/xJrEyBakgnGHIAlxMqIkBiLjHZ836J01VhLEa4Hxxt39Fj8HWE8iiTG6a3Tjc/06UuTad3O+VDXtxkjak+5lrn/Xr9Xzz7/JxeSy0jGwhqwyBGCaRcbAvtLBbtdnGDcMvF4MOGX2VcrdKdgJAoOirwq+syzMERRnOWE8sVXp545hn2vraeN1x1Crgh3vb6Fz3PELjS9BtBwpSbKoeNt1bXlr7//zbb/oHDiSFxtfDDf0C8nSOk7+XzWRYfyOMHpr7xjmu27b93rvdZO3yfvHwsAaFh4juwopJZNdy17HA8o9ZK2O+WKbHEwOhgHDwErBAO+QmKXh1c9pglTELRDzyhDXtrh7m3u/zXvc09rw/KfXl+Qut1B7zzU+T9sLtbPY/YsZ42Lb5nhcwegDJYbfrr+lqp9w54snOGDf68LVi8jEznn197vJ2GTsMGBE5hW8OJxwrbYbzTBgGDAMGAZWMgaMyBi+VzK+7drefHyvuXjxovT09OgCZc4iw8S5YDybxDd/Em2ObI4MA4YBw4Bh4MfAgCMyru+lssS4dmLJE9I0YQNJG1wxi4zh3WHO6tWNBSMyZpF5IouQPRBW9wPB5t/m3zBgGFgMBozIGF4Wgxc71vCy1BhYc+HChScsMocOHVLF1iwyBralBpukmKo1AAACoElEQVS1Z5gyDBgGDAMrCwNYTrxz6iwpS1WbRWZl4cWLFdu2uV0KDCSIzPj4uGYvYx0ZGobIvOovLUv1oLN2YuszmBxMDoYBw4BhwDDwOjHg1RPol99LWdJ8aTJf0YD/+Fo9r/N6rS+7vwwDbxYGjMjYg3DJs8zYTf5m3eQ2HzYfhgHDwKvCgCMympXNiIy9T02nMgy8ZgysOX/+vNy/f1/GxsY0DXNra6tOQmpqasIi86oegNauvVwNA4YBw4BhwDCwfDHgrC+vcg7VvcyTetmsMcsXL68SJ9b26sSFEZnXzBztRludN5rNu827YcAwYBgwDBgGDAOGgaXFgBEZIzJmBjUMGAYMA4YBw4BhwDBgGDAMLDsMrDl37pzcu3dPRkdHpbe3Vw4cOKAXgWuZN+AfBulMyFYvbTCjydPkaRgwDBgGDAOGAcOAYcAwYBhYHAaMyCxxhhUD4OIAaPIyeRkGDAOGAcOAYcAwYBgwDLwIBtacPXtW7t69Kw8fPtT1ZLDI0FBKSkrCIvMiDds5BkjDgGHAMGAYMAwYBgwDhgHDgGHgVWHAiIxZZMxl0DBgGDAMGAYMA4YBw4BhwDCw7DBgRMZAu+xA+6pYvbVrX4wMA4YBw4BhwDBgGDAMLB8MrPnyyy/lzp07MjIyouvJ7N+/XxVbXMu8Af9MKsH/VkwGhgHDgGHAMGAYMAwYBgwDhgHDwI+NASMyRs6MnBoGDAOGAcOAYcAwYBgwDBgGlh0G1pw5c0Zu374tw8PDmoZ53759ehEbN25MWGR+bLZl/RvjNwwYBgwDhgHDgGHAMGAYMAwYBrwYMCJj7HvZsW8vgG3bHmiGAcOAYcAwYBgwDBgGVicGjMgYkTEiYxgwDBgGDAOGAcOAYcAwYBhYdhj4//l13m/G5kUpAAAAAElFTkSuQmCC;" vertex="1" parent="1">
          <mxGeometry x="60" y="10" width="818" height="447" as="geometry" />
        </mxCell>
      </root>
    </mxGraphModel>
  </diagram>
</mxfile>
